<?xml version="1.0" encoding="UTF-8" standalone="no"?>
<!DOCTYPE svg PUBLIC "-//W3C//DTD SVG 1.1//EN"
 "http://www.w3.org/Graphics/SVG/1.1/DTD/svg11.dtd">
<!-- Generated by graphviz version 2.38.0 (20140413.2041)
 -->
<!-- Title: classes Pages: 1 -->
<svg width="271pt" height="547pt"
 viewBox="0.00 0.00 270.50 547.00" xmlns="http://www.w3.org/2000/svg" xmlns:xlink="http://www.w3.org/1999/xlink">
<g id="graph0" class="graph" transform="scale(1 1) rotate(0) translate(4 543)">
<title>classes</title>
<polygon fill="white" stroke="none" points="-4,4 -4,-543 266.5,-543 266.5,4 -4,4"/>
<!-- 0 -->
<g id="node1" class="node"><title>0</title>
<polygon fill="none" stroke="black" points="0,-37.5 0,-107.5 54,-107.5 54,-37.5 0,-37.5"/>
<text text-anchor="middle" x="27" y="-92.3" font-family="Times New Roman,serif" font-size="14.00">Grad</text>
<polyline fill="none" stroke="black" points="0,-84.5 54,-84.5 "/>
<polyline fill="none" stroke="black" points="0,-60.5 54,-60.5 "/>
<text text-anchor="middle" x="27" y="-45.3" font-family="Times New Roman,serif" font-size="14.00"> </text>
</g>
<!-- 4 -->
<g id="node5" class="node"><title>4</title>
<polygon fill="none" stroke="black" points="38.5,-181.5 38.5,-251.5 97.5,-251.5 97.5,-181.5 38.5,-181.5"/>
<text text-anchor="middle" x="68" y="-236.3" font-family="Times New Roman,serif" font-size="14.00">Student</text>
<polyline fill="none" stroke="black" points="38.5,-228.5 97.5,-228.5 "/>
<polyline fill="none" stroke="black" points="38.5,-204.5 97.5,-204.5 "/>
<text text-anchor="middle" x="68" y="-189.3" font-family="Times New Roman,serif" font-size="14.00"> </text>
</g>
<!-- 0&#45;&gt;4 -->
<g id="edge1" class="edge"><title>0&#45;&gt;4</title>
<path fill="none" stroke="black" d="M36.8205,-107.513C42.3582,-126.692 49.3382,-150.867 55.2895,-171.478"/>
<polygon fill="none" stroke="black" points="51.9808,-172.636 58.1175,-181.273 58.7061,-170.694 51.9808,-172.636"/>
</g>

<!-- 2 -->
<g id="node3" class="node"><title>2</title>
<polygon fill="none" stroke="black" points="27.5,-288.5 27.5,-357.5 108.5,-357.5 108.5,-288.5 27.5,-288.5"/>
<text text-anchor="middle" x="68" y="-342.3" font-family="Times New Roman,serif" font-size="14.00">MITPerson</text>
<polyline fill="none" stroke="black" points="27.5,-334.5 108.5,-334.5 "/>
<text text-anchor="start" x="35.5" y="-319.3" font-family="Times New Roman,serif" font-size="14.00">idNum</text>
<polyline fill="none" stroke="black" points="27.5,-311.5 108.5,-311.5 "/>
<text text-anchor="start" x="35.5" y="-296.3" font-family="Times New Roman,serif" font-size="14.00">getIdNum()</text>
</g>
<!-- 3 -->
<g id="node4" class="node"><title>3</title>
<polygon fill="none" stroke="black" points="2,-394.5 2,-538.5 134,-538.5 134,-394.5 2,-394.5"/>
<text text-anchor="middle" x="68" y="-523.3" font-family="Times New Roman,serif" font-size="14.00">Person</text>
<polyline fill="none" stroke="black" points="2,-515.5 134,-515.5 "/>
<text text-anchor="start" x="10" y="-500.3" font-family="Times New Roman,serif" font-size="14.00">birthday : NoneType</text>
<text text-anchor="start" x="10" y="-485.3" font-family="Times New Roman,serif" font-size="14.00">lastName</text>
<text text-anchor="start" x="10" y="-470.3" font-family="Times New Roman,serif" font-size="14.00">name</text>
<polyline fill="none" stroke="black" points="2,-462.5 134,-462.5 "/>
<text text-anchor="start" x="10" y="-447.3" font-family="Times New Roman,serif" font-size="14.00">getAge()</text>
<text text-anchor="start" x="10" y="-432.3" font-family="Times New Roman,serif" font-size="14.00">getLastName()</text>
<text text-anchor="start" x="10" y="-417.3" font-family="Times New Roman,serif" font-size="14.00">getName()</text>
<text text-anchor="start" x="10" y="-402.3" font-family="Times New Roman,serif" font-size="14.00">setBirthday()</text>
</g>
<!-- 2&#45;&gt;3 -->
<g id="edge2" class="edge"><title>2&#45;&gt;3</title>
<path fill="none" stroke="black" d="M68,-357.534C68,-365.696 68,-374.782 68,-384.121"/>
<polygon fill="none" stroke="black" points="64.5001,-384.322 68,-394.322 71.5001,-384.323 64.5001,-384.322"/>
</g>
<!-- 4&#45;&gt;2 -->
<g id="edge3" class="edge"><title>4&#45;&gt;2</title>
<path fill="none" stroke="black" d="M68,-251.717C68,-260.188 68,-269.38 68,-278.238"/>
<polygon fill="none" stroke="black" points="64.5001,-278.419 68,-288.419 71.5001,-278.419 64.5001,-278.419"/>
</g>
<!-- 5 -->
<g id="node6" class="node"><title>5</title>
<polygon fill="none" stroke="black" points="72.5,-38 72.5,-107 145.5,-107 145.5,-38 72.5,-38"/>
<text text-anchor="middle" x="109" y="-91.8" font-family="Times New Roman,serif" font-size="14.00">UG</text>
<polyline fill="none" stroke="black" points="72.5,-84 145.5,-84 "/>
<text text-anchor="start" x="80.5" y="-68.8" font-family="Times New Roman,serif" font-size="14.00">year</text>
<polyline fill="none" stroke="black" points="72.5,-61 145.5,-61 "/>
<text text-anchor="start" x="80.5" y="-45.8" font-family="Times New Roman,serif" font-size="14.00">getClass()</text>
</g>
<!-- 5&#45;&gt;4 -->
<g id="edge4" class="edge"><title>5&#45;&gt;4</title>
<path fill="none" stroke="black" d="M99.2836,-107.152C93.7483,-126.323 86.7468,-150.572 80.7715,-171.267"/>
<polygon fill="none" stroke="black" points="77.3429,-170.525 77.9315,-181.103 84.0682,-172.466 77.3429,-170.525"/>
</g>
</g>
</svg>
