<?xml version="1.0" encoding="UTF-8" standalone="no"?>
<!DOCTYPE svg PUBLIC "-//W3C//DTD SVG 1.1//EN"
 "http://www.w3.org/Graphics/SVG/1.1/DTD/svg11.dtd">
<!-- Generated by graphviz version 2.38.0 (20140413.2041)
 -->
<!-- Title: packages Pages: 1 -->
<svg width="498pt" height="116pt"
 viewBox="0.00 0.00 498.00 116.00" xmlns="http://www.w3.org/2000/svg" xmlns:xlink="http://www.w3.org/1999/xlink">
<g id="graph0" class="graph" transform="scale(1 1) rotate(0) translate(4 112)">
<title>packages</title>
<polygon fill="white" stroke="none" points="-4,4 -4,-112 494,-112 494,4 -4,4"/>
<!-- 0 -->
<g id="node1" class="node"><title>0</title>
<polygon fill="none" stroke="black" points="74,-36 0,-36 0,-0 74,-0 74,-36"/>
<text text-anchor="middle" x="37" y="-14.3" font-family="Times New Roman,serif" font-size="14.00">distinmulti</text>
</g>
<!-- 1 -->
<g id="node2" class="node"><title>1</title>
<polygon fill="none" stroke="black" points="190,-36 92,-36 92,-0 190,-0 190,-36"/>
<text text-anchor="middle" x="141" y="-14.3" font-family="Times New Roman,serif" font-size="14.00">distinmulti.edu</text>
</g>
<!-- 2 -->
<g id="node3" class="node"><title>2</title>
<polygon fill="none" stroke="black" points="340,-36 208,-36 208,-0 340,-0 340,-36"/>
<text text-anchor="middle" x="274" y="-14.3" font-family="Times New Roman,serif" font-size="14.00">distinmulti.edu.grade</text>
</g>
<!-- 3 -->
<g id="node4" class="node"><title>3</title>
<polygon fill="none" stroke="black" points="345,-108 203,-108 203,-72 345,-72 345,-108"/>
<text text-anchor="middle" x="274" y="-86.3" font-family="Times New Roman,serif" font-size="14.00">distinmulti.edu.student</text>
</g>
<!-- 2&#45;&gt;3 -->
<g id="edge1" class="edge"><title>2&#45;&gt;3</title>
<path fill="none" stroke="black" d="M274,-36.3034C274,-44.0173 274,-53.2875 274,-61.8876"/>
<polygon fill="black" stroke="black" points="274,-71.8957 269.5,-61.8956 274,-66.8957 274,-61.8957 274,-61.8957 274,-61.8957 274,-66.8957 278.5,-61.8957 274,-71.8957 274,-71.8957"/>
</g>
<!-- 4 -->
<g id="node5" class="node"><title>4</title>
<polygon fill="none" stroke="black" points="490,-36 358,-36 358,-0 490,-0 490,-36"/>
<text text-anchor="middle" x="424" y="-14.3" font-family="Times New Roman,serif" font-size="14.00">distinmulti.main_app</text>
</g>
</g>
</svg>
