<?xml version="1.0" encoding="utf-8" standalone="no"?>
<!DOCTYPE svg PUBLIC "-//W3C//DTD SVG 1.1//EN"
  "http://www.w3.org/Graphics/SVG/1.1/DTD/svg11.dtd">
<!-- Created with matplotlib (https://matplotlib.org/) -->
<svg height="576pt" version="1.1" viewBox="0 0 864 576" width="864pt" xmlns="http://www.w3.org/2000/svg" xmlns:xlink="http://www.w3.org/1999/xlink">
 <defs>
  <style type="text/css">
*{stroke-linecap:butt;stroke-linejoin:round;}
  </style>
 </defs>
 <g id="figure_1">
  <g id="patch_1">
   <path d="M 0 576 
L 864 576 
L 864 0 
L 0 0 
z
" style="fill:#ffffff;"/>
  </g>
  <g id="axes_1">
   <g id="patch_2">
    <path d="M 43.2 264.436364 
L 396.654545 264.436364 
L 396.654545 28.8 
L 43.2 28.8 
z
" style="fill:#ffffff;"/>
   </g>
   <g id="matplotlib.axis_1">
    <g id="xtick_1">
     <g id="line2d_1">
      <defs>
       <path d="M 0 0 
L 0 3.5 
" id="mbb58b6609d" style="stroke:#000000;stroke-width:0.8;"/>
      </defs>
      <g>
       <use style="stroke:#000000;stroke-width:0.8;" x="43.2" xlink:href="#mbb58b6609d" y="264.436364"/>
      </g>
     </g>
     <g id="text_1">
      <!-- 0.0 -->
      <defs>
       <path d="M 31.78125 66.40625 
Q 24.171875 66.40625 20.328125 58.90625 
Q 16.5 51.421875 16.5 36.375 
Q 16.5 21.390625 20.328125 13.890625 
Q 24.171875 6.390625 31.78125 6.390625 
Q 39.453125 6.390625 43.28125 13.890625 
Q 47.125 21.390625 47.125 36.375 
Q 47.125 51.421875 43.28125 58.90625 
Q 39.453125 66.40625 31.78125 66.40625 
z
M 31.78125 74.21875 
Q 44.046875 74.21875 50.515625 64.515625 
Q 56.984375 54.828125 56.984375 36.375 
Q 56.984375 17.96875 50.515625 8.265625 
Q 44.046875 -1.421875 31.78125 -1.421875 
Q 19.53125 -1.421875 13.0625 8.265625 
Q 6.59375 17.96875 6.59375 36.375 
Q 6.59375 54.828125 13.0625 64.515625 
Q 19.53125 74.21875 31.78125 74.21875 
z
" id="DejaVuSans-48"/>
       <path d="M 10.6875 12.40625 
L 21 12.40625 
L 21 0 
L 10.6875 0 
z
" id="DejaVuSans-46"/>
      </defs>
      <g transform="translate(35.248438 279.034801)scale(0.1 -0.1)">
       <use xlink:href="#DejaVuSans-48"/>
       <use x="63.623047" xlink:href="#DejaVuSans-46"/>
       <use x="95.410156" xlink:href="#DejaVuSans-48"/>
      </g>
     </g>
    </g>
    <g id="xtick_2">
     <g id="line2d_2">
      <g>
       <use style="stroke:#000000;stroke-width:0.8;" x="87.381818" xlink:href="#mbb58b6609d" y="264.436364"/>
      </g>
     </g>
     <g id="text_2">
      <!-- 2.5 -->
      <defs>
       <path d="M 19.1875 8.296875 
L 53.609375 8.296875 
L 53.609375 0 
L 7.328125 0 
L 7.328125 8.296875 
Q 12.9375 14.109375 22.625 23.890625 
Q 32.328125 33.6875 34.8125 36.53125 
Q 39.546875 41.84375 41.421875 45.53125 
Q 43.3125 49.21875 43.3125 52.78125 
Q 43.3125 58.59375 39.234375 62.25 
Q 35.15625 65.921875 28.609375 65.921875 
Q 23.96875 65.921875 18.8125 64.3125 
Q 13.671875 62.703125 7.8125 59.421875 
L 7.8125 69.390625 
Q 13.765625 71.78125 18.9375 73 
Q 24.125 74.21875 28.421875 74.21875 
Q 39.75 74.21875 46.484375 68.546875 
Q 53.21875 62.890625 53.21875 53.421875 
Q 53.21875 48.921875 51.53125 44.890625 
Q 49.859375 40.875 45.40625 35.40625 
Q 44.1875 33.984375 37.640625 27.21875 
Q 31.109375 20.453125 19.1875 8.296875 
z
" id="DejaVuSans-50"/>
       <path d="M 10.796875 72.90625 
L 49.515625 72.90625 
L 49.515625 64.59375 
L 19.828125 64.59375 
L 19.828125 46.734375 
Q 21.96875 47.46875 24.109375 47.828125 
Q 26.265625 48.1875 28.421875 48.1875 
Q 40.625 48.1875 47.75 41.5 
Q 54.890625 34.8125 54.890625 23.390625 
Q 54.890625 11.625 47.5625 5.09375 
Q 40.234375 -1.421875 26.90625 -1.421875 
Q 22.3125 -1.421875 17.546875 -0.640625 
Q 12.796875 0.140625 7.71875 1.703125 
L 7.71875 11.625 
Q 12.109375 9.234375 16.796875 8.0625 
Q 21.484375 6.890625 26.703125 6.890625 
Q 35.15625 6.890625 40.078125 11.328125 
Q 45.015625 15.765625 45.015625 23.390625 
Q 45.015625 31 40.078125 35.4375 
Q 35.15625 39.890625 26.703125 39.890625 
Q 22.75 39.890625 18.8125 39.015625 
Q 14.890625 38.140625 10.796875 36.28125 
z
" id="DejaVuSans-53"/>
      </defs>
      <g transform="translate(79.430256 279.034801)scale(0.1 -0.1)">
       <use xlink:href="#DejaVuSans-50"/>
       <use x="63.623047" xlink:href="#DejaVuSans-46"/>
       <use x="95.410156" xlink:href="#DejaVuSans-53"/>
      </g>
     </g>
    </g>
    <g id="xtick_3">
     <g id="line2d_3">
      <g>
       <use style="stroke:#000000;stroke-width:0.8;" x="131.563636" xlink:href="#mbb58b6609d" y="264.436364"/>
      </g>
     </g>
     <g id="text_3">
      <!-- 5.0 -->
      <g transform="translate(123.612074 279.034801)scale(0.1 -0.1)">
       <use xlink:href="#DejaVuSans-53"/>
       <use x="63.623047" xlink:href="#DejaVuSans-46"/>
       <use x="95.410156" xlink:href="#DejaVuSans-48"/>
      </g>
     </g>
    </g>
    <g id="xtick_4">
     <g id="line2d_4">
      <g>
       <use style="stroke:#000000;stroke-width:0.8;" x="175.745455" xlink:href="#mbb58b6609d" y="264.436364"/>
      </g>
     </g>
     <g id="text_4">
      <!-- 7.5 -->
      <defs>
       <path d="M 8.203125 72.90625 
L 55.078125 72.90625 
L 55.078125 68.703125 
L 28.609375 0 
L 18.3125 0 
L 43.21875 64.59375 
L 8.203125 64.59375 
z
" id="DejaVuSans-55"/>
      </defs>
      <g transform="translate(167.793892 279.034801)scale(0.1 -0.1)">
       <use xlink:href="#DejaVuSans-55"/>
       <use x="63.623047" xlink:href="#DejaVuSans-46"/>
       <use x="95.410156" xlink:href="#DejaVuSans-53"/>
      </g>
     </g>
    </g>
    <g id="xtick_5">
     <g id="line2d_5">
      <g>
       <use style="stroke:#000000;stroke-width:0.8;" x="219.927273" xlink:href="#mbb58b6609d" y="264.436364"/>
      </g>
     </g>
     <g id="text_5">
      <!-- 10.0 -->
      <defs>
       <path d="M 12.40625 8.296875 
L 28.515625 8.296875 
L 28.515625 63.921875 
L 10.984375 60.40625 
L 10.984375 69.390625 
L 28.421875 72.90625 
L 38.28125 72.90625 
L 38.28125 8.296875 
L 54.390625 8.296875 
L 54.390625 0 
L 12.40625 0 
z
" id="DejaVuSans-49"/>
      </defs>
      <g transform="translate(208.79446 279.034801)scale(0.1 -0.1)">
       <use xlink:href="#DejaVuSans-49"/>
       <use x="63.623047" xlink:href="#DejaVuSans-48"/>
       <use x="127.246094" xlink:href="#DejaVuSans-46"/>
       <use x="159.033203" xlink:href="#DejaVuSans-48"/>
      </g>
     </g>
    </g>
    <g id="xtick_6">
     <g id="line2d_6">
      <g>
       <use style="stroke:#000000;stroke-width:0.8;" x="264.109091" xlink:href="#mbb58b6609d" y="264.436364"/>
      </g>
     </g>
     <g id="text_6">
      <!-- 12.5 -->
      <g transform="translate(252.976278 279.034801)scale(0.1 -0.1)">
       <use xlink:href="#DejaVuSans-49"/>
       <use x="63.623047" xlink:href="#DejaVuSans-50"/>
       <use x="127.246094" xlink:href="#DejaVuSans-46"/>
       <use x="159.033203" xlink:href="#DejaVuSans-53"/>
      </g>
     </g>
    </g>
    <g id="xtick_7">
     <g id="line2d_7">
      <g>
       <use style="stroke:#000000;stroke-width:0.8;" x="308.290909" xlink:href="#mbb58b6609d" y="264.436364"/>
      </g>
     </g>
     <g id="text_7">
      <!-- 15.0 -->
      <g transform="translate(297.158097 279.034801)scale(0.1 -0.1)">
       <use xlink:href="#DejaVuSans-49"/>
       <use x="63.623047" xlink:href="#DejaVuSans-53"/>
       <use x="127.246094" xlink:href="#DejaVuSans-46"/>
       <use x="159.033203" xlink:href="#DejaVuSans-48"/>
      </g>
     </g>
    </g>
    <g id="xtick_8">
     <g id="line2d_8">
      <g>
       <use style="stroke:#000000;stroke-width:0.8;" x="352.472727" xlink:href="#mbb58b6609d" y="264.436364"/>
      </g>
     </g>
     <g id="text_8">
      <!-- 17.5 -->
      <g transform="translate(341.339915 279.034801)scale(0.1 -0.1)">
       <use xlink:href="#DejaVuSans-49"/>
       <use x="63.623047" xlink:href="#DejaVuSans-55"/>
       <use x="127.246094" xlink:href="#DejaVuSans-46"/>
       <use x="159.033203" xlink:href="#DejaVuSans-53"/>
      </g>
     </g>
    </g>
    <g id="xtick_9">
     <g id="line2d_9">
      <g>
       <use style="stroke:#000000;stroke-width:0.8;" x="396.654545" xlink:href="#mbb58b6609d" y="264.436364"/>
      </g>
     </g>
     <g id="text_9">
      <!-- 20.0 -->
      <g transform="translate(385.521733 279.034801)scale(0.1 -0.1)">
       <use xlink:href="#DejaVuSans-50"/>
       <use x="63.623047" xlink:href="#DejaVuSans-48"/>
       <use x="127.246094" xlink:href="#DejaVuSans-46"/>
       <use x="159.033203" xlink:href="#DejaVuSans-48"/>
      </g>
     </g>
    </g>
    <g id="text_10">
     <!-- x -->
     <defs>
      <path d="M 54.890625 54.6875 
L 35.109375 28.078125 
L 55.90625 0 
L 45.3125 0 
L 29.390625 21.484375 
L 13.484375 0 
L 2.875 0 
L 24.125 28.609375 
L 4.6875 54.6875 
L 15.28125 54.6875 
L 29.78125 35.203125 
L 44.28125 54.6875 
z
" id="DejaVuSans-120"/>
     </defs>
     <g transform="translate(216.967898 292.712926)scale(0.1 -0.1)">
      <use xlink:href="#DejaVuSans-120"/>
     </g>
    </g>
   </g>
   <g id="matplotlib.axis_2">
    <g id="ytick_1">
     <g id="line2d_10">
      <defs>
       <path d="M 0 0 
L -3.5 0 
" id="m65df75e66c" style="stroke:#000000;stroke-width:0.8;"/>
      </defs>
      <g>
       <use style="stroke:#000000;stroke-width:0.8;" x="43.2" xlink:href="#m65df75e66c" y="264.436364"/>
      </g>
     </g>
     <g id="text_11">
      <!-- 2 -->
      <g transform="translate(29.8375 268.235582)scale(0.1 -0.1)">
       <use xlink:href="#DejaVuSans-50"/>
      </g>
     </g>
    </g>
    <g id="ytick_2">
     <g id="line2d_11">
      <g>
       <use style="stroke:#000000;stroke-width:0.8;" x="43.2" xlink:href="#m65df75e66c" y="225.163636"/>
      </g>
     </g>
     <g id="text_12">
      <!-- 4 -->
      <defs>
       <path d="M 37.796875 64.3125 
L 12.890625 25.390625 
L 37.796875 25.390625 
z
M 35.203125 72.90625 
L 47.609375 72.90625 
L 47.609375 25.390625 
L 58.015625 25.390625 
L 58.015625 17.1875 
L 47.609375 17.1875 
L 47.609375 0 
L 37.796875 0 
L 37.796875 17.1875 
L 4.890625 17.1875 
L 4.890625 26.703125 
z
" id="DejaVuSans-52"/>
      </defs>
      <g transform="translate(29.8375 228.962855)scale(0.1 -0.1)">
       <use xlink:href="#DejaVuSans-52"/>
      </g>
     </g>
    </g>
    <g id="ytick_3">
     <g id="line2d_12">
      <g>
       <use style="stroke:#000000;stroke-width:0.8;" x="43.2" xlink:href="#m65df75e66c" y="185.890909"/>
      </g>
     </g>
     <g id="text_13">
      <!-- 6 -->
      <defs>
       <path d="M 33.015625 40.375 
Q 26.375 40.375 22.484375 35.828125 
Q 18.609375 31.296875 18.609375 23.390625 
Q 18.609375 15.53125 22.484375 10.953125 
Q 26.375 6.390625 33.015625 6.390625 
Q 39.65625 6.390625 43.53125 10.953125 
Q 47.40625 15.53125 47.40625 23.390625 
Q 47.40625 31.296875 43.53125 35.828125 
Q 39.65625 40.375 33.015625 40.375 
z
M 52.59375 71.296875 
L 52.59375 62.3125 
Q 48.875 64.0625 45.09375 64.984375 
Q 41.3125 65.921875 37.59375 65.921875 
Q 27.828125 65.921875 22.671875 59.328125 
Q 17.53125 52.734375 16.796875 39.40625 
Q 19.671875 43.65625 24.015625 45.921875 
Q 28.375 48.1875 33.59375 48.1875 
Q 44.578125 48.1875 50.953125 41.515625 
Q 57.328125 34.859375 57.328125 23.390625 
Q 57.328125 12.15625 50.6875 5.359375 
Q 44.046875 -1.421875 33.015625 -1.421875 
Q 20.359375 -1.421875 13.671875 8.265625 
Q 6.984375 17.96875 6.984375 36.375 
Q 6.984375 53.65625 15.1875 63.9375 
Q 23.390625 74.21875 37.203125 74.21875 
Q 40.921875 74.21875 44.703125 73.484375 
Q 48.484375 72.75 52.59375 71.296875 
z
" id="DejaVuSans-54"/>
      </defs>
      <g transform="translate(29.8375 189.690128)scale(0.1 -0.1)">
       <use xlink:href="#DejaVuSans-54"/>
      </g>
     </g>
    </g>
    <g id="ytick_4">
     <g id="line2d_13">
      <g>
       <use style="stroke:#000000;stroke-width:0.8;" x="43.2" xlink:href="#m65df75e66c" y="146.618182"/>
      </g>
     </g>
     <g id="text_14">
      <!-- 8 -->
      <defs>
       <path d="M 31.78125 34.625 
Q 24.75 34.625 20.71875 30.859375 
Q 16.703125 27.09375 16.703125 20.515625 
Q 16.703125 13.921875 20.71875 10.15625 
Q 24.75 6.390625 31.78125 6.390625 
Q 38.8125 6.390625 42.859375 10.171875 
Q 46.921875 13.96875 46.921875 20.515625 
Q 46.921875 27.09375 42.890625 30.859375 
Q 38.875 34.625 31.78125 34.625 
z
M 21.921875 38.8125 
Q 15.578125 40.375 12.03125 44.71875 
Q 8.5 49.078125 8.5 55.328125 
Q 8.5 64.0625 14.71875 69.140625 
Q 20.953125 74.21875 31.78125 74.21875 
Q 42.671875 74.21875 48.875 69.140625 
Q 55.078125 64.0625 55.078125 55.328125 
Q 55.078125 49.078125 51.53125 44.71875 
Q 48 40.375 41.703125 38.8125 
Q 48.828125 37.15625 52.796875 32.3125 
Q 56.78125 27.484375 56.78125 20.515625 
Q 56.78125 9.90625 50.3125 4.234375 
Q 43.84375 -1.421875 31.78125 -1.421875 
Q 19.734375 -1.421875 13.25 4.234375 
Q 6.78125 9.90625 6.78125 20.515625 
Q 6.78125 27.484375 10.78125 32.3125 
Q 14.796875 37.15625 21.921875 38.8125 
z
M 18.3125 54.390625 
Q 18.3125 48.734375 21.84375 45.5625 
Q 25.390625 42.390625 31.78125 42.390625 
Q 38.140625 42.390625 41.71875 45.5625 
Q 45.3125 48.734375 45.3125 54.390625 
Q 45.3125 60.0625 41.71875 63.234375 
Q 38.140625 66.40625 31.78125 66.40625 
Q 25.390625 66.40625 21.84375 63.234375 
Q 18.3125 60.0625 18.3125 54.390625 
z
" id="DejaVuSans-56"/>
      </defs>
      <g transform="translate(29.8375 150.417401)scale(0.1 -0.1)">
       <use xlink:href="#DejaVuSans-56"/>
      </g>
     </g>
    </g>
    <g id="ytick_5">
     <g id="line2d_14">
      <g>
       <use style="stroke:#000000;stroke-width:0.8;" x="43.2" xlink:href="#m65df75e66c" y="107.345455"/>
      </g>
     </g>
     <g id="text_15">
      <!-- 10 -->
      <g transform="translate(23.475 111.144673)scale(0.1 -0.1)">
       <use xlink:href="#DejaVuSans-49"/>
       <use x="63.623047" xlink:href="#DejaVuSans-48"/>
      </g>
     </g>
    </g>
    <g id="ytick_6">
     <g id="line2d_15">
      <g>
       <use style="stroke:#000000;stroke-width:0.8;" x="43.2" xlink:href="#m65df75e66c" y="68.072727"/>
      </g>
     </g>
     <g id="text_16">
      <!-- 12 -->
      <g transform="translate(23.475 71.871946)scale(0.1 -0.1)">
       <use xlink:href="#DejaVuSans-49"/>
       <use x="63.623047" xlink:href="#DejaVuSans-50"/>
      </g>
     </g>
    </g>
    <g id="ytick_7">
     <g id="line2d_16">
      <g>
       <use style="stroke:#000000;stroke-width:0.8;" x="43.2" xlink:href="#m65df75e66c" y="28.8"/>
      </g>
     </g>
     <g id="text_17">
      <!-- 14 -->
      <g transform="translate(23.475 32.599219)scale(0.1 -0.1)">
       <use xlink:href="#DejaVuSans-49"/>
       <use x="63.623047" xlink:href="#DejaVuSans-52"/>
      </g>
     </g>
    </g>
    <g id="text_18">
     <!-- y -->
     <defs>
      <path d="M 32.171875 -5.078125 
Q 28.375 -14.84375 24.75 -17.8125 
Q 21.140625 -20.796875 15.09375 -20.796875 
L 7.90625 -20.796875 
L 7.90625 -13.28125 
L 13.1875 -13.28125 
Q 16.890625 -13.28125 18.9375 -11.515625 
Q 21 -9.765625 23.484375 -3.21875 
L 25.09375 0.875 
L 2.984375 54.6875 
L 12.5 54.6875 
L 29.59375 11.921875 
L 46.6875 54.6875 
L 56.203125 54.6875 
z
" id="DejaVuSans-121"/>
     </defs>
     <g transform="translate(17.395313 149.577557)rotate(-90)scale(0.1 -0.1)">
      <use xlink:href="#DejaVuSans-121"/>
     </g>
    </g>
   </g>
   <g id="line2d_17">
    <defs>
     <path d="M 0 3 
C 0.795609 3 1.55874 2.683901 2.12132 2.12132 
C 2.683901 1.55874 3 0.795609 3 0 
C 3 -0.795609 2.683901 -1.55874 2.12132 -2.12132 
C 1.55874 -2.683901 0.795609 -3 0 -3 
C -0.795609 -3 -1.55874 -2.683901 -2.12132 -2.12132 
C -2.683901 -1.55874 -3 -0.795609 -3 0 
C -3 0.795609 -2.683901 1.55874 -2.12132 2.12132 
C -1.55874 2.683901 -0.795609 3 0 3 
z
" id="m98971f8c3e" style="stroke:#0000ff;"/>
    </defs>
    <g clip-path="url(#pe067c2556e)">
     <use style="fill:#0000ff;stroke:#0000ff;" x="219.927273" xlink:href="#m98971f8c3e" y="145.832727"/>
     <use style="fill:#0000ff;stroke:#0000ff;" x="184.581818" xlink:href="#m98971f8c3e" y="167.236364"/>
     <use style="fill:#0000ff;stroke:#0000ff;" x="272.945455" xlink:href="#m98971f8c3e" y="154.865455"/>
     <use style="fill:#0000ff;stroke:#0000ff;" x="202.254545" xlink:href="#m98971f8c3e" y="130.712727"/>
     <use style="fill:#0000ff;stroke:#0000ff;" x="237.6" xlink:href="#m98971f8c3e" y="140.138182"/>
     <use style="fill:#0000ff;stroke:#0000ff;" x="290.618182" xlink:href="#m98971f8c3e" y="108.130909"/>
     <use style="fill:#0000ff;stroke:#0000ff;" x="149.236364" xlink:href="#m98971f8c3e" y="161.541818"/>
     <use style="fill:#0000ff;stroke:#0000ff;" x="113.890909" xlink:href="#m98971f8c3e" y="220.058182"/>
     <use style="fill:#0000ff;stroke:#0000ff;" x="255.272727" xlink:href="#m98971f8c3e" y="90.850909"/>
     <use style="fill:#0000ff;stroke:#0000ff;" x="166.909091" xlink:href="#m98971f8c3e" y="209.061818"/>
     <use style="fill:#0000ff;stroke:#0000ff;" x="131.563636" xlink:href="#m98971f8c3e" y="192.174545"/>
    </g>
   </g>
   <g id="line2d_18">
    <path clip-path="url(#pe067c2556e)" d="M 43.2 244.798215 
L 396.654545 48.398876 
" style="fill:none;stroke:#000000;stroke-linecap:square;stroke-width:1.5;"/>
   </g>
   <g id="patch_3">
    <path d="M 43.2 264.436364 
L 43.2 28.8 
" style="fill:none;stroke:#000000;stroke-linecap:square;stroke-linejoin:miter;stroke-width:0.8;"/>
   </g>
   <g id="patch_4">
    <path d="M 396.654545 264.436364 
L 396.654545 28.8 
" style="fill:none;stroke:#000000;stroke-linecap:square;stroke-linejoin:miter;stroke-width:0.8;"/>
   </g>
   <g id="patch_5">
    <path d="M 43.2 264.436364 
L 396.654545 264.436364 
" style="fill:none;stroke:#000000;stroke-linecap:square;stroke-linejoin:miter;stroke-width:0.8;"/>
   </g>
   <g id="patch_6">
    <path d="M 43.2 28.8 
L 396.654545 28.8 
" style="fill:none;stroke:#000000;stroke-linecap:square;stroke-linejoin:miter;stroke-width:0.8;"/>
   </g>
   <g id="text_19">
    <!-- No: 1 -->
    <defs>
     <path d="M 9.8125 72.90625 
L 23.09375 72.90625 
L 55.421875 11.921875 
L 55.421875 72.90625 
L 64.984375 72.90625 
L 64.984375 0 
L 51.703125 0 
L 19.390625 60.984375 
L 19.390625 0 
L 9.8125 0 
z
" id="DejaVuSans-78"/>
     <path d="M 30.609375 48.390625 
Q 23.390625 48.390625 19.1875 42.75 
Q 14.984375 37.109375 14.984375 27.296875 
Q 14.984375 17.484375 19.15625 11.84375 
Q 23.34375 6.203125 30.609375 6.203125 
Q 37.796875 6.203125 41.984375 11.859375 
Q 46.1875 17.53125 46.1875 27.296875 
Q 46.1875 37.015625 41.984375 42.703125 
Q 37.796875 48.390625 30.609375 48.390625 
z
M 30.609375 56 
Q 42.328125 56 49.015625 48.375 
Q 55.71875 40.765625 55.71875 27.296875 
Q 55.71875 13.875 49.015625 6.21875 
Q 42.328125 -1.421875 30.609375 -1.421875 
Q 18.84375 -1.421875 12.171875 6.21875 
Q 5.515625 13.875 5.515625 27.296875 
Q 5.515625 40.765625 12.171875 48.375 
Q 18.84375 56 30.609375 56 
z
" id="DejaVuSans-111"/>
     <path d="M 11.71875 12.40625 
L 22.015625 12.40625 
L 22.015625 0 
L 11.71875 0 
z
M 11.71875 51.703125 
L 22.015625 51.703125 
L 22.015625 39.3125 
L 11.71875 39.3125 
z
" id="DejaVuSans-58"/>
     <path id="DejaVuSans-32"/>
    </defs>
    <g transform="translate(204.021648 22.8)scale(0.12 -0.12)">
     <use xlink:href="#DejaVuSans-78"/>
     <use x="74.804688" xlink:href="#DejaVuSans-111"/>
     <use x="135.986328" xlink:href="#DejaVuSans-58"/>
     <use x="169.677734" xlink:href="#DejaVuSans-32"/>
     <use x="201.464844" xlink:href="#DejaVuSans-49"/>
    </g>
   </g>
   <g id="legend_1">
    <g id="patch_7">
     <path d="M 50.2 62.718125 
L 210.7 62.718125 
Q 212.7 62.718125 212.7 60.718125 
L 212.7 35.8 
Q 212.7 33.8 210.7 33.8 
L 50.2 33.8 
Q 48.2 33.8 48.2 35.8 
L 48.2 60.718125 
Q 48.2 62.718125 50.2 62.718125 
z
" style="fill:#ffffff;opacity:0.8;stroke:#cccccc;stroke-linejoin:miter;"/>
    </g>
    <g id="line2d_19">
     <path d="M 52.2 48.558281 
L 72.2 48.558281 
" style="fill:none;stroke:#000000;stroke-linecap:square;stroke-width:1.5;"/>
    </g>
    <g id="line2d_20"/>
    <g id="text_20">
     <!-- Linear Regression:$y=f(x)$ -->
     <defs>
      <path d="M 9.8125 72.90625 
L 19.671875 72.90625 
L 19.671875 8.296875 
L 55.171875 8.296875 
L 55.171875 0 
L 9.8125 0 
z
" id="DejaVuSans-76"/>
      <path d="M 9.421875 54.6875 
L 18.40625 54.6875 
L 18.40625 0 
L 9.421875 0 
z
M 9.421875 75.984375 
L 18.40625 75.984375 
L 18.40625 64.59375 
L 9.421875 64.59375 
z
" id="DejaVuSans-105"/>
      <path d="M 54.890625 33.015625 
L 54.890625 0 
L 45.90625 0 
L 45.90625 32.71875 
Q 45.90625 40.484375 42.875 44.328125 
Q 39.84375 48.1875 33.796875 48.1875 
Q 26.515625 48.1875 22.3125 43.546875 
Q 18.109375 38.921875 18.109375 30.90625 
L 18.109375 0 
L 9.078125 0 
L 9.078125 54.6875 
L 18.109375 54.6875 
L 18.109375 46.1875 
Q 21.34375 51.125 25.703125 53.5625 
Q 30.078125 56 35.796875 56 
Q 45.21875 56 50.046875 50.171875 
Q 54.890625 44.34375 54.890625 33.015625 
z
" id="DejaVuSans-110"/>
      <path d="M 56.203125 29.59375 
L 56.203125 25.203125 
L 14.890625 25.203125 
Q 15.484375 15.921875 20.484375 11.0625 
Q 25.484375 6.203125 34.421875 6.203125 
Q 39.59375 6.203125 44.453125 7.46875 
Q 49.3125 8.734375 54.109375 11.28125 
L 54.109375 2.78125 
Q 49.265625 0.734375 44.1875 -0.34375 
Q 39.109375 -1.421875 33.890625 -1.421875 
Q 20.796875 -1.421875 13.15625 6.1875 
Q 5.515625 13.8125 5.515625 26.8125 
Q 5.515625 40.234375 12.765625 48.109375 
Q 20.015625 56 32.328125 56 
Q 43.359375 56 49.78125 48.890625 
Q 56.203125 41.796875 56.203125 29.59375 
z
M 47.21875 32.234375 
Q 47.125 39.59375 43.09375 43.984375 
Q 39.0625 48.390625 32.421875 48.390625 
Q 24.90625 48.390625 20.390625 44.140625 
Q 15.875 39.890625 15.1875 32.171875 
z
" id="DejaVuSans-101"/>
      <path d="M 34.28125 27.484375 
Q 23.390625 27.484375 19.1875 25 
Q 14.984375 22.515625 14.984375 16.5 
Q 14.984375 11.71875 18.140625 8.90625 
Q 21.296875 6.109375 26.703125 6.109375 
Q 34.1875 6.109375 38.703125 11.40625 
Q 43.21875 16.703125 43.21875 25.484375 
L 43.21875 27.484375 
z
M 52.203125 31.203125 
L 52.203125 0 
L 43.21875 0 
L 43.21875 8.296875 
Q 40.140625 3.328125 35.546875 0.953125 
Q 30.953125 -1.421875 24.3125 -1.421875 
Q 15.921875 -1.421875 10.953125 3.296875 
Q 6 8.015625 6 15.921875 
Q 6 25.140625 12.171875 29.828125 
Q 18.359375 34.515625 30.609375 34.515625 
L 43.21875 34.515625 
L 43.21875 35.40625 
Q 43.21875 41.609375 39.140625 45 
Q 35.0625 48.390625 27.6875 48.390625 
Q 23 48.390625 18.546875 47.265625 
Q 14.109375 46.140625 10.015625 43.890625 
L 10.015625 52.203125 
Q 14.9375 54.109375 19.578125 55.046875 
Q 24.21875 56 28.609375 56 
Q 40.484375 56 46.34375 49.84375 
Q 52.203125 43.703125 52.203125 31.203125 
z
" id="DejaVuSans-97"/>
      <path d="M 41.109375 46.296875 
Q 39.59375 47.171875 37.8125 47.578125 
Q 36.03125 48 33.890625 48 
Q 26.265625 48 22.1875 43.046875 
Q 18.109375 38.09375 18.109375 28.8125 
L 18.109375 0 
L 9.078125 0 
L 9.078125 54.6875 
L 18.109375 54.6875 
L 18.109375 46.1875 
Q 20.953125 51.171875 25.484375 53.578125 
Q 30.03125 56 36.53125 56 
Q 37.453125 56 38.578125 55.875 
Q 39.703125 55.765625 41.0625 55.515625 
z
" id="DejaVuSans-114"/>
      <path d="M 44.390625 34.1875 
Q 47.5625 33.109375 50.5625 29.59375 
Q 53.5625 26.078125 56.59375 19.921875 
L 66.609375 0 
L 56 0 
L 46.6875 18.703125 
Q 43.0625 26.03125 39.671875 28.421875 
Q 36.28125 30.8125 30.421875 30.8125 
L 19.671875 30.8125 
L 19.671875 0 
L 9.8125 0 
L 9.8125 72.90625 
L 32.078125 72.90625 
Q 44.578125 72.90625 50.734375 67.671875 
Q 56.890625 62.453125 56.890625 51.90625 
Q 56.890625 45.015625 53.6875 40.46875 
Q 50.484375 35.9375 44.390625 34.1875 
z
M 19.671875 64.796875 
L 19.671875 38.921875 
L 32.078125 38.921875 
Q 39.203125 38.921875 42.84375 42.21875 
Q 46.484375 45.515625 46.484375 51.90625 
Q 46.484375 58.296875 42.84375 61.546875 
Q 39.203125 64.796875 32.078125 64.796875 
z
" id="DejaVuSans-82"/>
      <path d="M 45.40625 27.984375 
Q 45.40625 37.75 41.375 43.109375 
Q 37.359375 48.484375 30.078125 48.484375 
Q 22.859375 48.484375 18.828125 43.109375 
Q 14.796875 37.75 14.796875 27.984375 
Q 14.796875 18.265625 18.828125 12.890625 
Q 22.859375 7.515625 30.078125 7.515625 
Q 37.359375 7.515625 41.375 12.890625 
Q 45.40625 18.265625 45.40625 27.984375 
z
M 54.390625 6.78125 
Q 54.390625 -7.171875 48.1875 -13.984375 
Q 42 -20.796875 29.203125 -20.796875 
Q 24.46875 -20.796875 20.265625 -20.09375 
Q 16.0625 -19.390625 12.109375 -17.921875 
L 12.109375 -9.1875 
Q 16.0625 -11.328125 19.921875 -12.34375 
Q 23.78125 -13.375 27.78125 -13.375 
Q 36.625 -13.375 41.015625 -8.765625 
Q 45.40625 -4.15625 45.40625 5.171875 
L 45.40625 9.625 
Q 42.625 4.78125 38.28125 2.390625 
Q 33.9375 0 27.875 0 
Q 17.828125 0 11.671875 7.65625 
Q 5.515625 15.328125 5.515625 27.984375 
Q 5.515625 40.671875 11.671875 48.328125 
Q 17.828125 56 27.875 56 
Q 33.9375 56 38.28125 53.609375 
Q 42.625 51.21875 45.40625 46.390625 
L 45.40625 54.6875 
L 54.390625 54.6875 
z
" id="DejaVuSans-103"/>
      <path d="M 44.28125 53.078125 
L 44.28125 44.578125 
Q 40.484375 46.53125 36.375 47.5 
Q 32.28125 48.484375 27.875 48.484375 
Q 21.1875 48.484375 17.84375 46.4375 
Q 14.5 44.390625 14.5 40.28125 
Q 14.5 37.15625 16.890625 35.375 
Q 19.28125 33.59375 26.515625 31.984375 
L 29.59375 31.296875 
Q 39.15625 29.25 43.1875 25.515625 
Q 47.21875 21.78125 47.21875 15.09375 
Q 47.21875 7.46875 41.1875 3.015625 
Q 35.15625 -1.421875 24.609375 -1.421875 
Q 20.21875 -1.421875 15.453125 -0.5625 
Q 10.6875 0.296875 5.421875 2 
L 5.421875 11.28125 
Q 10.40625 8.6875 15.234375 7.390625 
Q 20.0625 6.109375 24.8125 6.109375 
Q 31.15625 6.109375 34.5625 8.28125 
Q 37.984375 10.453125 37.984375 14.40625 
Q 37.984375 18.0625 35.515625 20.015625 
Q 33.0625 21.96875 24.703125 23.78125 
L 21.578125 24.515625 
Q 13.234375 26.265625 9.515625 29.90625 
Q 5.8125 33.546875 5.8125 39.890625 
Q 5.8125 47.609375 11.28125 51.796875 
Q 16.75 56 26.8125 56 
Q 31.78125 56 36.171875 55.265625 
Q 40.578125 54.546875 44.28125 53.078125 
z
" id="DejaVuSans-115"/>
      <path d="M 24.8125 -5.078125 
Q 18.5625 -15.578125 14.625 -18.1875 
Q 10.6875 -20.796875 4.59375 -20.796875 
L -2.484375 -20.796875 
L -0.984375 -13.28125 
L 4.203125 -13.28125 
Q 7.953125 -13.28125 10.59375 -11.234375 
Q 13.234375 -9.1875 16.5 -3.21875 
L 19.28125 2 
L 7.171875 54.6875 
L 16.703125 54.6875 
L 25.78125 12.796875 
L 50.875 54.6875 
L 60.296875 54.6875 
z
" id="DejaVuSans-Oblique-121"/>
      <path d="M 10.59375 45.40625 
L 73.1875 45.40625 
L 73.1875 37.203125 
L 10.59375 37.203125 
z
M 10.59375 25.484375 
L 73.1875 25.484375 
L 73.1875 17.1875 
L 10.59375 17.1875 
z
" id="DejaVuSans-61"/>
      <path d="M 47.796875 75.984375 
L 46.390625 68.5 
L 37.796875 68.5 
Q 32.90625 68.5 30.6875 66.578125 
Q 28.46875 64.65625 27.390625 59.515625 
L 26.421875 54.6875 
L 41.21875 54.6875 
L 39.890625 47.703125 
L 25.09375 47.703125 
L 15.828125 0 
L 6.78125 0 
L 16.109375 47.703125 
L 7.515625 47.703125 
L 8.796875 54.6875 
L 17.390625 54.6875 
L 18.109375 58.5 
Q 19.96875 68.171875 24.625 72.078125 
Q 29.296875 75.984375 39.3125 75.984375 
z
" id="DejaVuSans-Oblique-102"/>
      <path d="M 31 75.875 
Q 24.46875 64.65625 21.28125 53.65625 
Q 18.109375 42.671875 18.109375 31.390625 
Q 18.109375 20.125 21.3125 9.0625 
Q 24.515625 -2 31 -13.1875 
L 23.1875 -13.1875 
Q 15.875 -1.703125 12.234375 9.375 
Q 8.59375 20.453125 8.59375 31.390625 
Q 8.59375 42.28125 12.203125 53.3125 
Q 15.828125 64.359375 23.1875 75.875 
z
" id="DejaVuSans-40"/>
      <path d="M 60.015625 54.6875 
L 34.90625 27.875 
L 50.296875 0 
L 39.984375 0 
L 28.421875 21.6875 
L 8.296875 0 
L -2.59375 0 
L 24.3125 28.8125 
L 10.015625 54.6875 
L 20.3125 54.6875 
L 30.8125 34.90625 
L 49.125 54.6875 
z
" id="DejaVuSans-Oblique-120"/>
      <path d="M 8.015625 75.875 
L 15.828125 75.875 
Q 23.140625 64.359375 26.78125 53.3125 
Q 30.421875 42.28125 30.421875 31.390625 
Q 30.421875 20.453125 26.78125 9.375 
Q 23.140625 -1.703125 15.828125 -13.1875 
L 8.015625 -13.1875 
Q 14.5 -2 17.703125 9.0625 
Q 20.90625 20.125 20.90625 31.390625 
Q 20.90625 42.671875 17.703125 53.65625 
Q 14.5 64.65625 8.015625 75.875 
z
" id="DejaVuSans-41"/>
     </defs>
     <g transform="translate(80.2 45.42)scale(0.1 -0.1)">
      <use transform="translate(0 0.015625)" xlink:href="#DejaVuSans-76"/>
      <use transform="translate(55.712891 0.015625)" xlink:href="#DejaVuSans-105"/>
      <use transform="translate(83.496094 0.015625)" xlink:href="#DejaVuSans-110"/>
      <use transform="translate(146.875 0.015625)" xlink:href="#DejaVuSans-101"/>
      <use transform="translate(208.398438 0.015625)" xlink:href="#DejaVuSans-97"/>
      <use transform="translate(269.677734 0.015625)" xlink:href="#DejaVuSans-114"/>
      <use transform="translate(310.791016 0.015625)" xlink:href="#DejaVuSans-32"/>
      <use transform="translate(342.578125 0.015625)" xlink:href="#DejaVuSans-82"/>
      <use transform="translate(412.060547 0.015625)" xlink:href="#DejaVuSans-101"/>
      <use transform="translate(473.583984 0.015625)" xlink:href="#DejaVuSans-103"/>
      <use transform="translate(537.060547 0.015625)" xlink:href="#DejaVuSans-114"/>
      <use transform="translate(578.173828 0.015625)" xlink:href="#DejaVuSans-101"/>
      <use transform="translate(639.697266 0.015625)" xlink:href="#DejaVuSans-115"/>
      <use transform="translate(691.796875 0.015625)" xlink:href="#DejaVuSans-115"/>
      <use transform="translate(743.896484 0.015625)" xlink:href="#DejaVuSans-105"/>
      <use transform="translate(771.679688 0.015625)" xlink:href="#DejaVuSans-111"/>
      <use transform="translate(832.861328 0.015625)" xlink:href="#DejaVuSans-110"/>
      <use transform="translate(896.240234 0.015625)" xlink:href="#DejaVuSans-58"/>
      <use transform="translate(929.931641 0.015625)" xlink:href="#DejaVuSans-Oblique-121"/>
      <use transform="translate(1008.59375 0.015625)" xlink:href="#DejaVuSans-61"/>
      <use transform="translate(1111.865234 0.015625)" xlink:href="#DejaVuSans-Oblique-102"/>
      <use transform="translate(1147.070312 0.015625)" xlink:href="#DejaVuSans-40"/>
      <use transform="translate(1186.083984 0.015625)" xlink:href="#DejaVuSans-Oblique-120"/>
      <use transform="translate(1245.263672 0.015625)" xlink:href="#DejaVuSans-41"/>
     </g>
     <!-- $y = 0.50009 x+3.00009$ -->
     <defs>
      <path d="M 10.984375 1.515625 
L 10.984375 10.5 
Q 14.703125 8.734375 18.5 7.8125 
Q 22.3125 6.890625 25.984375 6.890625 
Q 35.75 6.890625 40.890625 13.453125 
Q 46.046875 20.015625 46.78125 33.40625 
Q 43.953125 29.203125 39.59375 26.953125 
Q 35.25 24.703125 29.984375 24.703125 
Q 19.046875 24.703125 12.671875 31.3125 
Q 6.296875 37.9375 6.296875 49.421875 
Q 6.296875 60.640625 12.9375 67.421875 
Q 19.578125 74.21875 30.609375 74.21875 
Q 43.265625 74.21875 49.921875 64.515625 
Q 56.59375 54.828125 56.59375 36.375 
Q 56.59375 19.140625 48.40625 8.859375 
Q 40.234375 -1.421875 26.421875 -1.421875 
Q 22.703125 -1.421875 18.890625 -0.6875 
Q 15.09375 0.046875 10.984375 1.515625 
z
M 30.609375 32.421875 
Q 37.25 32.421875 41.125 36.953125 
Q 45.015625 41.5 45.015625 49.421875 
Q 45.015625 57.28125 41.125 61.84375 
Q 37.25 66.40625 30.609375 66.40625 
Q 23.96875 66.40625 20.09375 61.84375 
Q 16.21875 57.28125 16.21875 49.421875 
Q 16.21875 41.5 20.09375 36.953125 
Q 23.96875 32.421875 30.609375 32.421875 
z
" id="DejaVuSans-57"/>
      <path d="M 46 62.703125 
L 46 35.5 
L 73.1875 35.5 
L 73.1875 27.203125 
L 46 27.203125 
L 46 0 
L 37.796875 0 
L 37.796875 27.203125 
L 10.59375 27.203125 
L 10.59375 35.5 
L 37.796875 35.5 
L 37.796875 62.703125 
z
" id="DejaVuSans-43"/>
      <path d="M 40.578125 39.3125 
Q 47.65625 37.796875 51.625 33 
Q 55.609375 28.21875 55.609375 21.1875 
Q 55.609375 10.40625 48.1875 4.484375 
Q 40.765625 -1.421875 27.09375 -1.421875 
Q 22.515625 -1.421875 17.65625 -0.515625 
Q 12.796875 0.390625 7.625 2.203125 
L 7.625 11.71875 
Q 11.71875 9.328125 16.59375 8.109375 
Q 21.484375 6.890625 26.8125 6.890625 
Q 36.078125 6.890625 40.9375 10.546875 
Q 45.796875 14.203125 45.796875 21.1875 
Q 45.796875 27.640625 41.28125 31.265625 
Q 36.765625 34.90625 28.71875 34.90625 
L 20.21875 34.90625 
L 20.21875 43.015625 
L 29.109375 43.015625 
Q 36.375 43.015625 40.234375 45.921875 
Q 44.09375 48.828125 44.09375 54.296875 
Q 44.09375 59.90625 40.109375 62.90625 
Q 36.140625 65.921875 28.71875 65.921875 
Q 24.65625 65.921875 20.015625 65.03125 
Q 15.375 64.15625 9.8125 62.3125 
L 9.8125 71.09375 
Q 15.4375 72.65625 20.34375 73.4375 
Q 25.25 74.21875 29.59375 74.21875 
Q 40.828125 74.21875 47.359375 69.109375 
Q 53.90625 64.015625 53.90625 55.328125 
Q 53.90625 49.265625 50.4375 45.09375 
Q 46.96875 40.921875 40.578125 39.3125 
z
" id="DejaVuSans-51"/>
     </defs>
     <g transform="translate(80.2 56.638125)scale(0.1 -0.1)">
      <use transform="translate(0 0.78125)" xlink:href="#DejaVuSans-Oblique-121"/>
      <use transform="translate(78.662109 0.78125)" xlink:href="#DejaVuSans-61"/>
      <use transform="translate(181.933594 0.78125)" xlink:href="#DejaVuSans-48"/>
      <use transform="translate(245.556641 0.78125)" xlink:href="#DejaVuSans-46"/>
      <use transform="translate(277.34375 0.78125)" xlink:href="#DejaVuSans-53"/>
      <use transform="translate(340.966797 0.78125)" xlink:href="#DejaVuSans-48"/>
      <use transform="translate(404.589844 0.78125)" xlink:href="#DejaVuSans-48"/>
      <use transform="translate(468.212891 0.78125)" xlink:href="#DejaVuSans-48"/>
      <use transform="translate(531.835938 0.78125)" xlink:href="#DejaVuSans-57"/>
      <use transform="translate(595.458984 0.78125)" xlink:href="#DejaVuSans-Oblique-120"/>
      <use transform="translate(674.121094 0.78125)" xlink:href="#DejaVuSans-43"/>
      <use transform="translate(777.392578 0.78125)" xlink:href="#DejaVuSans-51"/>
      <use transform="translate(841.015625 0.78125)" xlink:href="#DejaVuSans-46"/>
      <use transform="translate(872.802734 0.78125)" xlink:href="#DejaVuSans-48"/>
      <use transform="translate(936.425781 0.78125)" xlink:href="#DejaVuSans-48"/>
      <use transform="translate(1000.048828 0.78125)" xlink:href="#DejaVuSans-48"/>
      <use transform="translate(1063.671875 0.78125)" xlink:href="#DejaVuSans-48"/>
      <use transform="translate(1127.294922 0.78125)" xlink:href="#DejaVuSans-57"/>
     </g>
    </g>
   </g>
  </g>
  <g id="axes_2">
   <g id="patch_8">
    <path d="M 467.345455 264.436364 
L 820.8 264.436364 
L 820.8 28.8 
L 467.345455 28.8 
z
" style="fill:#ffffff;"/>
   </g>
   <g id="matplotlib.axis_3">
    <g id="xtick_10">
     <g id="line2d_21">
      <g>
       <use style="stroke:#000000;stroke-width:0.8;" x="467.345455" xlink:href="#mbb58b6609d" y="264.436364"/>
      </g>
     </g>
     <g id="text_21">
      <!-- 0.0 -->
      <g transform="translate(459.393892 279.034801)scale(0.1 -0.1)">
       <use xlink:href="#DejaVuSans-48"/>
       <use x="63.623047" xlink:href="#DejaVuSans-46"/>
       <use x="95.410156" xlink:href="#DejaVuSans-48"/>
      </g>
     </g>
    </g>
    <g id="xtick_11">
     <g id="line2d_22">
      <g>
       <use style="stroke:#000000;stroke-width:0.8;" x="511.527273" xlink:href="#mbb58b6609d" y="264.436364"/>
      </g>
     </g>
     <g id="text_22">
      <!-- 2.5 -->
      <g transform="translate(503.57571 279.034801)scale(0.1 -0.1)">
       <use xlink:href="#DejaVuSans-50"/>
       <use x="63.623047" xlink:href="#DejaVuSans-46"/>
       <use x="95.410156" xlink:href="#DejaVuSans-53"/>
      </g>
     </g>
    </g>
    <g id="xtick_12">
     <g id="line2d_23">
      <g>
       <use style="stroke:#000000;stroke-width:0.8;" x="555.709091" xlink:href="#mbb58b6609d" y="264.436364"/>
      </g>
     </g>
     <g id="text_23">
      <!-- 5.0 -->
      <g transform="translate(547.757528 279.034801)scale(0.1 -0.1)">
       <use xlink:href="#DejaVuSans-53"/>
       <use x="63.623047" xlink:href="#DejaVuSans-46"/>
       <use x="95.410156" xlink:href="#DejaVuSans-48"/>
      </g>
     </g>
    </g>
    <g id="xtick_13">
     <g id="line2d_24">
      <g>
       <use style="stroke:#000000;stroke-width:0.8;" x="599.890909" xlink:href="#mbb58b6609d" y="264.436364"/>
      </g>
     </g>
     <g id="text_24">
      <!-- 7.5 -->
      <g transform="translate(591.939347 279.034801)scale(0.1 -0.1)">
       <use xlink:href="#DejaVuSans-55"/>
       <use x="63.623047" xlink:href="#DejaVuSans-46"/>
       <use x="95.410156" xlink:href="#DejaVuSans-53"/>
      </g>
     </g>
    </g>
    <g id="xtick_14">
     <g id="line2d_25">
      <g>
       <use style="stroke:#000000;stroke-width:0.8;" x="644.072727" xlink:href="#mbb58b6609d" y="264.436364"/>
      </g>
     </g>
     <g id="text_25">
      <!-- 10.0 -->
      <g transform="translate(632.939915 279.034801)scale(0.1 -0.1)">
       <use xlink:href="#DejaVuSans-49"/>
       <use x="63.623047" xlink:href="#DejaVuSans-48"/>
       <use x="127.246094" xlink:href="#DejaVuSans-46"/>
       <use x="159.033203" xlink:href="#DejaVuSans-48"/>
      </g>
     </g>
    </g>
    <g id="xtick_15">
     <g id="line2d_26">
      <g>
       <use style="stroke:#000000;stroke-width:0.8;" x="688.254545" xlink:href="#mbb58b6609d" y="264.436364"/>
      </g>
     </g>
     <g id="text_26">
      <!-- 12.5 -->
      <g transform="translate(677.121733 279.034801)scale(0.1 -0.1)">
       <use xlink:href="#DejaVuSans-49"/>
       <use x="63.623047" xlink:href="#DejaVuSans-50"/>
       <use x="127.246094" xlink:href="#DejaVuSans-46"/>
       <use x="159.033203" xlink:href="#DejaVuSans-53"/>
      </g>
     </g>
    </g>
    <g id="xtick_16">
     <g id="line2d_27">
      <g>
       <use style="stroke:#000000;stroke-width:0.8;" x="732.436364" xlink:href="#mbb58b6609d" y="264.436364"/>
      </g>
     </g>
     <g id="text_27">
      <!-- 15.0 -->
      <g transform="translate(721.303551 279.034801)scale(0.1 -0.1)">
       <use xlink:href="#DejaVuSans-49"/>
       <use x="63.623047" xlink:href="#DejaVuSans-53"/>
       <use x="127.246094" xlink:href="#DejaVuSans-46"/>
       <use x="159.033203" xlink:href="#DejaVuSans-48"/>
      </g>
     </g>
    </g>
    <g id="xtick_17">
     <g id="line2d_28">
      <g>
       <use style="stroke:#000000;stroke-width:0.8;" x="776.618182" xlink:href="#mbb58b6609d" y="264.436364"/>
      </g>
     </g>
     <g id="text_28">
      <!-- 17.5 -->
      <g transform="translate(765.485369 279.034801)scale(0.1 -0.1)">
       <use xlink:href="#DejaVuSans-49"/>
       <use x="63.623047" xlink:href="#DejaVuSans-55"/>
       <use x="127.246094" xlink:href="#DejaVuSans-46"/>
       <use x="159.033203" xlink:href="#DejaVuSans-53"/>
      </g>
     </g>
    </g>
    <g id="xtick_18">
     <g id="line2d_29">
      <g>
       <use style="stroke:#000000;stroke-width:0.8;" x="820.8" xlink:href="#mbb58b6609d" y="264.436364"/>
      </g>
     </g>
     <g id="text_29">
      <!-- 20.0 -->
      <g transform="translate(809.667187 279.034801)scale(0.1 -0.1)">
       <use xlink:href="#DejaVuSans-50"/>
       <use x="63.623047" xlink:href="#DejaVuSans-48"/>
       <use x="127.246094" xlink:href="#DejaVuSans-46"/>
       <use x="159.033203" xlink:href="#DejaVuSans-48"/>
      </g>
     </g>
    </g>
    <g id="text_30">
     <!-- x -->
     <g transform="translate(641.113352 292.712926)scale(0.1 -0.1)">
      <use xlink:href="#DejaVuSans-120"/>
     </g>
    </g>
   </g>
   <g id="matplotlib.axis_4">
    <g id="ytick_8">
     <g id="line2d_30">
      <g>
       <use style="stroke:#000000;stroke-width:0.8;" x="467.345455" xlink:href="#m65df75e66c" y="264.436364"/>
      </g>
     </g>
     <g id="text_31">
      <!-- 2 -->
      <g transform="translate(453.982955 268.235582)scale(0.1 -0.1)">
       <use xlink:href="#DejaVuSans-50"/>
      </g>
     </g>
    </g>
    <g id="ytick_9">
     <g id="line2d_31">
      <g>
       <use style="stroke:#000000;stroke-width:0.8;" x="467.345455" xlink:href="#m65df75e66c" y="225.163636"/>
      </g>
     </g>
     <g id="text_32">
      <!-- 4 -->
      <g transform="translate(453.982955 228.962855)scale(0.1 -0.1)">
       <use xlink:href="#DejaVuSans-52"/>
      </g>
     </g>
    </g>
    <g id="ytick_10">
     <g id="line2d_32">
      <g>
       <use style="stroke:#000000;stroke-width:0.8;" x="467.345455" xlink:href="#m65df75e66c" y="185.890909"/>
      </g>
     </g>
     <g id="text_33">
      <!-- 6 -->
      <g transform="translate(453.982955 189.690128)scale(0.1 -0.1)">
       <use xlink:href="#DejaVuSans-54"/>
      </g>
     </g>
    </g>
    <g id="ytick_11">
     <g id="line2d_33">
      <g>
       <use style="stroke:#000000;stroke-width:0.8;" x="467.345455" xlink:href="#m65df75e66c" y="146.618182"/>
      </g>
     </g>
     <g id="text_34">
      <!-- 8 -->
      <g transform="translate(453.982955 150.417401)scale(0.1 -0.1)">
       <use xlink:href="#DejaVuSans-56"/>
      </g>
     </g>
    </g>
    <g id="ytick_12">
     <g id="line2d_34">
      <g>
       <use style="stroke:#000000;stroke-width:0.8;" x="467.345455" xlink:href="#m65df75e66c" y="107.345455"/>
      </g>
     </g>
     <g id="text_35">
      <!-- 10 -->
      <g transform="translate(447.620455 111.144673)scale(0.1 -0.1)">
       <use xlink:href="#DejaVuSans-49"/>
       <use x="63.623047" xlink:href="#DejaVuSans-48"/>
      </g>
     </g>
    </g>
    <g id="ytick_13">
     <g id="line2d_35">
      <g>
       <use style="stroke:#000000;stroke-width:0.8;" x="467.345455" xlink:href="#m65df75e66c" y="68.072727"/>
      </g>
     </g>
     <g id="text_36">
      <!-- 12 -->
      <g transform="translate(447.620455 71.871946)scale(0.1 -0.1)">
       <use xlink:href="#DejaVuSans-49"/>
       <use x="63.623047" xlink:href="#DejaVuSans-50"/>
      </g>
     </g>
    </g>
    <g id="ytick_14">
     <g id="line2d_36">
      <g>
       <use style="stroke:#000000;stroke-width:0.8;" x="467.345455" xlink:href="#m65df75e66c" y="28.8"/>
      </g>
     </g>
     <g id="text_37">
      <!-- 14 -->
      <g transform="translate(447.620455 32.599219)scale(0.1 -0.1)">
       <use xlink:href="#DejaVuSans-49"/>
       <use x="63.623047" xlink:href="#DejaVuSans-52"/>
      </g>
     </g>
    </g>
    <g id="text_38">
     <!-- y -->
     <g transform="translate(441.540767 149.577557)rotate(-90)scale(0.1 -0.1)">
      <use xlink:href="#DejaVuSans-121"/>
     </g>
    </g>
   </g>
   <g id="line2d_37">
    <g clip-path="url(#p90a944ba15)">
     <use style="fill:#0000ff;stroke:#0000ff;" x="644.072727" xlink:href="#m98971f8c3e" y="124.232727"/>
     <use style="fill:#0000ff;stroke:#0000ff;" x="608.727273" xlink:href="#m98971f8c3e" y="143.869091"/>
     <use style="fill:#0000ff;stroke:#0000ff;" x="697.090909" xlink:href="#m98971f8c3e" y="132.087273"/>
     <use style="fill:#0000ff;stroke:#0000ff;" x="626.4" xlink:href="#m98971f8c3e" y="131.498182"/>
     <use style="fill:#0000ff;stroke:#0000ff;" x="661.745455" xlink:href="#m98971f8c3e" y="121.876364"/>
     <use style="fill:#0000ff;stroke:#0000ff;" x="714.763636" xlink:href="#m98971f8c3e" y="144.654545"/>
     <use style="fill:#0000ff;stroke:#0000ff;" x="573.381818" xlink:href="#m98971f8c3e" y="183.338182"/>
     <use style="fill:#0000ff;stroke:#0000ff;" x="538.036364" xlink:href="#m98971f8c3e" y="242.836364"/>
     <use style="fill:#0000ff;stroke:#0000ff;" x="679.418182" xlink:href="#m98971f8c3e" y="124.429091"/>
     <use style="fill:#0000ff;stroke:#0000ff;" x="591.054545" xlink:href="#m98971f8c3e" y="161.149091"/>
     <use style="fill:#0000ff;stroke:#0000ff;" x="555.709091" xlink:href="#m98971f8c3e" y="210.632727"/>
    </g>
   </g>
   <g id="line2d_38">
    <path clip-path="url(#p90a944ba15)" d="M 467.345455 244.782149 
L 820.8 48.418512 
" style="fill:none;stroke:#000000;stroke-linecap:square;stroke-width:1.5;"/>
   </g>
   <g id="patch_9">
    <path d="M 467.345455 264.436364 
L 467.345455 28.8 
" style="fill:none;stroke:#000000;stroke-linecap:square;stroke-linejoin:miter;stroke-width:0.8;"/>
   </g>
   <g id="patch_10">
    <path d="M 820.8 264.436364 
L 820.8 28.8 
" style="fill:none;stroke:#000000;stroke-linecap:square;stroke-linejoin:miter;stroke-width:0.8;"/>
   </g>
   <g id="patch_11">
    <path d="M 467.345455 264.436364 
L 820.8 264.436364 
" style="fill:none;stroke:#000000;stroke-linecap:square;stroke-linejoin:miter;stroke-width:0.8;"/>
   </g>
   <g id="patch_12">
    <path d="M 467.345455 28.8 
L 820.8 28.8 
" style="fill:none;stroke:#000000;stroke-linecap:square;stroke-linejoin:miter;stroke-width:0.8;"/>
   </g>
   <g id="text_39">
    <!-- No: 2 -->
    <g transform="translate(628.167102 22.8)scale(0.12 -0.12)">
     <use xlink:href="#DejaVuSans-78"/>
     <use x="74.804688" xlink:href="#DejaVuSans-111"/>
     <use x="135.986328" xlink:href="#DejaVuSans-58"/>
     <use x="169.677734" xlink:href="#DejaVuSans-32"/>
     <use x="201.464844" xlink:href="#DejaVuSans-50"/>
    </g>
   </g>
   <g id="legend_2">
    <g id="patch_13">
     <path d="M 474.345455 62.718125 
L 634.845455 62.718125 
Q 636.845455 62.718125 636.845455 60.718125 
L 636.845455 35.8 
Q 636.845455 33.8 634.845455 33.8 
L 474.345455 33.8 
Q 472.345455 33.8 472.345455 35.8 
L 472.345455 60.718125 
Q 472.345455 62.718125 474.345455 62.718125 
z
" style="fill:#ffffff;opacity:0.8;stroke:#cccccc;stroke-linejoin:miter;"/>
    </g>
    <g id="line2d_39">
     <path d="M 476.345455 48.558281 
L 496.345455 48.558281 
" style="fill:none;stroke:#000000;stroke-linecap:square;stroke-width:1.5;"/>
    </g>
    <g id="line2d_40"/>
    <g id="text_40">
     <!-- Linear Regression:$y=f(x)$ -->
     <g transform="translate(504.345455 45.42)scale(0.1 -0.1)">
      <use transform="translate(0 0.015625)" xlink:href="#DejaVuSans-76"/>
      <use transform="translate(55.712891 0.015625)" xlink:href="#DejaVuSans-105"/>
      <use transform="translate(83.496094 0.015625)" xlink:href="#DejaVuSans-110"/>
      <use transform="translate(146.875 0.015625)" xlink:href="#DejaVuSans-101"/>
      <use transform="translate(208.398438 0.015625)" xlink:href="#DejaVuSans-97"/>
      <use transform="translate(269.677734 0.015625)" xlink:href="#DejaVuSans-114"/>
      <use transform="translate(310.791016 0.015625)" xlink:href="#DejaVuSans-32"/>
      <use transform="translate(342.578125 0.015625)" xlink:href="#DejaVuSans-82"/>
      <use transform="translate(412.060547 0.015625)" xlink:href="#DejaVuSans-101"/>
      <use transform="translate(473.583984 0.015625)" xlink:href="#DejaVuSans-103"/>
      <use transform="translate(537.060547 0.015625)" xlink:href="#DejaVuSans-114"/>
      <use transform="translate(578.173828 0.015625)" xlink:href="#DejaVuSans-101"/>
      <use transform="translate(639.697266 0.015625)" xlink:href="#DejaVuSans-115"/>
      <use transform="translate(691.796875 0.015625)" xlink:href="#DejaVuSans-115"/>
      <use transform="translate(743.896484 0.015625)" xlink:href="#DejaVuSans-105"/>
      <use transform="translate(771.679688 0.015625)" xlink:href="#DejaVuSans-111"/>
      <use transform="translate(832.861328 0.015625)" xlink:href="#DejaVuSans-110"/>
      <use transform="translate(896.240234 0.015625)" xlink:href="#DejaVuSans-58"/>
      <use transform="translate(929.931641 0.015625)" xlink:href="#DejaVuSans-Oblique-121"/>
      <use transform="translate(1008.59375 0.015625)" xlink:href="#DejaVuSans-61"/>
      <use transform="translate(1111.865234 0.015625)" xlink:href="#DejaVuSans-Oblique-102"/>
      <use transform="translate(1147.070312 0.015625)" xlink:href="#DejaVuSans-40"/>
      <use transform="translate(1186.083984 0.015625)" xlink:href="#DejaVuSans-Oblique-120"/>
      <use transform="translate(1245.263672 0.015625)" xlink:href="#DejaVuSans-41"/>
     </g>
     <!-- $y = 0.50000 x+3.00091$ -->
     <g transform="translate(504.345455 56.638125)scale(0.1 -0.1)">
      <use transform="translate(0 0.78125)" xlink:href="#DejaVuSans-Oblique-121"/>
      <use transform="translate(78.662109 0.78125)" xlink:href="#DejaVuSans-61"/>
      <use transform="translate(181.933594 0.78125)" xlink:href="#DejaVuSans-48"/>
      <use transform="translate(245.556641 0.78125)" xlink:href="#DejaVuSans-46"/>
      <use transform="translate(277.34375 0.78125)" xlink:href="#DejaVuSans-53"/>
      <use transform="translate(340.966797 0.78125)" xlink:href="#DejaVuSans-48"/>
      <use transform="translate(404.589844 0.78125)" xlink:href="#DejaVuSans-48"/>
      <use transform="translate(468.212891 0.78125)" xlink:href="#DejaVuSans-48"/>
      <use transform="translate(531.835938 0.78125)" xlink:href="#DejaVuSans-48"/>
      <use transform="translate(595.458984 0.78125)" xlink:href="#DejaVuSans-Oblique-120"/>
      <use transform="translate(674.121094 0.78125)" xlink:href="#DejaVuSans-43"/>
      <use transform="translate(777.392578 0.78125)" xlink:href="#DejaVuSans-51"/>
      <use transform="translate(841.015625 0.78125)" xlink:href="#DejaVuSans-46"/>
      <use transform="translate(872.802734 0.78125)" xlink:href="#DejaVuSans-48"/>
      <use transform="translate(936.425781 0.78125)" xlink:href="#DejaVuSans-48"/>
      <use transform="translate(1000.048828 0.78125)" xlink:href="#DejaVuSans-48"/>
      <use transform="translate(1063.671875 0.78125)" xlink:href="#DejaVuSans-57"/>
      <use transform="translate(1127.294922 0.78125)" xlink:href="#DejaVuSans-49"/>
     </g>
    </g>
   </g>
  </g>
  <g id="axes_3">
   <g id="patch_14">
    <path d="M 43.2 547.2 
L 396.654545 547.2 
L 396.654545 311.563636 
L 43.2 311.563636 
z
" style="fill:#ffffff;"/>
   </g>
   <g id="matplotlib.axis_5">
    <g id="xtick_19">
     <g id="line2d_41">
      <g>
       <use style="stroke:#000000;stroke-width:0.8;" x="43.2" xlink:href="#mbb58b6609d" y="547.2"/>
      </g>
     </g>
     <g id="text_41">
      <!-- 0.0 -->
      <g transform="translate(35.248438 561.798437)scale(0.1 -0.1)">
       <use xlink:href="#DejaVuSans-48"/>
       <use x="63.623047" xlink:href="#DejaVuSans-46"/>
       <use x="95.410156" xlink:href="#DejaVuSans-48"/>
      </g>
     </g>
    </g>
    <g id="xtick_20">
     <g id="line2d_42">
      <g>
       <use style="stroke:#000000;stroke-width:0.8;" x="87.381818" xlink:href="#mbb58b6609d" y="547.2"/>
      </g>
     </g>
     <g id="text_42">
      <!-- 2.5 -->
      <g transform="translate(79.430256 561.798437)scale(0.1 -0.1)">
       <use xlink:href="#DejaVuSans-50"/>
       <use x="63.623047" xlink:href="#DejaVuSans-46"/>
       <use x="95.410156" xlink:href="#DejaVuSans-53"/>
      </g>
     </g>
    </g>
    <g id="xtick_21">
     <g id="line2d_43">
      <g>
       <use style="stroke:#000000;stroke-width:0.8;" x="131.563636" xlink:href="#mbb58b6609d" y="547.2"/>
      </g>
     </g>
     <g id="text_43">
      <!-- 5.0 -->
      <g transform="translate(123.612074 561.798437)scale(0.1 -0.1)">
       <use xlink:href="#DejaVuSans-53"/>
       <use x="63.623047" xlink:href="#DejaVuSans-46"/>
       <use x="95.410156" xlink:href="#DejaVuSans-48"/>
      </g>
     </g>
    </g>
    <g id="xtick_22">
     <g id="line2d_44">
      <g>
       <use style="stroke:#000000;stroke-width:0.8;" x="175.745455" xlink:href="#mbb58b6609d" y="547.2"/>
      </g>
     </g>
     <g id="text_44">
      <!-- 7.5 -->
      <g transform="translate(167.793892 561.798437)scale(0.1 -0.1)">
       <use xlink:href="#DejaVuSans-55"/>
       <use x="63.623047" xlink:href="#DejaVuSans-46"/>
       <use x="95.410156" xlink:href="#DejaVuSans-53"/>
      </g>
     </g>
    </g>
    <g id="xtick_23">
     <g id="line2d_45">
      <g>
       <use style="stroke:#000000;stroke-width:0.8;" x="219.927273" xlink:href="#mbb58b6609d" y="547.2"/>
      </g>
     </g>
     <g id="text_45">
      <!-- 10.0 -->
      <g transform="translate(208.79446 561.798437)scale(0.1 -0.1)">
       <use xlink:href="#DejaVuSans-49"/>
       <use x="63.623047" xlink:href="#DejaVuSans-48"/>
       <use x="127.246094" xlink:href="#DejaVuSans-46"/>
       <use x="159.033203" xlink:href="#DejaVuSans-48"/>
      </g>
     </g>
    </g>
    <g id="xtick_24">
     <g id="line2d_46">
      <g>
       <use style="stroke:#000000;stroke-width:0.8;" x="264.109091" xlink:href="#mbb58b6609d" y="547.2"/>
      </g>
     </g>
     <g id="text_46">
      <!-- 12.5 -->
      <g transform="translate(252.976278 561.798437)scale(0.1 -0.1)">
       <use xlink:href="#DejaVuSans-49"/>
       <use x="63.623047" xlink:href="#DejaVuSans-50"/>
       <use x="127.246094" xlink:href="#DejaVuSans-46"/>
       <use x="159.033203" xlink:href="#DejaVuSans-53"/>
      </g>
     </g>
    </g>
    <g id="xtick_25">
     <g id="line2d_47">
      <g>
       <use style="stroke:#000000;stroke-width:0.8;" x="308.290909" xlink:href="#mbb58b6609d" y="547.2"/>
      </g>
     </g>
     <g id="text_47">
      <!-- 15.0 -->
      <g transform="translate(297.158097 561.798437)scale(0.1 -0.1)">
       <use xlink:href="#DejaVuSans-49"/>
       <use x="63.623047" xlink:href="#DejaVuSans-53"/>
       <use x="127.246094" xlink:href="#DejaVuSans-46"/>
       <use x="159.033203" xlink:href="#DejaVuSans-48"/>
      </g>
     </g>
    </g>
    <g id="xtick_26">
     <g id="line2d_48">
      <g>
       <use style="stroke:#000000;stroke-width:0.8;" x="352.472727" xlink:href="#mbb58b6609d" y="547.2"/>
      </g>
     </g>
     <g id="text_48">
      <!-- 17.5 -->
      <g transform="translate(341.339915 561.798437)scale(0.1 -0.1)">
       <use xlink:href="#DejaVuSans-49"/>
       <use x="63.623047" xlink:href="#DejaVuSans-55"/>
       <use x="127.246094" xlink:href="#DejaVuSans-46"/>
       <use x="159.033203" xlink:href="#DejaVuSans-53"/>
      </g>
     </g>
    </g>
    <g id="xtick_27">
     <g id="line2d_49">
      <g>
       <use style="stroke:#000000;stroke-width:0.8;" x="396.654545" xlink:href="#mbb58b6609d" y="547.2"/>
      </g>
     </g>
     <g id="text_49">
      <!-- 20.0 -->
      <g transform="translate(385.521733 561.798437)scale(0.1 -0.1)">
       <use xlink:href="#DejaVuSans-50"/>
       <use x="63.623047" xlink:href="#DejaVuSans-48"/>
       <use x="127.246094" xlink:href="#DejaVuSans-46"/>
       <use x="159.033203" xlink:href="#DejaVuSans-48"/>
      </g>
     </g>
    </g>
    <g id="text_50">
     <!-- x -->
     <g transform="translate(216.967898 575.476562)scale(0.1 -0.1)">
      <use xlink:href="#DejaVuSans-120"/>
     </g>
    </g>
   </g>
   <g id="matplotlib.axis_6">
    <g id="ytick_15">
     <g id="line2d_50">
      <g>
       <use style="stroke:#000000;stroke-width:0.8;" x="43.2" xlink:href="#m65df75e66c" y="547.2"/>
      </g>
     </g>
     <g id="text_51">
      <!-- 2 -->
      <g transform="translate(29.8375 550.999219)scale(0.1 -0.1)">
       <use xlink:href="#DejaVuSans-50"/>
      </g>
     </g>
    </g>
    <g id="ytick_16">
     <g id="line2d_51">
      <g>
       <use style="stroke:#000000;stroke-width:0.8;" x="43.2" xlink:href="#m65df75e66c" y="507.927273"/>
      </g>
     </g>
     <g id="text_52">
      <!-- 4 -->
      <g transform="translate(29.8375 511.726491)scale(0.1 -0.1)">
       <use xlink:href="#DejaVuSans-52"/>
      </g>
     </g>
    </g>
    <g id="ytick_17">
     <g id="line2d_52">
      <g>
       <use style="stroke:#000000;stroke-width:0.8;" x="43.2" xlink:href="#m65df75e66c" y="468.654545"/>
      </g>
     </g>
     <g id="text_53">
      <!-- 6 -->
      <g transform="translate(29.8375 472.453764)scale(0.1 -0.1)">
       <use xlink:href="#DejaVuSans-54"/>
      </g>
     </g>
    </g>
    <g id="ytick_18">
     <g id="line2d_53">
      <g>
       <use style="stroke:#000000;stroke-width:0.8;" x="43.2" xlink:href="#m65df75e66c" y="429.381818"/>
      </g>
     </g>
     <g id="text_54">
      <!-- 8 -->
      <g transform="translate(29.8375 433.181037)scale(0.1 -0.1)">
       <use xlink:href="#DejaVuSans-56"/>
      </g>
     </g>
    </g>
    <g id="ytick_19">
     <g id="line2d_54">
      <g>
       <use style="stroke:#000000;stroke-width:0.8;" x="43.2" xlink:href="#m65df75e66c" y="390.109091"/>
      </g>
     </g>
     <g id="text_55">
      <!-- 10 -->
      <g transform="translate(23.475 393.90831)scale(0.1 -0.1)">
       <use xlink:href="#DejaVuSans-49"/>
       <use x="63.623047" xlink:href="#DejaVuSans-48"/>
      </g>
     </g>
    </g>
    <g id="ytick_20">
     <g id="line2d_55">
      <g>
       <use style="stroke:#000000;stroke-width:0.8;" x="43.2" xlink:href="#m65df75e66c" y="350.836364"/>
      </g>
     </g>
     <g id="text_56">
      <!-- 12 -->
      <g transform="translate(23.475 354.635582)scale(0.1 -0.1)">
       <use xlink:href="#DejaVuSans-49"/>
       <use x="63.623047" xlink:href="#DejaVuSans-50"/>
      </g>
     </g>
    </g>
    <g id="ytick_21">
     <g id="line2d_56">
      <g>
       <use style="stroke:#000000;stroke-width:0.8;" x="43.2" xlink:href="#m65df75e66c" y="311.563636"/>
      </g>
     </g>
     <g id="text_57">
      <!-- 14 -->
      <g transform="translate(23.475 315.362855)scale(0.1 -0.1)">
       <use xlink:href="#DejaVuSans-49"/>
       <use x="63.623047" xlink:href="#DejaVuSans-52"/>
      </g>
     </g>
    </g>
    <g id="text_58">
     <!-- y -->
     <g transform="translate(17.395313 432.341193)rotate(-90)scale(0.1 -0.1)">
      <use xlink:href="#DejaVuSans-121"/>
     </g>
    </g>
   </g>
   <g id="line2d_57">
    <g clip-path="url(#p2999351194)">
     <use style="fill:#0000ff;stroke:#0000ff;" x="219.927273" xlink:href="#m98971f8c3e" y="439.985455"/>
     <use style="fill:#0000ff;stroke:#0000ff;" x="184.581818" xlink:href="#m98971f8c3e" y="453.534545"/>
     <use style="fill:#0000ff;stroke:#0000ff;" x="272.945455" xlink:href="#m98971f8c3e" y="336.305455"/>
     <use style="fill:#0000ff;stroke:#0000ff;" x="202.254545" xlink:href="#m98971f8c3e" y="446.858182"/>
     <use style="fill:#0000ff;stroke:#0000ff;" x="237.6" xlink:href="#m98971f8c3e" y="433.112727"/>
     <use style="fill:#0000ff;stroke:#0000ff;" x="290.618182" xlink:href="#m98971f8c3e" y="412.887273"/>
     <use style="fill:#0000ff;stroke:#0000ff;" x="149.236364" xlink:href="#m98971f8c3e" y="467.083636"/>
     <use style="fill:#0000ff;stroke:#0000ff;" x="113.890909" xlink:href="#m98971f8c3e" y="480.632727"/>
     <use style="fill:#0000ff;stroke:#0000ff;" x="255.272727" xlink:href="#m98971f8c3e" y="426.436364"/>
     <use style="fill:#0000ff;stroke:#0000ff;" x="166.909091" xlink:href="#m98971f8c3e" y="460.407273"/>
     <use style="fill:#0000ff;stroke:#0000ff;" x="131.563636" xlink:href="#m98971f8c3e" y="473.956364"/>
    </g>
   </g>
   <g id="line2d_58">
    <path clip-path="url(#p2999351194)" d="M 43.2 527.515438 
L 396.654545 331.258909 
" style="fill:none;stroke:#000000;stroke-linecap:square;stroke-width:1.5;"/>
   </g>
   <g id="patch_15">
    <path d="M 43.2 547.2 
L 43.2 311.563636 
" style="fill:none;stroke:#000000;stroke-linecap:square;stroke-linejoin:miter;stroke-width:0.8;"/>
   </g>
   <g id="patch_16">
    <path d="M 396.654545 547.2 
L 396.654545 311.563636 
" style="fill:none;stroke:#000000;stroke-linecap:square;stroke-linejoin:miter;stroke-width:0.8;"/>
   </g>
   <g id="patch_17">
    <path d="M 43.2 547.2 
L 396.654545 547.2 
" style="fill:none;stroke:#000000;stroke-linecap:square;stroke-linejoin:miter;stroke-width:0.8;"/>
   </g>
   <g id="patch_18">
    <path d="M 43.2 311.563636 
L 396.654545 311.563636 
" style="fill:none;stroke:#000000;stroke-linecap:square;stroke-linejoin:miter;stroke-width:0.8;"/>
   </g>
   <g id="text_59">
    <!-- No: 3 -->
    <g transform="translate(204.021648 305.563636)scale(0.12 -0.12)">
     <use xlink:href="#DejaVuSans-78"/>
     <use x="74.804688" xlink:href="#DejaVuSans-111"/>
     <use x="135.986328" xlink:href="#DejaVuSans-58"/>
     <use x="169.677734" xlink:href="#DejaVuSans-32"/>
     <use x="201.464844" xlink:href="#DejaVuSans-51"/>
    </g>
   </g>
   <g id="legend_3">
    <g id="patch_19">
     <path d="M 50.2 345.481761 
L 210.7 345.481761 
Q 212.7 345.481761 212.7 343.481761 
L 212.7 318.563636 
Q 212.7 316.563636 210.7 316.563636 
L 50.2 316.563636 
Q 48.2 316.563636 48.2 318.563636 
L 48.2 343.481761 
Q 48.2 345.481761 50.2 345.481761 
z
" style="fill:#ffffff;opacity:0.8;stroke:#cccccc;stroke-linejoin:miter;"/>
    </g>
    <g id="line2d_59">
     <path d="M 52.2 331.321918 
L 72.2 331.321918 
" style="fill:none;stroke:#000000;stroke-linecap:square;stroke-width:1.5;"/>
    </g>
    <g id="line2d_60"/>
    <g id="text_60">
     <!-- Linear Regression:$y=f(x)$ -->
     <g transform="translate(80.2 328.183636)scale(0.1 -0.1)">
      <use transform="translate(0 0.015625)" xlink:href="#DejaVuSans-76"/>
      <use transform="translate(55.712891 0.015625)" xlink:href="#DejaVuSans-105"/>
      <use transform="translate(83.496094 0.015625)" xlink:href="#DejaVuSans-110"/>
      <use transform="translate(146.875 0.015625)" xlink:href="#DejaVuSans-101"/>
      <use transform="translate(208.398438 0.015625)" xlink:href="#DejaVuSans-97"/>
      <use transform="translate(269.677734 0.015625)" xlink:href="#DejaVuSans-114"/>
      <use transform="translate(310.791016 0.015625)" xlink:href="#DejaVuSans-32"/>
      <use transform="translate(342.578125 0.015625)" xlink:href="#DejaVuSans-82"/>
      <use transform="translate(412.060547 0.015625)" xlink:href="#DejaVuSans-101"/>
      <use transform="translate(473.583984 0.015625)" xlink:href="#DejaVuSans-103"/>
      <use transform="translate(537.060547 0.015625)" xlink:href="#DejaVuSans-114"/>
      <use transform="translate(578.173828 0.015625)" xlink:href="#DejaVuSans-101"/>
      <use transform="translate(639.697266 0.015625)" xlink:href="#DejaVuSans-115"/>
      <use transform="translate(691.796875 0.015625)" xlink:href="#DejaVuSans-115"/>
      <use transform="translate(743.896484 0.015625)" xlink:href="#DejaVuSans-105"/>
      <use transform="translate(771.679688 0.015625)" xlink:href="#DejaVuSans-111"/>
      <use transform="translate(832.861328 0.015625)" xlink:href="#DejaVuSans-110"/>
      <use transform="translate(896.240234 0.015625)" xlink:href="#DejaVuSans-58"/>
      <use transform="translate(929.931641 0.015625)" xlink:href="#DejaVuSans-Oblique-121"/>
      <use transform="translate(1008.59375 0.015625)" xlink:href="#DejaVuSans-61"/>
      <use transform="translate(1111.865234 0.015625)" xlink:href="#DejaVuSans-Oblique-102"/>
      <use transform="translate(1147.070312 0.015625)" xlink:href="#DejaVuSans-40"/>
      <use transform="translate(1186.083984 0.015625)" xlink:href="#DejaVuSans-Oblique-120"/>
      <use transform="translate(1245.263672 0.015625)" xlink:href="#DejaVuSans-41"/>
     </g>
     <!-- $y = 0.49973 x+3.00245$ -->
     <g transform="translate(80.2 339.401761)scale(0.1 -0.1)">
      <use transform="translate(0 0.78125)" xlink:href="#DejaVuSans-Oblique-121"/>
      <use transform="translate(78.662109 0.78125)" xlink:href="#DejaVuSans-61"/>
      <use transform="translate(181.933594 0.78125)" xlink:href="#DejaVuSans-48"/>
      <use transform="translate(245.556641 0.78125)" xlink:href="#DejaVuSans-46"/>
      <use transform="translate(277.34375 0.78125)" xlink:href="#DejaVuSans-52"/>
      <use transform="translate(340.966797 0.78125)" xlink:href="#DejaVuSans-57"/>
      <use transform="translate(404.589844 0.78125)" xlink:href="#DejaVuSans-57"/>
      <use transform="translate(468.212891 0.78125)" xlink:href="#DejaVuSans-55"/>
      <use transform="translate(531.835938 0.78125)" xlink:href="#DejaVuSans-51"/>
      <use transform="translate(595.458984 0.78125)" xlink:href="#DejaVuSans-Oblique-120"/>
      <use transform="translate(674.121094 0.78125)" xlink:href="#DejaVuSans-43"/>
      <use transform="translate(777.392578 0.78125)" xlink:href="#DejaVuSans-51"/>
      <use transform="translate(841.015625 0.78125)" xlink:href="#DejaVuSans-46"/>
      <use transform="translate(872.802734 0.78125)" xlink:href="#DejaVuSans-48"/>
      <use transform="translate(936.425781 0.78125)" xlink:href="#DejaVuSans-48"/>
      <use transform="translate(1000.048828 0.78125)" xlink:href="#DejaVuSans-50"/>
      <use transform="translate(1063.671875 0.78125)" xlink:href="#DejaVuSans-52"/>
      <use transform="translate(1127.294922 0.78125)" xlink:href="#DejaVuSans-53"/>
     </g>
    </g>
   </g>
  </g>
  <g id="axes_4">
   <g id="patch_20">
    <path d="M 467.345455 547.2 
L 820.8 547.2 
L 820.8 311.563636 
L 467.345455 311.563636 
z
" style="fill:#ffffff;"/>
   </g>
   <g id="matplotlib.axis_7">
    <g id="xtick_28">
     <g id="line2d_61">
      <g>
       <use style="stroke:#000000;stroke-width:0.8;" x="467.345455" xlink:href="#mbb58b6609d" y="547.2"/>
      </g>
     </g>
     <g id="text_61">
      <!-- 0.0 -->
      <g transform="translate(459.393892 561.798437)scale(0.1 -0.1)">
       <use xlink:href="#DejaVuSans-48"/>
       <use x="63.623047" xlink:href="#DejaVuSans-46"/>
       <use x="95.410156" xlink:href="#DejaVuSans-48"/>
      </g>
     </g>
    </g>
    <g id="xtick_29">
     <g id="line2d_62">
      <g>
       <use style="stroke:#000000;stroke-width:0.8;" x="511.527273" xlink:href="#mbb58b6609d" y="547.2"/>
      </g>
     </g>
     <g id="text_62">
      <!-- 2.5 -->
      <g transform="translate(503.57571 561.798437)scale(0.1 -0.1)">
       <use xlink:href="#DejaVuSans-50"/>
       <use x="63.623047" xlink:href="#DejaVuSans-46"/>
       <use x="95.410156" xlink:href="#DejaVuSans-53"/>
      </g>
     </g>
    </g>
    <g id="xtick_30">
     <g id="line2d_63">
      <g>
       <use style="stroke:#000000;stroke-width:0.8;" x="555.709091" xlink:href="#mbb58b6609d" y="547.2"/>
      </g>
     </g>
     <g id="text_63">
      <!-- 5.0 -->
      <g transform="translate(547.757528 561.798437)scale(0.1 -0.1)">
       <use xlink:href="#DejaVuSans-53"/>
       <use x="63.623047" xlink:href="#DejaVuSans-46"/>
       <use x="95.410156" xlink:href="#DejaVuSans-48"/>
      </g>
     </g>
    </g>
    <g id="xtick_31">
     <g id="line2d_64">
      <g>
       <use style="stroke:#000000;stroke-width:0.8;" x="599.890909" xlink:href="#mbb58b6609d" y="547.2"/>
      </g>
     </g>
     <g id="text_64">
      <!-- 7.5 -->
      <g transform="translate(591.939347 561.798437)scale(0.1 -0.1)">
       <use xlink:href="#DejaVuSans-55"/>
       <use x="63.623047" xlink:href="#DejaVuSans-46"/>
       <use x="95.410156" xlink:href="#DejaVuSans-53"/>
      </g>
     </g>
    </g>
    <g id="xtick_32">
     <g id="line2d_65">
      <g>
       <use style="stroke:#000000;stroke-width:0.8;" x="644.072727" xlink:href="#mbb58b6609d" y="547.2"/>
      </g>
     </g>
     <g id="text_65">
      <!-- 10.0 -->
      <g transform="translate(632.939915 561.798437)scale(0.1 -0.1)">
       <use xlink:href="#DejaVuSans-49"/>
       <use x="63.623047" xlink:href="#DejaVuSans-48"/>
       <use x="127.246094" xlink:href="#DejaVuSans-46"/>
       <use x="159.033203" xlink:href="#DejaVuSans-48"/>
      </g>
     </g>
    </g>
    <g id="xtick_33">
     <g id="line2d_66">
      <g>
       <use style="stroke:#000000;stroke-width:0.8;" x="688.254545" xlink:href="#mbb58b6609d" y="547.2"/>
      </g>
     </g>
     <g id="text_66">
      <!-- 12.5 -->
      <g transform="translate(677.121733 561.798437)scale(0.1 -0.1)">
       <use xlink:href="#DejaVuSans-49"/>
       <use x="63.623047" xlink:href="#DejaVuSans-50"/>
       <use x="127.246094" xlink:href="#DejaVuSans-46"/>
       <use x="159.033203" xlink:href="#DejaVuSans-53"/>
      </g>
     </g>
    </g>
    <g id="xtick_34">
     <g id="line2d_67">
      <g>
       <use style="stroke:#000000;stroke-width:0.8;" x="732.436364" xlink:href="#mbb58b6609d" y="547.2"/>
      </g>
     </g>
     <g id="text_67">
      <!-- 15.0 -->
      <g transform="translate(721.303551 561.798437)scale(0.1 -0.1)">
       <use xlink:href="#DejaVuSans-49"/>
       <use x="63.623047" xlink:href="#DejaVuSans-53"/>
       <use x="127.246094" xlink:href="#DejaVuSans-46"/>
       <use x="159.033203" xlink:href="#DejaVuSans-48"/>
      </g>
     </g>
    </g>
    <g id="xtick_35">
     <g id="line2d_68">
      <g>
       <use style="stroke:#000000;stroke-width:0.8;" x="776.618182" xlink:href="#mbb58b6609d" y="547.2"/>
      </g>
     </g>
     <g id="text_68">
      <!-- 17.5 -->
      <g transform="translate(765.485369 561.798437)scale(0.1 -0.1)">
       <use xlink:href="#DejaVuSans-49"/>
       <use x="63.623047" xlink:href="#DejaVuSans-55"/>
       <use x="127.246094" xlink:href="#DejaVuSans-46"/>
       <use x="159.033203" xlink:href="#DejaVuSans-53"/>
      </g>
     </g>
    </g>
    <g id="xtick_36">
     <g id="line2d_69">
      <g>
       <use style="stroke:#000000;stroke-width:0.8;" x="820.8" xlink:href="#mbb58b6609d" y="547.2"/>
      </g>
     </g>
     <g id="text_69">
      <!-- 20.0 -->
      <g transform="translate(809.667187 561.798437)scale(0.1 -0.1)">
       <use xlink:href="#DejaVuSans-50"/>
       <use x="63.623047" xlink:href="#DejaVuSans-48"/>
       <use x="127.246094" xlink:href="#DejaVuSans-46"/>
       <use x="159.033203" xlink:href="#DejaVuSans-48"/>
      </g>
     </g>
    </g>
    <g id="text_70">
     <!-- x -->
     <g transform="translate(641.113352 575.476562)scale(0.1 -0.1)">
      <use xlink:href="#DejaVuSans-120"/>
     </g>
    </g>
   </g>
   <g id="matplotlib.axis_8">
    <g id="ytick_22">
     <g id="line2d_70">
      <g>
       <use style="stroke:#000000;stroke-width:0.8;" x="467.345455" xlink:href="#m65df75e66c" y="547.2"/>
      </g>
     </g>
     <g id="text_71">
      <!-- 2 -->
      <g transform="translate(453.982955 550.999219)scale(0.1 -0.1)">
       <use xlink:href="#DejaVuSans-50"/>
      </g>
     </g>
    </g>
    <g id="ytick_23">
     <g id="line2d_71">
      <g>
       <use style="stroke:#000000;stroke-width:0.8;" x="467.345455" xlink:href="#m65df75e66c" y="507.927273"/>
      </g>
     </g>
     <g id="text_72">
      <!-- 4 -->
      <g transform="translate(453.982955 511.726491)scale(0.1 -0.1)">
       <use xlink:href="#DejaVuSans-52"/>
      </g>
     </g>
    </g>
    <g id="ytick_24">
     <g id="line2d_72">
      <g>
       <use style="stroke:#000000;stroke-width:0.8;" x="467.345455" xlink:href="#m65df75e66c" y="468.654545"/>
      </g>
     </g>
     <g id="text_73">
      <!-- 6 -->
      <g transform="translate(453.982955 472.453764)scale(0.1 -0.1)">
       <use xlink:href="#DejaVuSans-54"/>
      </g>
     </g>
    </g>
    <g id="ytick_25">
     <g id="line2d_73">
      <g>
       <use style="stroke:#000000;stroke-width:0.8;" x="467.345455" xlink:href="#m65df75e66c" y="429.381818"/>
      </g>
     </g>
     <g id="text_74">
      <!-- 8 -->
      <g transform="translate(453.982955 433.181037)scale(0.1 -0.1)">
       <use xlink:href="#DejaVuSans-56"/>
      </g>
     </g>
    </g>
    <g id="ytick_26">
     <g id="line2d_74">
      <g>
       <use style="stroke:#000000;stroke-width:0.8;" x="467.345455" xlink:href="#m65df75e66c" y="390.109091"/>
      </g>
     </g>
     <g id="text_75">
      <!-- 10 -->
      <g transform="translate(447.620455 393.90831)scale(0.1 -0.1)">
       <use xlink:href="#DejaVuSans-49"/>
       <use x="63.623047" xlink:href="#DejaVuSans-48"/>
      </g>
     </g>
    </g>
    <g id="ytick_27">
     <g id="line2d_75">
      <g>
       <use style="stroke:#000000;stroke-width:0.8;" x="467.345455" xlink:href="#m65df75e66c" y="350.836364"/>
      </g>
     </g>
     <g id="text_76">
      <!-- 12 -->
      <g transform="translate(447.620455 354.635582)scale(0.1 -0.1)">
       <use xlink:href="#DejaVuSans-49"/>
       <use x="63.623047" xlink:href="#DejaVuSans-50"/>
      </g>
     </g>
    </g>
    <g id="ytick_28">
     <g id="line2d_76">
      <g>
       <use style="stroke:#000000;stroke-width:0.8;" x="467.345455" xlink:href="#m65df75e66c" y="311.563636"/>
      </g>
     </g>
     <g id="text_77">
      <!-- 14 -->
      <g transform="translate(447.620455 315.362855)scale(0.1 -0.1)">
       <use xlink:href="#DejaVuSans-49"/>
       <use x="63.623047" xlink:href="#DejaVuSans-52"/>
      </g>
     </g>
    </g>
    <g id="text_78">
     <!-- y -->
     <g transform="translate(441.540767 432.341193)rotate(-90)scale(0.1 -0.1)">
      <use xlink:href="#DejaVuSans-121"/>
     </g>
    </g>
   </g>
   <g id="line2d_77">
    <g clip-path="url(#p0fbd0eb5a6)">
     <use style="fill:#0000ff;stroke:#0000ff;" x="608.727273" xlink:href="#m98971f8c3e" y="457.265455"/>
     <use style="fill:#0000ff;stroke:#0000ff;" x="608.727273" xlink:href="#m98971f8c3e" y="473.367273"/>
     <use style="fill:#0000ff;stroke:#0000ff;" x="608.727273" xlink:href="#m98971f8c3e" y="435.076364"/>
     <use style="fill:#0000ff;stroke:#0000ff;" x="608.727273" xlink:href="#m98971f8c3e" y="412.887273"/>
     <use style="fill:#0000ff;stroke:#0000ff;" x="608.727273" xlink:href="#m98971f8c3e" y="420.152727"/>
     <use style="fill:#0000ff;stroke:#0000ff;" x="608.727273" xlink:href="#m98971f8c3e" y="448.232727"/>
     <use style="fill:#0000ff;stroke:#0000ff;" x="608.727273" xlink:href="#m98971f8c3e" y="483.381818"/>
     <use style="fill:#0000ff;stroke:#0000ff;" x="803.127273" xlink:href="#m98971f8c3e" y="341.018182"/>
     <use style="fill:#0000ff;stroke:#0000ff;" x="608.727273" xlink:href="#m98971f8c3e" y="477.294545"/>
     <use style="fill:#0000ff;stroke:#0000ff;" x="608.727273" xlink:href="#m98971f8c3e" y="431.149091"/>
     <use style="fill:#0000ff;stroke:#0000ff;" x="608.727273" xlink:href="#m98971f8c3e" y="451.178182"/>
    </g>
   </g>
   <g id="line2d_78">
    <path clip-path="url(#p0fbd0eb5a6)" d="M 467.345455 527.529719 
L 820.8 331.201785 
" style="fill:none;stroke:#000000;stroke-linecap:square;stroke-width:1.5;"/>
   </g>
   <g id="patch_21">
    <path d="M 467.345455 547.2 
L 467.345455 311.563636 
" style="fill:none;stroke:#000000;stroke-linecap:square;stroke-linejoin:miter;stroke-width:0.8;"/>
   </g>
   <g id="patch_22">
    <path d="M 820.8 547.2 
L 820.8 311.563636 
" style="fill:none;stroke:#000000;stroke-linecap:square;stroke-linejoin:miter;stroke-width:0.8;"/>
   </g>
   <g id="patch_23">
    <path d="M 467.345455 547.2 
L 820.8 547.2 
" style="fill:none;stroke:#000000;stroke-linecap:square;stroke-linejoin:miter;stroke-width:0.8;"/>
   </g>
   <g id="patch_24">
    <path d="M 467.345455 311.563636 
L 820.8 311.563636 
" style="fill:none;stroke:#000000;stroke-linecap:square;stroke-linejoin:miter;stroke-width:0.8;"/>
   </g>
   <g id="text_79">
    <!-- No: 4 -->
    <g transform="translate(628.167102 305.563636)scale(0.12 -0.12)">
     <use xlink:href="#DejaVuSans-78"/>
     <use x="74.804688" xlink:href="#DejaVuSans-111"/>
     <use x="135.986328" xlink:href="#DejaVuSans-58"/>
     <use x="169.677734" xlink:href="#DejaVuSans-32"/>
     <use x="201.464844" xlink:href="#DejaVuSans-52"/>
    </g>
   </g>
   <g id="legend_4">
    <g id="patch_25">
     <path d="M 474.345455 345.481761 
L 634.845455 345.481761 
Q 636.845455 345.481761 636.845455 343.481761 
L 636.845455 318.563636 
Q 636.845455 316.563636 634.845455 316.563636 
L 474.345455 316.563636 
Q 472.345455 316.563636 472.345455 318.563636 
L 472.345455 343.481761 
Q 472.345455 345.481761 474.345455 345.481761 
z
" style="fill:#ffffff;opacity:0.8;stroke:#cccccc;stroke-linejoin:miter;"/>
    </g>
    <g id="line2d_79">
     <path d="M 476.345455 331.321918 
L 496.345455 331.321918 
" style="fill:none;stroke:#000000;stroke-linecap:square;stroke-width:1.5;"/>
    </g>
    <g id="line2d_80"/>
    <g id="text_80">
     <!-- Linear Regression:$y=f(x)$ -->
     <g transform="translate(504.345455 328.183636)scale(0.1 -0.1)">
      <use transform="translate(0 0.015625)" xlink:href="#DejaVuSans-76"/>
      <use transform="translate(55.712891 0.015625)" xlink:href="#DejaVuSans-105"/>
      <use transform="translate(83.496094 0.015625)" xlink:href="#DejaVuSans-110"/>
      <use transform="translate(146.875 0.015625)" xlink:href="#DejaVuSans-101"/>
      <use transform="translate(208.398438 0.015625)" xlink:href="#DejaVuSans-97"/>
      <use transform="translate(269.677734 0.015625)" xlink:href="#DejaVuSans-114"/>
      <use transform="translate(310.791016 0.015625)" xlink:href="#DejaVuSans-32"/>
      <use transform="translate(342.578125 0.015625)" xlink:href="#DejaVuSans-82"/>
      <use transform="translate(412.060547 0.015625)" xlink:href="#DejaVuSans-101"/>
      <use transform="translate(473.583984 0.015625)" xlink:href="#DejaVuSans-103"/>
      <use transform="translate(537.060547 0.015625)" xlink:href="#DejaVuSans-114"/>
      <use transform="translate(578.173828 0.015625)" xlink:href="#DejaVuSans-101"/>
      <use transform="translate(639.697266 0.015625)" xlink:href="#DejaVuSans-115"/>
      <use transform="translate(691.796875 0.015625)" xlink:href="#DejaVuSans-115"/>
      <use transform="translate(743.896484 0.015625)" xlink:href="#DejaVuSans-105"/>
      <use transform="translate(771.679688 0.015625)" xlink:href="#DejaVuSans-111"/>
      <use transform="translate(832.861328 0.015625)" xlink:href="#DejaVuSans-110"/>
      <use transform="translate(896.240234 0.015625)" xlink:href="#DejaVuSans-58"/>
      <use transform="translate(929.931641 0.015625)" xlink:href="#DejaVuSans-Oblique-121"/>
      <use transform="translate(1008.59375 0.015625)" xlink:href="#DejaVuSans-61"/>
      <use transform="translate(1111.865234 0.015625)" xlink:href="#DejaVuSans-Oblique-102"/>
      <use transform="translate(1147.070312 0.015625)" xlink:href="#DejaVuSans-40"/>
      <use transform="translate(1186.083984 0.015625)" xlink:href="#DejaVuSans-Oblique-120"/>
      <use transform="translate(1245.263672 0.015625)" xlink:href="#DejaVuSans-41"/>
     </g>
     <!-- $y = 0.49991 x+3.00173$ -->
     <g transform="translate(504.345455 339.401761)scale(0.1 -0.1)">
      <use transform="translate(0 0.78125)" xlink:href="#DejaVuSans-Oblique-121"/>
      <use transform="translate(78.662109 0.78125)" xlink:href="#DejaVuSans-61"/>
      <use transform="translate(181.933594 0.78125)" xlink:href="#DejaVuSans-48"/>
      <use transform="translate(245.556641 0.78125)" xlink:href="#DejaVuSans-46"/>
      <use transform="translate(277.34375 0.78125)" xlink:href="#DejaVuSans-52"/>
      <use transform="translate(340.966797 0.78125)" xlink:href="#DejaVuSans-57"/>
      <use transform="translate(404.589844 0.78125)" xlink:href="#DejaVuSans-57"/>
      <use transform="translate(468.212891 0.78125)" xlink:href="#DejaVuSans-57"/>
      <use transform="translate(531.835938 0.78125)" xlink:href="#DejaVuSans-49"/>
      <use transform="translate(595.458984 0.78125)" xlink:href="#DejaVuSans-Oblique-120"/>
      <use transform="translate(674.121094 0.78125)" xlink:href="#DejaVuSans-43"/>
      <use transform="translate(777.392578 0.78125)" xlink:href="#DejaVuSans-51"/>
      <use transform="translate(841.015625 0.78125)" xlink:href="#DejaVuSans-46"/>
      <use transform="translate(872.802734 0.78125)" xlink:href="#DejaVuSans-48"/>
      <use transform="translate(936.425781 0.78125)" xlink:href="#DejaVuSans-48"/>
      <use transform="translate(1000.048828 0.78125)" xlink:href="#DejaVuSans-49"/>
      <use transform="translate(1063.671875 0.78125)" xlink:href="#DejaVuSans-55"/>
      <use transform="translate(1127.294922 0.78125)" xlink:href="#DejaVuSans-51"/>
     </g>
    </g>
   </g>
  </g>
 </g>
 <defs>
  <clipPath id="pe067c2556e">
   <rect height="235.636364" width="353.454545" x="43.2" y="28.8"/>
  </clipPath>
  <clipPath id="p90a944ba15">
   <rect height="235.636364" width="353.454545" x="467.345455" y="28.8"/>
  </clipPath>
  <clipPath id="p2999351194">
   <rect height="235.636364" width="353.454545" x="43.2" y="311.563636"/>
  </clipPath>
  <clipPath id="p0fbd0eb5a6">
   <rect height="235.636364" width="353.454545" x="467.345455" y="311.563636"/>
  </clipPath>
 </defs>
</svg>
