<?xml version="1.0" encoding="utf-8" standalone="no"?>
<!DOCTYPE svg PUBLIC "-//W3C//DTD SVG 1.1//EN"
  "http://www.w3.org/Graphics/SVG/1.1/DTD/svg11.dtd">
<!-- Created with matplotlib (https://matplotlib.org/) -->
<svg height="360pt" version="1.1" viewBox="0 0 720 360" width="720pt" xmlns="http://www.w3.org/2000/svg" xmlns:xlink="http://www.w3.org/1999/xlink">
 <defs>
  <style type="text/css">
*{stroke-linecap:butt;stroke-linejoin:round;}
  </style>
 </defs>
 <g id="figure_1">
  <g id="patch_1">
   <path d="M 0 360 
L 720 360 
L 720 0 
L 0 0 
z
" style="fill:#ffffff;"/>
  </g>
  <g id="axes_1">
   <g id="patch_2">
    <path d="M 90 315 
L 648 315 
L 648 43.2 
L 90 43.2 
z
" style="fill:#ffffff;"/>
   </g>
   <g id="matplotlib.axis_1">
    <g id="xtick_1">
     <g id="line2d_1">
      <path clip-path="url(#p373f5e534f)" d="M 106.603385 315 
L 106.603385 43.2 
" style="fill:none;stroke:#b0b0b0;stroke-linecap:square;stroke-width:0.8;"/>
     </g>
     <g id="line2d_2">
      <defs>
       <path d="M 0 0 
L 0 3.5 
" id="meae8e70479" style="stroke:#000000;stroke-width:0.8;"/>
      </defs>
      <g>
       <use style="stroke:#000000;stroke-width:0.8;" x="106.603385" xlink:href="#meae8e70479" y="315"/>
      </g>
     </g>
     <g id="text_1">
      <!-- 0 -->
      <defs>
       <path d="M 24.609375 64.453125 
Q 19.140625 64.453125 15.421875 56.046875 
Q 11.71875 47.65625 11.71875 33.59375 
Q 11.71875 18.75 15.421875 10.546875 
Q 19.140625 2.34375 24.609375 2.34375 
Q 30.46875 2.34375 33.78125 10.546875 
Q 37.109375 18.75 37.109375 33.59375 
Q 37.109375 47.65625 33.984375 56.046875 
Q 30.859375 64.453125 24.609375 64.453125 
z
M 24.609375 -0.78125 
Q 16.015625 -0.78125 10.15625 8.203125 
Q 4.296875 17.1875 4.296875 33.59375 
Q 4.296875 48.828125 9.953125 58.203125 
Q 15.625 67.578125 24.609375 67.578125 
Q 33.203125 67.578125 38.859375 58.59375 
Q 44.53125 49.609375 44.53125 33.59375 
Q 44.53125 17.578125 38.859375 8.390625 
Q 33.203125 -0.78125 24.609375 -0.78125 
z
" id="FangSong-48"/>
      </defs>
      <g transform="translate(104.103385 328.992188)scale(0.1 -0.1)">
       <use xlink:href="#FangSong-48"/>
      </g>
     </g>
    </g>
    <g id="xtick_2">
     <g id="line2d_3">
      <path clip-path="url(#p373f5e534f)" d="M 222.56786 315 
L 222.56786 43.2 
" style="fill:none;stroke:#b0b0b0;stroke-linecap:square;stroke-width:0.8;"/>
     </g>
     <g id="line2d_4">
      <g>
       <use style="stroke:#000000;stroke-width:0.8;" x="222.56786" xlink:href="#meae8e70479" y="315"/>
      </g>
     </g>
     <g id="text_2">
      <!-- 2 -->
      <defs>
       <path d="M 35.9375 50.390625 
Q 35.9375 57.421875 32.8125 61.125 
Q 29.6875 64.84375 23.4375 64.84375 
Q 18.75 64.84375 15.421875 62.296875 
Q 12.109375 59.765625 12.109375 55.859375 
Q 12.109375 53.515625 13.46875 51.953125 
Q 14.84375 50.390625 14.84375 48.828125 
Q 14.84375 46.875 13.859375 45.890625 
Q 12.890625 44.921875 10.9375 44.921875 
Q 8.59375 44.921875 7.21875 46.28125 
Q 5.859375 47.65625 5.859375 50.78125 
Q 5.859375 58.984375 11.71875 63.28125 
Q 17.578125 67.578125 24.21875 67.578125 
Q 33.59375 67.578125 38.078125 62.890625 
Q 42.578125 58.203125 42.578125 51.171875 
Q 42.578125 46.484375 40.421875 41.796875 
Q 38.28125 37.109375 33.59375 32.8125 
Q 22.265625 21.875 16.203125 15.03125 
Q 10.15625 8.203125 8.984375 5.859375 
L 32.03125 5.859375 
Q 35.546875 5.859375 37.890625 8.59375 
Q 40.234375 11.328125 41.015625 16.796875 
L 43.359375 16.796875 
L 41.015625 0 
L 4.6875 0 
L 4.6875 5.078125 
Q 6.640625 8.59375 11.125 14.0625 
Q 15.625 19.53125 23.046875 26.953125 
Q 29.6875 33.59375 32.8125 39.453125 
Q 35.9375 45.3125 35.9375 50.390625 
z
" id="FangSong-50"/>
      </defs>
      <g transform="translate(220.06786 328.992188)scale(0.1 -0.1)">
       <use xlink:href="#FangSong-50"/>
      </g>
     </g>
    </g>
    <g id="xtick_3">
     <g id="line2d_5">
      <path clip-path="url(#p373f5e534f)" d="M 338.532334 315 
L 338.532334 43.2 
" style="fill:none;stroke:#b0b0b0;stroke-linecap:square;stroke-width:0.8;"/>
     </g>
     <g id="line2d_6">
      <g>
       <use style="stroke:#000000;stroke-width:0.8;" x="338.532334" xlink:href="#meae8e70479" y="315"/>
      </g>
     </g>
     <g id="text_3">
      <!-- 4 -->
      <defs>
       <path d="M 35.546875 7.421875 
Q 35.546875 4.6875 37.109375 3.515625 
Q 38.671875 2.34375 41.40625 2.34375 
L 44.921875 2.34375 
L 44.921875 0 
L 19.140625 0 
L 19.140625 2.34375 
L 23.4375 2.34375 
Q 26.5625 2.34375 27.921875 3.515625 
Q 29.296875 4.6875 29.296875 7.421875 
L 29.296875 20.3125 
L 3.125 20.3125 
L 3.125 22.265625 
L 31.640625 67.578125 
L 35.546875 67.578125 
L 35.546875 22.65625 
L 46.09375 22.65625 
L 46.09375 20.3125 
L 35.546875 20.3125 
z
M 28.90625 57.8125 
L 6.640625 22.65625 
L 29.296875 22.65625 
L 29.296875 57.8125 
z
" id="FangSong-52"/>
      </defs>
      <g transform="translate(336.032334 328.992188)scale(0.1 -0.1)">
       <use xlink:href="#FangSong-52"/>
      </g>
     </g>
    </g>
    <g id="xtick_4">
     <g id="line2d_7">
      <path clip-path="url(#p373f5e534f)" d="M 454.496809 315 
L 454.496809 43.2 
" style="fill:none;stroke:#b0b0b0;stroke-linecap:square;stroke-width:0.8;"/>
     </g>
     <g id="line2d_8">
      <g>
       <use style="stroke:#000000;stroke-width:0.8;" x="454.496809" xlink:href="#meae8e70479" y="315"/>
      </g>
     </g>
     <g id="text_4">
      <!-- 6 -->
      <defs>
       <path d="M 11.71875 26.5625 
Q 11.71875 14.84375 15.8125 8.390625 
Q 19.921875 1.953125 25.78125 1.953125 
Q 31.640625 1.953125 34.765625 6.25 
Q 37.890625 10.546875 37.890625 22.265625 
Q 37.890625 30.078125 34.5625 34.375 
Q 31.25 38.671875 26.5625 38.671875 
Q 22.265625 38.671875 18.546875 36.125 
Q 14.84375 33.59375 11.71875 26.5625 
z
M 26.953125 42.578125 
Q 36.328125 42.578125 40.421875 36.328125 
Q 44.53125 30.078125 44.53125 22.265625 
Q 44.53125 10.546875 38.859375 4.875 
Q 33.203125 -0.78125 25.78125 -0.78125 
Q 15.234375 -0.78125 9.765625 7.21875 
Q 4.296875 15.234375 4.296875 30.46875 
Q 4.296875 48.4375 10.9375 58 
Q 17.578125 67.578125 28.90625 67.578125 
Q 34.375 67.578125 37.6875 64.453125 
Q 41.015625 61.328125 41.015625 58.984375 
Q 41.015625 56.640625 40.03125 55.46875 
Q 39.0625 54.296875 36.71875 54.296875 
Q 34.765625 54.296875 33.78125 55.265625 
Q 32.8125 56.25 32.8125 58.203125 
Q 32.8125 58.984375 33 59.765625 
Q 33.203125 60.546875 33.203125 61.328125 
Q 33.203125 62.890625 32.03125 63.859375 
Q 30.859375 64.84375 27.734375 64.84375 
Q 21.09375 64.84375 16.40625 58.78125 
Q 11.71875 52.734375 11.71875 32.421875 
Q 14.0625 37.5 18.15625 40.03125 
Q 22.265625 42.578125 26.953125 42.578125 
z
" id="FangSong-54"/>
      </defs>
      <g transform="translate(451.996809 328.992188)scale(0.1 -0.1)">
       <use xlink:href="#FangSong-54"/>
      </g>
     </g>
    </g>
    <g id="xtick_5">
     <g id="line2d_9">
      <path clip-path="url(#p373f5e534f)" d="M 570.461284 315 
L 570.461284 43.2 
" style="fill:none;stroke:#b0b0b0;stroke-linecap:square;stroke-width:0.8;"/>
     </g>
     <g id="line2d_10">
      <g>
       <use style="stroke:#000000;stroke-width:0.8;" x="570.461284" xlink:href="#meae8e70479" y="315"/>
      </g>
     </g>
     <g id="text_5">
      <!-- 8 -->
      <defs>
       <path d="M 9.375 16.015625 
Q 9.375 9.765625 13.46875 5.859375 
Q 17.578125 1.953125 23.828125 1.953125 
Q 31.25 1.953125 34.5625 5.859375 
Q 37.890625 9.765625 37.890625 15.625 
Q 37.890625 20.703125 33.203125 25.390625 
Q 28.515625 30.078125 19.140625 33.984375 
Q 14.453125 30.859375 11.90625 26.171875 
Q 9.375 21.484375 9.375 16.015625 
z
M 43.75 16.796875 
Q 43.75 9.375 38.28125 4.296875 
Q 32.8125 -0.78125 23.828125 -0.78125 
Q 15.625 -0.78125 9.765625 4.296875 
Q 3.90625 9.375 3.90625 16.015625 
Q 3.90625 22.65625 7.21875 27.34375 
Q 10.546875 32.03125 16.796875 35.546875 
Q 11.328125 38.28125 8.390625 42.375 
Q 5.46875 46.484375 5.46875 51.5625 
Q 5.46875 58.203125 10.546875 62.890625 
Q 15.625 67.578125 24.609375 67.578125 
Q 32.8125 67.578125 37.890625 62.890625 
Q 42.96875 58.203125 42.96875 51.5625 
Q 42.96875 46.875 40.03125 42.765625 
Q 37.109375 38.671875 30.859375 35.546875 
Q 37.5 31.640625 40.625 26.953125 
Q 43.75 22.265625 43.75 16.796875 
z
M 37.5 51.171875 
Q 37.5 56.640625 34.375 60.734375 
Q 31.25 64.84375 24.609375 64.84375 
Q 17.1875 64.84375 14.0625 60.9375 
Q 10.9375 57.03125 10.9375 52.734375 
Q 10.9375 48.4375 15.421875 44.328125 
Q 19.921875 40.234375 28.125 37.109375 
Q 32.8125 39.453125 35.15625 42.96875 
Q 37.5 46.484375 37.5 51.171875 
z
" id="FangSong-56"/>
      </defs>
      <g transform="translate(567.961284 328.992188)scale(0.1 -0.1)">
       <use xlink:href="#FangSong-56"/>
      </g>
     </g>
    </g>
    <g id="text_6">
     <!-- Entropy (kJ/(kg K) -->
     <defs>
      <path d="M 2.734375 64.453125 
L 2.734375 66.796875 
L 41.015625 66.796875 
L 45.3125 53.515625 
L 43.359375 52.734375 
Q 40.234375 58.59375 36.71875 61.515625 
Q 33.203125 64.453125 28.90625 64.453125 
L 17.96875 64.453125 
Q 16.40625 64.453125 15.421875 63.671875 
Q 14.453125 62.890625 14.453125 61.328125 
L 14.453125 37.109375 
L 25.78125 37.109375 
Q 29.6875 37.109375 31.4375 39.0625 
Q 33.203125 41.015625 33.203125 44.921875 
L 33.203125 47.265625 
L 35.546875 47.265625 
L 35.546875 24.21875 
L 33.203125 24.21875 
L 33.203125 25.78125 
Q 33.203125 30.078125 31.4375 32.421875 
Q 29.6875 34.765625 25.78125 34.765625 
L 14.453125 34.765625 
L 14.453125 5.46875 
Q 14.453125 3.90625 15.421875 3.125 
Q 16.40625 2.34375 17.96875 2.34375 
L 28.125 2.34375 
Q 33.984375 2.34375 38.078125 5.65625 
Q 42.1875 8.984375 44.53125 16.015625 
L 46.484375 15.234375 
L 42.1875 0 
L 2.34375 0 
L 2.34375 2.34375 
L 4.6875 2.34375 
Q 6.640625 2.34375 7.421875 3.125 
Q 8.203125 3.90625 8.203125 5.46875 
L 8.203125 61.328125 
Q 8.203125 62.890625 7.421875 63.671875 
Q 6.640625 64.453125 4.6875 64.453125 
z
" id="FangSong-69"/>
      <path d="M 2.734375 0 
L 2.734375 2.34375 
L 4.6875 2.34375 
Q 6.640625 2.34375 7.421875 3.125 
Q 8.203125 3.90625 8.203125 5.46875 
L 8.203125 39.0625 
Q 8.203125 40.234375 7.8125 40.8125 
Q 7.421875 41.40625 6.25 41.40625 
L 3.125 41.40625 
L 3.125 43.75 
L 5.859375 43.75 
Q 7.8125 43.75 9.5625 44.140625 
Q 11.328125 44.53125 12.890625 45.703125 
L 13.671875 45.703125 
L 13.671875 36.71875 
Q 17.1875 40.625 20.703125 42.578125 
Q 24.21875 44.53125 28.125 44.53125 
Q 34.765625 44.53125 37.890625 41.015625 
Q 41.015625 37.5 41.015625 30.46875 
L 41.015625 5.46875 
Q 41.015625 3.90625 41.984375 3.125 
Q 42.96875 2.34375 44.53125 2.34375 
L 46.484375 2.34375 
L 46.484375 0 
L 30.078125 0 
L 30.078125 2.34375 
L 32.03125 2.34375 
Q 33.984375 2.34375 34.765625 3.125 
Q 35.546875 3.90625 35.546875 5.46875 
L 35.546875 31.640625 
Q 35.546875 36.328125 33.59375 38.859375 
Q 31.640625 41.40625 27.734375 41.40625 
Q 24.21875 41.40625 20.5 39.0625 
Q 16.796875 36.71875 13.671875 32.421875 
L 13.671875 5.46875 
Q 13.671875 3.90625 14.640625 3.125 
Q 15.625 2.34375 17.1875 2.34375 
L 19.140625 2.34375 
L 19.140625 0 
z
" id="FangSong-110"/>
      <path d="M 23.046875 12.5 
Q 23.046875 7.03125 25 5.078125 
Q 26.953125 3.125 30.859375 3.125 
Q 34.765625 3.125 37.109375 5.65625 
Q 39.453125 8.203125 40.234375 12.890625 
L 42.1875 12.109375 
Q 41.40625 6.640625 38.078125 3.125 
Q 34.765625 -0.390625 29.296875 -0.390625 
Q 23.4375 -0.390625 20.5 3.125 
Q 17.578125 6.640625 17.578125 14.0625 
L 17.578125 41.40625 
L 5.859375 41.40625 
L 5.859375 43.75 
L 8.984375 43.75 
Q 13.671875 43.75 16.59375 46.671875 
Q 19.53125 49.609375 20.3125 55.859375 
L 20.703125 58.984375 
L 23.046875 58.984375 
L 23.046875 43.75 
L 38.671875 43.75 
L 38.671875 41.40625 
L 23.046875 41.40625 
z
" id="FangSong-116"/>
      <path d="M 19.53125 31.640625 
Q 23.4375 37.890625 27.921875 41.203125 
Q 32.421875 44.53125 37.109375 44.53125 
Q 41.015625 44.53125 43.15625 42.765625 
Q 45.3125 41.015625 45.3125 38.671875 
Q 45.3125 36.71875 44.328125 35.546875 
Q 43.359375 34.375 41.40625 34.375 
Q 39.453125 34.375 38.46875 35.546875 
Q 37.5 36.71875 37.890625 38.671875 
Q 37.890625 39.84375 37.5 40.625 
Q 37.109375 41.40625 35.15625 41.40625 
Q 32.03125 41.40625 27.53125 37.5 
Q 23.046875 33.59375 19.53125 26.5625 
L 19.53125 5.46875 
Q 19.53125 3.90625 20.5 3.125 
Q 21.484375 2.34375 23.046875 2.34375 
L 31.640625 2.34375 
L 31.640625 0 
L 2.734375 0 
L 2.734375 2.34375 
L 10.546875 2.34375 
Q 12.5 2.34375 13.28125 3.125 
Q 14.0625 3.90625 14.0625 5.46875 
L 14.0625 37.890625 
Q 14.0625 39.453125 13.28125 40.421875 
Q 12.5 41.40625 10.546875 41.40625 
L 3.125 41.40625 
L 3.125 43.75 
L 6.25 43.75 
Q 8.984375 43.75 12.6875 44.328125 
Q 16.40625 44.921875 18.359375 45.703125 
L 19.53125 45.703125 
z
" id="FangSong-114"/>
      <path d="M 44.921875 21.875 
Q 44.921875 12.109375 39.0625 5.65625 
Q 33.203125 -0.78125 24.609375 -0.78125 
Q 15.625 -0.78125 9.953125 5.859375 
Q 4.296875 12.5 4.296875 21.875 
Q 4.296875 30.46875 9.953125 37.5 
Q 15.625 44.53125 24.609375 44.53125 
Q 33.984375 44.53125 39.453125 37.5 
Q 44.921875 30.46875 44.921875 21.875 
z
M 10.546875 21.484375 
Q 10.546875 11.328125 14.640625 6.4375 
Q 18.75 1.5625 24.609375 1.5625 
Q 31.25 1.5625 34.953125 6.828125 
Q 38.671875 12.109375 38.671875 21.484375 
Q 38.671875 31.640625 34.5625 36.90625 
Q 30.46875 42.1875 24.609375 42.1875 
Q 19.140625 42.1875 14.84375 36.90625 
Q 10.546875 31.640625 10.546875 21.484375 
z
" id="FangSong-111"/>
      <path d="M 17.578125 -12.109375 
L 20.3125 -12.109375 
L 20.3125 -14.453125 
L 2.34375 -14.453125 
L 2.34375 -12.109375 
L 4.6875 -12.109375 
Q 6.640625 -12.109375 7.421875 -11.328125 
Q 8.203125 -10.546875 8.203125 -8.59375 
L 8.203125 37.5 
Q 8.203125 39.0625 7.421875 40.03125 
Q 6.640625 41.015625 4.6875 41.015625 
L 2.34375 41.015625 
L 2.34375 43.359375 
L 5.859375 43.359375 
Q 7.8125 43.359375 9.5625 43.75 
Q 11.328125 44.140625 12.890625 45.3125 
L 13.671875 45.3125 
L 13.671875 36.328125 
Q 16.40625 40.234375 19.71875 42.1875 
Q 23.046875 44.140625 26.953125 44.140625 
Q 34.765625 44.140625 39.84375 38.859375 
Q 44.921875 33.59375 44.921875 22.265625 
Q 44.921875 11.328125 39.453125 5.46875 
Q 33.984375 -0.390625 26.5625 -0.390625 
Q 22.265625 -0.390625 19.328125 0.96875 
Q 16.40625 2.34375 13.671875 5.078125 
L 13.671875 -8.59375 
Q 13.671875 -10.546875 14.84375 -11.328125 
Q 16.015625 -12.109375 17.578125 -12.109375 
z
M 13.671875 10.15625 
Q 15.625 6.25 18.546875 4.296875 
Q 21.484375 2.34375 25.390625 2.34375 
Q 30.859375 2.34375 34.765625 7.21875 
Q 38.671875 12.109375 38.671875 22.265625 
Q 38.671875 31.640625 35.734375 36.328125 
Q 32.8125 41.015625 26.953125 41.015625 
Q 23.4375 41.015625 19.921875 38.859375 
Q 16.40625 36.71875 13.671875 32.03125 
z
" id="FangSong-112"/>
      <path d="M 25.390625 10.9375 
L 26.171875 10.9375 
L 34.765625 37.109375 
Q 35.546875 39.0625 34.5625 40.234375 
Q 33.59375 41.40625 32.03125 41.40625 
L 29.6875 41.40625 
L 29.6875 43.75 
L 46.09375 43.75 
L 46.09375 41.40625 
L 43.75 41.40625 
Q 42.1875 41.40625 40.625 40.234375 
Q 39.0625 39.0625 38.28125 37.109375 
L 25 -1.5625 
Q 23.046875 -7.8125 20.109375 -11.125 
Q 17.1875 -14.453125 12.5 -14.84375 
Q 10.15625 -14.84375 8.390625 -13.671875 
Q 6.640625 -12.5 6.640625 -10.546875 
Q 6.640625 -8.984375 7.609375 -7.8125 
Q 8.59375 -6.640625 10.546875 -6.640625 
Q 12.109375 -6.640625 13.078125 -8.203125 
Q 14.0625 -9.765625 16.40625 -9.171875 
Q 18.75 -8.59375 19.53125 -6.640625 
Q 20.3125 -5.46875 21.484375 -2.53125 
Q 22.65625 0.390625 23.4375 3.515625 
L 10.15625 37.890625 
Q 9.765625 39.453125 8.390625 40.421875 
Q 7.03125 41.40625 5.46875 41.40625 
L 3.90625 41.40625 
L 3.90625 43.75 
L 20.3125 43.75 
L 20.3125 41.40625 
L 18.75 41.40625 
Q 17.1875 41.40625 16.40625 40.421875 
Q 15.625 39.453125 16.015625 37.5 
z
" id="FangSong-121"/>
      <path id="FangSong-32"/>
      <path d="M 44.921875 76.953125 
Q 35.9375 67.578125 31.4375 56.828125 
Q 26.953125 46.09375 26.953125 34.375 
Q 26.953125 22.265625 31.4375 11.71875 
Q 35.9375 1.171875 44.921875 -8.203125 
L 42.96875 -10.15625 
Q 32.03125 -0.390625 26.5625 10.734375 
Q 21.09375 21.875 21.09375 34.375 
Q 21.09375 46.484375 26.5625 57.609375 
Q 32.03125 68.75 42.96875 78.90625 
z
" id="FangSong-40"/>
      <path d="M 25.78125 28.125 
L 40.625 5.078125 
Q 41.796875 3.515625 42.765625 2.921875 
Q 43.75 2.34375 44.921875 2.34375 
L 46.484375 2.34375 
L 46.484375 0 
L 30.46875 0 
L 30.46875 2.34375 
L 31.640625 2.34375 
Q 33.59375 2.34375 34.375 2.921875 
Q 35.15625 3.515625 33.984375 5.078125 
L 21.875 24.21875 
L 14.0625 16.015625 
L 14.0625 5.46875 
Q 14.0625 3.90625 15.03125 3.125 
Q 16.015625 2.34375 17.578125 2.34375 
L 19.53125 2.34375 
L 19.53125 0 
L 3.125 0 
L 3.125 2.34375 
L 5.078125 2.34375 
Q 7.03125 2.34375 7.8125 3.125 
Q 8.59375 3.90625 8.59375 5.46875 
L 8.59375 61.328125 
Q 8.59375 62.890625 7.8125 63.671875 
Q 7.03125 64.453125 5.078125 64.453125 
L 2.734375 64.453125 
L 2.734375 66.796875 
L 6.25 66.796875 
Q 8.59375 66.796875 10.34375 67.578125 
Q 12.109375 68.359375 13.28125 69.921875 
L 14.0625 69.921875 
L 14.0625 20.3125 
L 30.46875 37.890625 
Q 31.25 39.453125 31.046875 40.421875 
Q 30.859375 41.40625 29.296875 41.40625 
L 26.953125 41.40625 
L 26.953125 43.75 
L 43.359375 43.75 
L 43.359375 41.40625 
L 41.40625 41.40625 
Q 40.234375 41.40625 38.46875 40.8125 
Q 36.71875 40.234375 35.15625 38.671875 
z
" id="FangSong-107"/>
      <path d="M 28.515625 59.375 
Q 28.515625 62.5 27.921875 63.46875 
Q 27.34375 64.453125 25 64.453125 
L 15.625 64.453125 
L 15.625 66.796875 
L 47.65625 66.796875 
L 47.65625 64.453125 
L 38.28125 64.453125 
Q 36.71875 64.453125 35.734375 63.671875 
Q 34.765625 62.890625 34.765625 61.328125 
L 34.765625 18.359375 
Q 34.765625 9.765625 29.296875 4.875 
Q 23.828125 0 17.1875 0 
Q 11.328125 0 8.203125 2.34375 
Q 5.078125 4.6875 5.078125 7.8125 
Q 5.078125 10.15625 6.4375 11.328125 
Q 7.8125 12.5 9.375 12.5 
Q 11.328125 12.5 12.5 11.125 
Q 13.671875 9.765625 13.671875 7.8125 
Q 13.671875 7.03125 13.46875 6.4375 
Q 13.28125 5.859375 12.5 5.078125 
Q 13.28125 3.90625 14.84375 3.3125 
Q 16.40625 2.734375 17.1875 2.734375 
Q 22.265625 2.734375 25.390625 6.046875 
Q 28.515625 9.375 28.515625 18.359375 
z
" id="FangSong-74"/>
      <path d="M 5.859375 -8.984375 
L 3.125 -7.421875 
L 42.96875 76.171875 
L 45.703125 74.609375 
z
" id="FangSong-47"/>
      <path d="M 13.28125 29.296875 
Q 13.28125 24.609375 16.015625 21.28125 
Q 18.75 17.96875 23.4375 17.96875 
Q 28.515625 17.96875 31.046875 20.890625 
Q 33.59375 23.828125 33.59375 29.296875 
Q 33.59375 35.9375 30.65625 38.859375 
Q 27.734375 41.796875 23.4375 41.796875 
Q 19.140625 41.796875 16.203125 38.859375 
Q 13.28125 35.9375 13.28125 29.296875 
z
M 32.421875 8.203125 
Q 38.28125 7.421875 41.015625 4.875 
Q 43.75 2.34375 43.75 -1.953125 
Q 43.75 -7.8125 38.859375 -11.328125 
Q 33.984375 -14.84375 23.4375 -14.84375 
Q 15.234375 -14.84375 10.15625 -11.515625 
Q 5.078125 -8.203125 5.078125 -3.90625 
Q 5.078125 -1.171875 7.03125 1.5625 
Q 8.984375 4.296875 13.28125 5.859375 
Q 10.9375 7.03125 9.5625 8.390625 
Q 8.203125 9.765625 8.203125 11.71875 
Q 8.203125 14.0625 9.765625 15.8125 
Q 11.328125 17.578125 13.671875 18.75 
Q 11.328125 20.703125 9.5625 23.4375 
Q 7.8125 26.171875 7.8125 29.296875 
Q 7.8125 35.15625 11.90625 39.640625 
Q 16.015625 44.140625 23.4375 44.140625 
Q 26.5625 44.140625 29.484375 43.359375 
Q 32.421875 42.578125 34.375 40.625 
Q 37.109375 42.578125 39.25 43.546875 
Q 41.40625 44.53125 42.96875 44.53125 
Q 44.921875 44.53125 45.703125 43.15625 
Q 46.484375 41.796875 46.484375 40.625 
Q 46.484375 39.0625 45.890625 38.078125 
Q 45.3125 37.109375 43.75 37.109375 
Q 42.578125 37.109375 41.796875 37.6875 
Q 41.015625 38.28125 40.625 39.453125 
Q 40.234375 40.625 38.859375 40.421875 
Q 37.5 40.234375 35.9375 39.0625 
Q 37.5 37.5 38.28125 34.765625 
Q 39.0625 32.03125 39.0625 29.296875 
Q 39.0625 24.609375 35.34375 20.109375 
Q 31.640625 15.625 23.4375 15.625 
Q 21.09375 15.625 19.140625 16.203125 
Q 17.1875 16.796875 16.015625 17.578125 
Q 14.453125 16.796875 13.671875 15.625 
Q 12.890625 14.453125 12.890625 13.671875 
Q 12.890625 12.109375 13.671875 11.328125 
Q 14.453125 10.546875 16.015625 10.546875 
Q 21.09375 9.765625 25.1875 9.171875 
Q 29.296875 8.59375 32.421875 8.203125 
z
M 16.40625 5.078125 
Q 12.890625 3.515625 11.515625 1.359375 
Q 10.15625 -0.78125 10.15625 -3.90625 
Q 10.15625 -7.03125 13.671875 -9.765625 
Q 17.1875 -12.5 24.21875 -12.5 
Q 30.859375 -12.5 34.765625 -10.34375 
Q 38.671875 -8.203125 38.671875 -3.90625 
Q 38.671875 -1.171875 37.6875 0.390625 
Q 36.71875 1.953125 34.765625 2.34375 
Q 30.859375 3.125 26.171875 3.703125 
Q 21.484375 4.296875 16.40625 5.078125 
z
" id="FangSong-103"/>
      <path d="M 47.65625 0 
L 30.859375 0 
L 30.859375 2.34375 
L 32.03125 2.34375 
Q 34.375 2.34375 34.765625 3.90625 
Q 35.15625 5.46875 33.59375 8.203125 
L 20.3125 36.71875 
L 14.0625 27.734375 
L 14.0625 5.46875 
Q 14.0625 3.90625 15.03125 3.125 
Q 16.015625 2.34375 17.578125 2.34375 
L 19.921875 2.34375 
L 19.921875 0 
L 1.953125 0 
L 1.953125 2.34375 
L 4.296875 2.34375 
Q 6.25 2.34375 7.03125 3.125 
Q 7.8125 3.90625 7.8125 5.46875 
L 7.8125 61.328125 
Q 7.8125 62.890625 7.03125 63.671875 
Q 6.25 64.453125 4.296875 64.453125 
L 1.953125 64.453125 
L 1.953125 66.796875 
L 19.921875 66.796875 
L 19.921875 64.453125 
L 17.578125 64.453125 
Q 16.015625 64.453125 15.03125 63.671875 
Q 14.0625 62.890625 14.0625 61.328125 
L 14.0625 32.8125 
L 32.421875 58.984375 
Q 34.375 61.71875 33.59375 63.078125 
Q 32.8125 64.453125 30.078125 64.453125 
L 28.515625 64.453125 
L 28.515625 66.796875 
L 45.3125 66.796875 
L 45.3125 64.453125 
L 44.53125 64.453125 
Q 42.578125 64.453125 40.625 63.28125 
Q 38.671875 62.109375 36.71875 59.765625 
L 24.21875 42.578125 
L 41.015625 6.640625 
Q 42.1875 4.296875 43.546875 3.3125 
Q 44.921875 2.34375 45.703125 2.34375 
L 47.65625 2.34375 
z
" id="FangSong-75"/>
      <path d="M 3.90625 76.953125 
L 5.859375 78.90625 
Q 16.796875 68.75 22.265625 57.609375 
Q 27.734375 46.484375 27.734375 34.375 
Q 27.734375 21.875 22.265625 10.734375 
Q 16.796875 -0.390625 5.859375 -10.15625 
L 3.90625 -8.203125 
Q 12.890625 1.171875 17.375 11.71875 
Q 21.875 22.265625 21.875 34.375 
Q 21.875 46.09375 17.375 56.828125 
Q 12.890625 67.578125 3.90625 76.953125 
z
" id="FangSong-41"/>
     </defs>
     <g transform="translate(324 342.328125)scale(0.1 -0.1)">
      <use xlink:href="#FangSong-69"/>
      <use x="50" xlink:href="#FangSong-110"/>
      <use x="100" xlink:href="#FangSong-116"/>
      <use x="150" xlink:href="#FangSong-114"/>
      <use x="200" xlink:href="#FangSong-111"/>
      <use x="250" xlink:href="#FangSong-112"/>
      <use x="300" xlink:href="#FangSong-121"/>
      <use x="350" xlink:href="#FangSong-32"/>
      <use x="400" xlink:href="#FangSong-40"/>
      <use x="450" xlink:href="#FangSong-107"/>
      <use x="500" xlink:href="#FangSong-74"/>
      <use x="550" xlink:href="#FangSong-47"/>
      <use x="600" xlink:href="#FangSong-40"/>
      <use x="650" xlink:href="#FangSong-107"/>
      <use x="700" xlink:href="#FangSong-103"/>
      <use x="750" xlink:href="#FangSong-32"/>
      <use x="800" xlink:href="#FangSong-75"/>
      <use x="850" xlink:href="#FangSong-41"/>
     </g>
    </g>
   </g>
   <g id="matplotlib.axis_2">
    <g id="ytick_1">
     <g id="line2d_11">
      <path clip-path="url(#p373f5e534f)" d="M 90 309.434674 
L 648 309.434674 
" style="fill:none;stroke:#b0b0b0;stroke-linecap:square;stroke-width:0.8;"/>
     </g>
     <g id="line2d_12">
      <defs>
       <path d="M 0 0 
L -3.5 0 
" id="m036ce21111" style="stroke:#000000;stroke-width:0.8;"/>
      </defs>
      <g>
       <use style="stroke:#000000;stroke-width:0.8;" x="90" xlink:href="#m036ce21111" y="309.434674"/>
      </g>
     </g>
     <g id="text_7">
      <!-- 0 -->
      <g transform="translate(78 312.930767)scale(0.1 -0.1)">
       <use xlink:href="#FangSong-48"/>
      </g>
     </g>
    </g>
    <g id="ytick_2">
     <g id="line2d_13">
      <path clip-path="url(#p373f5e534f)" d="M 90 275.488579 
L 648 275.488579 
" style="fill:none;stroke:#b0b0b0;stroke-linecap:square;stroke-width:0.8;"/>
     </g>
     <g id="line2d_14">
      <g>
       <use style="stroke:#000000;stroke-width:0.8;" x="90" xlink:href="#m036ce21111" y="275.488579"/>
      </g>
     </g>
     <g id="text_8">
      <!-- 50 -->
      <defs>
       <path d="M 26.5625 42.96875 
Q 33.984375 42.96875 38.671875 37.296875 
Q 43.359375 31.640625 43.359375 22.265625 
Q 43.359375 11.71875 38.46875 5.46875 
Q 33.59375 -0.78125 23.4375 -0.78125 
Q 16.40625 -0.78125 10.9375 3.3125 
Q 5.46875 7.421875 5.46875 13.28125 
Q 5.46875 15.625 6.828125 17.375 
Q 8.203125 19.140625 10.546875 19.140625 
Q 12.890625 19.140625 13.671875 17.578125 
Q 14.453125 16.015625 14.453125 14.84375 
Q 14.453125 12.5 13.28125 11.125 
Q 12.109375 9.765625 12.109375 8.203125 
Q 12.109375 5.078125 15.8125 3.515625 
Q 19.53125 1.953125 23.828125 1.953125 
Q 30.078125 1.953125 33.390625 7.03125 
Q 36.71875 12.109375 36.71875 21.484375 
Q 36.71875 29.296875 33.78125 34.171875 
Q 30.859375 39.0625 25 39.0625 
Q 20.703125 39.0625 17.578125 37.5 
Q 14.453125 35.9375 11.71875 30.859375 
L 8.203125 31.25 
L 10.15625 66.796875 
L 42.1875 66.796875 
L 41.015625 60.9375 
L 12.890625 60.9375 
L 11.328125 35.15625 
Q 15.234375 40.625 18.9375 41.796875 
Q 22.65625 42.96875 26.5625 42.96875 
z
" id="FangSong-53"/>
      </defs>
      <g transform="translate(73 278.984672)scale(0.1 -0.1)">
       <use xlink:href="#FangSong-53"/>
       <use x="50" xlink:href="#FangSong-48"/>
      </g>
     </g>
    </g>
    <g id="ytick_3">
     <g id="line2d_15">
      <path clip-path="url(#p373f5e534f)" d="M 90 241.542484 
L 648 241.542484 
" style="fill:none;stroke:#b0b0b0;stroke-linecap:square;stroke-width:0.8;"/>
     </g>
     <g id="line2d_16">
      <g>
       <use style="stroke:#000000;stroke-width:0.8;" x="90" xlink:href="#m036ce21111" y="241.542484"/>
      </g>
     </g>
     <g id="text_9">
      <!-- 100 -->
      <defs>
       <path d="M 28.125 67.96875 
L 28.125 8.59375 
Q 28.125 5.46875 30.078125 3.90625 
Q 32.03125 2.34375 35.546875 2.34375 
L 39.453125 2.34375 
L 39.453125 0 
L 10.9375 0 
L 10.9375 2.34375 
L 14.453125 2.34375 
Q 18.359375 2.34375 20.109375 3.90625 
Q 21.875 5.46875 21.875 8.59375 
L 21.875 55.859375 
Q 21.875 57.421875 20.890625 58.390625 
Q 19.921875 59.375 17.96875 59.375 
L 10.9375 59.375 
L 10.9375 61.71875 
L 14.453125 61.71875 
Q 19.140625 61.71875 22.0625 63.28125 
Q 25 64.84375 26.5625 67.96875 
z
" id="FangSong-49"/>
      </defs>
      <g transform="translate(68 245.038577)scale(0.1 -0.1)">
       <use xlink:href="#FangSong-49"/>
       <use x="50" xlink:href="#FangSong-48"/>
       <use x="100" xlink:href="#FangSong-48"/>
      </g>
     </g>
    </g>
    <g id="ytick_4">
     <g id="line2d_17">
      <path clip-path="url(#p373f5e534f)" d="M 90 207.596389 
L 648 207.596389 
" style="fill:none;stroke:#b0b0b0;stroke-linecap:square;stroke-width:0.8;"/>
     </g>
     <g id="line2d_18">
      <g>
       <use style="stroke:#000000;stroke-width:0.8;" x="90" xlink:href="#m036ce21111" y="207.596389"/>
      </g>
     </g>
     <g id="text_10">
      <!-- 150 -->
      <g transform="translate(68 211.092483)scale(0.1 -0.1)">
       <use xlink:href="#FangSong-49"/>
       <use x="50" xlink:href="#FangSong-53"/>
       <use x="100" xlink:href="#FangSong-48"/>
      </g>
     </g>
    </g>
    <g id="ytick_5">
     <g id="line2d_19">
      <path clip-path="url(#p373f5e534f)" d="M 90 173.650294 
L 648 173.650294 
" style="fill:none;stroke:#b0b0b0;stroke-linecap:square;stroke-width:0.8;"/>
     </g>
     <g id="line2d_20">
      <g>
       <use style="stroke:#000000;stroke-width:0.8;" x="90" xlink:href="#m036ce21111" y="173.650294"/>
      </g>
     </g>
     <g id="text_11">
      <!-- 200 -->
      <g transform="translate(68 177.146388)scale(0.1 -0.1)">
       <use xlink:href="#FangSong-50"/>
       <use x="50" xlink:href="#FangSong-48"/>
       <use x="100" xlink:href="#FangSong-48"/>
      </g>
     </g>
    </g>
    <g id="ytick_6">
     <g id="line2d_21">
      <path clip-path="url(#p373f5e534f)" d="M 90 139.704199 
L 648 139.704199 
" style="fill:none;stroke:#b0b0b0;stroke-linecap:square;stroke-width:0.8;"/>
     </g>
     <g id="line2d_22">
      <g>
       <use style="stroke:#000000;stroke-width:0.8;" x="90" xlink:href="#m036ce21111" y="139.704199"/>
      </g>
     </g>
     <g id="text_12">
      <!-- 250 -->
      <g transform="translate(68 143.200293)scale(0.1 -0.1)">
       <use xlink:href="#FangSong-50"/>
       <use x="50" xlink:href="#FangSong-53"/>
       <use x="100" xlink:href="#FangSong-48"/>
      </g>
     </g>
    </g>
    <g id="ytick_7">
     <g id="line2d_23">
      <path clip-path="url(#p373f5e534f)" d="M 90 105.758104 
L 648 105.758104 
" style="fill:none;stroke:#b0b0b0;stroke-linecap:square;stroke-width:0.8;"/>
     </g>
     <g id="line2d_24">
      <g>
       <use style="stroke:#000000;stroke-width:0.8;" x="90" xlink:href="#m036ce21111" y="105.758104"/>
      </g>
     </g>
     <g id="text_13">
      <!-- 300 -->
      <defs>
       <path d="M 43.359375 17.96875 
Q 43.359375 10.546875 37.890625 4.875 
Q 32.421875 -0.78125 22.65625 -0.78125 
Q 15.625 -0.78125 10.546875 3.125 
Q 5.46875 7.03125 5.46875 12.109375 
Q 5.46875 14.453125 7.03125 16.203125 
Q 8.59375 17.96875 10.15625 17.96875 
Q 12.5 17.96875 13.46875 16.203125 
Q 14.453125 14.453125 14.453125 13.28125 
Q 14.453125 11.328125 13.671875 9.953125 
Q 12.890625 8.59375 12.890625 7.421875 
Q 12.890625 5.078125 15.8125 3.515625 
Q 18.75 1.953125 22.265625 1.953125 
Q 29.296875 1.953125 32.8125 6.046875 
Q 36.328125 10.15625 36.328125 18.75 
Q 36.328125 25.78125 32.609375 30.078125 
Q 28.90625 34.375 18.75 34.375 
L 18.75 37.109375 
Q 26.5625 37.109375 30.265625 40.8125 
Q 33.984375 44.53125 33.984375 51.171875 
Q 33.984375 56.640625 31.046875 60.734375 
Q 28.125 64.84375 21.875 64.84375 
Q 19.140625 64.84375 16.015625 63.46875 
Q 12.890625 62.109375 12.890625 58.984375 
Q 12.890625 55.859375 13.671875 55.078125 
Q 14.453125 54.296875 14.453125 53.125 
Q 14.453125 51.171875 13.671875 50 
Q 12.890625 48.828125 10.9375 48.828125 
Q 9.375 48.828125 8 50 
Q 6.640625 51.171875 6.640625 54.296875 
Q 6.640625 60.15625 11.71875 63.859375 
Q 16.796875 67.578125 23.4375 67.578125 
Q 31.25 67.578125 35.9375 62.6875 
Q 40.625 57.8125 40.625 52.34375 
Q 40.625 46.484375 37.6875 42.375 
Q 34.765625 38.28125 28.515625 36.328125 
Q 37.109375 33.203125 40.234375 28.125 
Q 43.359375 23.046875 43.359375 17.96875 
z
" id="FangSong-51"/>
      </defs>
      <g transform="translate(68 109.254198)scale(0.1 -0.1)">
       <use xlink:href="#FangSong-51"/>
       <use x="50" xlink:href="#FangSong-48"/>
       <use x="100" xlink:href="#FangSong-48"/>
      </g>
     </g>
    </g>
    <g id="ytick_8">
     <g id="line2d_25">
      <path clip-path="url(#p373f5e534f)" d="M 90 71.812009 
L 648 71.812009 
" style="fill:none;stroke:#b0b0b0;stroke-linecap:square;stroke-width:0.8;"/>
     </g>
     <g id="line2d_26">
      <g>
       <use style="stroke:#000000;stroke-width:0.8;" x="90" xlink:href="#m036ce21111" y="71.812009"/>
      </g>
     </g>
     <g id="text_14">
      <!-- 350 -->
      <g transform="translate(68 75.308103)scale(0.1 -0.1)">
       <use xlink:href="#FangSong-51"/>
       <use x="50" xlink:href="#FangSong-53"/>
       <use x="100" xlink:href="#FangSong-48"/>
      </g>
     </g>
    </g>
    <g id="text_15">
     <!-- Temperature (°C) -->
     <defs>
      <path d="M 34.375 0 
L 14.0625 0 
L 14.0625 2.34375 
L 17.578125 2.34375 
Q 19.53125 2.34375 20.3125 3.125 
Q 21.09375 3.90625 21.09375 5.46875 
L 21.09375 60.15625 
Q 21.09375 63.28125 20.703125 63.671875 
Q 20.3125 64.0625 17.578125 64.0625 
Q 12.109375 64.0625 9.953125 62.109375 
Q 7.8125 60.15625 4.6875 51.5625 
L 2.34375 51.953125 
L 5.859375 66.796875 
L 42.96875 66.796875 
L 46.09375 51.953125 
L 44.140625 51.5625 
Q 41.015625 59.765625 39.25 61.90625 
Q 37.5 64.0625 32.03125 64.0625 
Q 28.125 64.0625 27.734375 63.671875 
Q 27.34375 63.28125 27.34375 59.765625 
L 27.34375 5.46875 
Q 27.34375 3.90625 28.3125 3.125 
Q 29.296875 2.34375 30.859375 2.34375 
L 34.375 2.34375 
z
" id="FangSong-84"/>
      <path d="M 37.109375 24.21875 
Q 37.5 32.8125 34.171875 37.296875 
Q 30.859375 41.796875 25.390625 41.796875 
Q 19.53125 41.796875 15.8125 37.109375 
Q 12.109375 32.421875 12.109375 24.21875 
z
M 12.109375 21.875 
Q 12.109375 11.328125 16.203125 6.828125 
Q 20.3125 2.34375 26.953125 2.34375 
Q 32.03125 2.34375 35.546875 5.265625 
Q 39.0625 8.203125 40.625 12.5 
L 42.578125 11.71875 
Q 41.40625 7.421875 37.296875 3.3125 
Q 33.203125 -0.78125 26.171875 -0.78125 
Q 17.1875 -0.78125 11.515625 5.078125 
Q 5.859375 10.9375 5.859375 21.875 
Q 5.859375 31.640625 11.515625 38.078125 
Q 17.1875 44.53125 25.390625 44.53125 
Q 32.8125 44.53125 38.28125 39.453125 
Q 43.75 34.375 43.75 21.875 
z
" id="FangSong-101"/>
      <path d="M 2.34375 43.75 
Q 4.296875 43.75 6.25 44.140625 
Q 8.203125 44.53125 9.375 45.3125 
L 10.15625 45.3125 
L 10.15625 38.671875 
Q 12.109375 41.796875 14.453125 43.15625 
Q 16.796875 44.53125 19.53125 44.53125 
Q 23.046875 44.53125 25 43.15625 
Q 26.953125 41.796875 27.34375 38.671875 
Q 29.296875 41.796875 31.828125 43.15625 
Q 34.375 44.53125 37.109375 44.53125 
Q 41.796875 44.53125 43.546875 41.796875 
Q 45.3125 39.0625 45.3125 34.765625 
L 45.3125 5.078125 
Q 45.3125 3.515625 46.09375 2.921875 
Q 46.875 2.34375 48.4375 2.34375 
L 49.21875 2.34375 
L 49.21875 0 
L 35.9375 0 
L 35.9375 2.34375 
L 36.71875 2.34375 
Q 38.28125 2.34375 39.0625 2.921875 
Q 39.84375 3.515625 39.84375 5.078125 
L 39.84375 34.375 
Q 39.84375 38.671875 38.859375 40.03125 
Q 37.890625 41.40625 35.9375 41.40625 
Q 33.203125 41.40625 31.046875 39.453125 
Q 28.90625 37.5 27.734375 33.984375 
L 27.734375 5.078125 
Q 27.734375 3.515625 28.515625 2.921875 
Q 29.296875 2.34375 30.859375 2.34375 
L 31.640625 2.34375 
L 31.640625 0 
L 18.359375 0 
L 18.359375 2.34375 
L 19.140625 2.34375 
Q 20.703125 2.34375 21.484375 2.921875 
Q 22.265625 3.515625 22.265625 5.078125 
L 22.265625 34.375 
Q 22.265625 37.890625 21.484375 39.640625 
Q 20.703125 41.40625 18.359375 41.40625 
Q 15.625 41.40625 13.46875 39.453125 
Q 11.328125 37.5 10.15625 33.59375 
L 10.15625 5.078125 
Q 10.15625 3.515625 10.9375 2.921875 
Q 11.71875 2.34375 13.28125 2.34375 
L 14.0625 2.34375 
L 14.0625 0 
L 0.78125 0 
L 0.78125 2.34375 
L 1.5625 2.34375 
Q 3.125 2.34375 3.90625 2.921875 
Q 4.6875 3.515625 4.6875 5.078125 
L 4.6875 39.0625 
Q 4.6875 40.234375 4.296875 40.8125 
Q 3.90625 41.40625 2.734375 41.40625 
L 1.171875 41.40625 
L 1.171875 43.75 
z
" id="FangSong-109"/>
      <path d="M 18.75 -0.390625 
Q 11.71875 -0.390625 7.8125 2.921875 
Q 3.90625 6.25 3.90625 10.546875 
Q 3.90625 17.578125 9.953125 22.0625 
Q 16.015625 26.5625 33.984375 28.515625 
L 33.984375 33.203125 
Q 33.984375 37.109375 32.21875 39.640625 
Q 30.46875 42.1875 24.21875 42.1875 
Q 17.578125 42.1875 14.84375 40.03125 
Q 12.109375 37.890625 12.890625 35.546875 
Q 13.671875 33.984375 12.890625 32.421875 
Q 12.109375 30.859375 9.765625 30.859375 
Q 8.203125 30.859375 7.21875 31.828125 
Q 6.25 32.8125 6.25 34.765625 
Q 6.25 38.28125 11.328125 41.40625 
Q 16.40625 44.53125 23.828125 44.53125 
Q 31.640625 44.53125 35.546875 41.59375 
Q 39.453125 38.671875 39.453125 33.203125 
L 39.453125 7.421875 
Q 39.453125 4.296875 40.03125 3.703125 
Q 40.625 3.125 42.1875 3.125 
Q 44.140625 3.125 44.921875 4.875 
Q 45.703125 6.640625 45.703125 9.765625 
L 47.65625 9.765625 
Q 47.65625 4.296875 45.703125 2.140625 
Q 43.75 0 40.625 0 
Q 37.890625 0 36.328125 1.171875 
Q 34.765625 2.34375 33.984375 5.078125 
Q 30.078125 2.34375 26.75 0.96875 
Q 23.4375 -0.390625 18.75 -0.390625 
z
M 10.546875 11.71875 
Q 10.546875 8.203125 12.6875 5.265625 
Q 14.84375 2.34375 19.53125 2.34375 
Q 23.046875 2.34375 26.5625 3.703125 
Q 30.078125 5.078125 33.984375 7.8125 
L 33.984375 26.171875 
Q 20.703125 24.609375 15.625 20.890625 
Q 10.546875 17.1875 10.546875 11.71875 
z
" id="FangSong-97"/>
      <path d="M 22.265625 3.515625 
Q 26.953125 3.515625 30.265625 5.859375 
Q 33.59375 8.203125 35.15625 13.28125 
L 35.15625 37.890625 
Q 35.15625 39.453125 34.375 40.421875 
Q 33.59375 41.40625 31.640625 41.40625 
L 29.296875 41.40625 
L 29.296875 43.75 
L 31.640625 43.75 
Q 33.984375 43.75 35.9375 44.140625 
Q 37.890625 44.53125 39.84375 46.09375 
L 40.625 46.09375 
L 40.625 7.8125 
Q 40.625 6.25 41.59375 5.46875 
Q 42.578125 4.6875 44.140625 4.6875 
L 46.484375 4.6875 
L 46.484375 2.34375 
L 44.140625 2.34375 
Q 42.1875 2.34375 40.234375 1.75 
Q 38.28125 1.171875 35.9375 0 
L 35.15625 0 
L 35.15625 8.203125 
Q 33.203125 3.90625 29.296875 1.75 
Q 25.390625 -0.390625 20.3125 -0.390625 
Q 14.0625 -0.390625 10.9375 3.125 
Q 7.8125 6.640625 7.8125 14.453125 
L 7.8125 37.890625 
Q 7.8125 39.453125 7.03125 40.421875 
Q 6.25 41.40625 4.296875 41.40625 
L 1.953125 41.40625 
L 1.953125 43.75 
L 4.296875 43.75 
Q 6.640625 43.75 8.59375 44.140625 
Q 10.546875 44.53125 12.5 46.09375 
L 13.28125 46.09375 
L 13.28125 13.671875 
Q 13.28125 8.203125 15.625 5.859375 
Q 17.96875 3.515625 22.265625 3.515625 
z
" id="FangSong-117"/>
      <path d="M 16.015625 67.1875 
Q 19.53125 70.703125 24.609375 70.703125 
Q 29.6875 70.703125 33.203125 67.1875 
Q 35.9375 64.0625 35.9375 59.765625 
Q 35.9375 55.46875 33.203125 51.953125 
Q 29.6875 48.4375 24.609375 48.4375 
Q 19.53125 48.4375 16.015625 51.953125 
Q 13.28125 55.46875 13.28125 59.765625 
Q 13.28125 64.0625 16.015625 67.1875 
z
M 18.75 64.84375 
Q 16.796875 62.5 16.796875 59.765625 
Q 16.796875 56.640625 18.75 54.296875 
Q 21.09375 51.953125 24.609375 51.953125 
Q 28.125 51.953125 30.46875 54.296875 
Q 32.421875 56.640625 32.421875 59.765625 
Q 32.421875 62.5 30.46875 64.84375 
Q 28.125 67.1875 24.609375 67.1875 
Q 21.09375 67.1875 18.75 64.84375 
z
" id="FangSong-176"/>
      <path d="M 26.5625 -1.171875 
Q 15.625 -1.171875 9.171875 7.03125 
Q 2.734375 15.234375 2.734375 32.8125 
Q 2.734375 47.65625 9.5625 57.421875 
Q 16.40625 67.1875 28.125 67.1875 
Q 30.859375 67.1875 33.59375 66.203125 
Q 36.328125 65.234375 38.28125 65.234375 
Q 39.84375 65.234375 40.8125 65.625 
Q 41.796875 66.015625 42.578125 67.1875 
L 46.09375 50 
L 43.75 49.21875 
Q 41.40625 56.640625 37.5 60.546875 
Q 33.59375 64.453125 27.34375 64.453125 
Q 19.140625 64.453125 14.640625 55.46875 
Q 10.15625 46.484375 10.15625 33.203125 
Q 10.15625 18.75 14.0625 10.546875 
Q 17.96875 2.34375 26.953125 2.34375 
Q 33.203125 2.34375 37.6875 6.828125 
Q 42.1875 11.328125 43.75 18.75 
L 46.09375 17.578125 
Q 44.140625 9.375 38.859375 4.09375 
Q 33.59375 -1.171875 26.5625 -1.171875 
z
" id="FangSong-67"/>
     </defs>
     <g transform="translate(62.554688 221.6)rotate(-90)scale(0.1 -0.1)">
      <use xlink:href="#FangSong-84"/>
      <use x="50" xlink:href="#FangSong-101"/>
      <use x="100" xlink:href="#FangSong-109"/>
      <use x="150" xlink:href="#FangSong-112"/>
      <use x="200" xlink:href="#FangSong-101"/>
      <use x="250" xlink:href="#FangSong-114"/>
      <use x="300" xlink:href="#FangSong-97"/>
      <use x="350" xlink:href="#FangSong-116"/>
      <use x="400" xlink:href="#FangSong-117"/>
      <use x="450" xlink:href="#FangSong-114"/>
      <use x="500" xlink:href="#FangSong-101"/>
      <use x="550" xlink:href="#FangSong-32"/>
      <use x="600" xlink:href="#FangSong-40"/>
      <use x="650" xlink:href="#FangSong-176"/>
      <use x="750" xlink:href="#FangSong-67"/>
      <use x="800" xlink:href="#FangSong-41"/>
     </g>
    </g>
   </g>
   <g id="line2d_27">
    <path clip-path="url(#p373f5e534f)" d="M 622.636364 302.645455 
L 612.604796 297.678803 
L 603.204017 292.712152 
L 594.382531 287.7455 
L 586.093822 282.778849 
L 578.295628 277.812197 
L 570.949351 272.845546 
L 564.019581 267.878894 
L 557.473718 262.912243 
L 551.281656 257.945592 
L 545.41552 252.97894 
L 539.849429 248.012289 
L 534.559311 243.045637 
L 528.300731 236.837323 
L 522.397972 230.629009 
L 516.814082 224.420694 
L 511.515433 218.21238 
L 506.47152 212.004066 
L 500.716283 204.554089 
L 495.244834 197.104111 
L 489.167701 188.412471 
L 483.365282 179.720831 
L 477.000377 169.787529 
L 469.329696 157.3709 
L 455.117086 133.779306 
L 446.744758 120.121014 
L 440.38879 110.187711 
L 435.368244 102.737734 
L 430.943546 96.52942 
L 426.21682 90.321106 
L 422.139865 85.354454 
L 418.851602 81.629466 
L 415.305413 77.904477 
L 411.42602 74.179488 
L 407.11192 70.4545 
L 403.895213 67.971174 
L 400.299349 65.487848 
L 396.15529 63.004523 
L 393.783234 61.76286 
L 391.118214 60.521197 
L 388.025348 59.279534 
L 384.241677 58.037871 
L 378.991316 56.796208 
L 362.422262 55.554545 
L 362.422262 55.554545 
" style="fill:none;stroke:#ff0000;stroke-linecap:square;stroke-width:1.5;"/>
   </g>
   <g id="line2d_28">
    <path clip-path="url(#p373f5e534f)" d="M 115.363636 302.645455 
L 124.599526 295.195477 
L 133.480844 287.7455 
L 142.042748 280.295523 
L 151.665207 271.603883 
L 160.929358 262.912243 
L 169.868799 254.220603 
L 178.513346 245.528963 
L 188.065859 235.59566 
L 197.303855 225.662357 
L 206.259941 215.729054 
L 216.036215 204.554089 
L 226.574888 192.13746 
L 236.82535 179.720831 
L 248.822791 164.820877 
L 263.500581 146.195934 
L 292.751045 108.946048 
L 301.872487 97.771083 
L 309.269617 89.079443 
L 314.81372 82.871128 
L 319.487516 77.904477 
L 324.483186 72.937825 
L 328.556015 69.212837 
L 331.504036 66.729511 
L 334.727244 64.246185 
L 338.377764 61.76286 
L 340.458211 60.521197 
L 342.81628 59.279534 
L 345.630858 58.037871 
L 349.470591 56.796208 
L 362.422262 55.554545 
L 362.422262 55.554545 
" style="fill:none;stroke:#0000ff;stroke-linecap:square;stroke-width:1.5;"/>
   </g>
   <g id="line2d_29">
    <path clip-path="url(#p373f5e534f)" d="M 439.702572 109.146521 
L 439.702572 281.25259 
L 140.959692 281.25259 
L 140.959692 281.088348 
L 292.590167 109.146521 
L 439.702572 109.146521 
" style="fill:none;stroke:#008000;stroke-linecap:square;stroke-width:1.5;"/>
   </g>
   <g id="line2d_30">
    <path clip-path="url(#p373f5e534f)" d="M 439.702572 281.25259 
L 583.647076 281.25259 
" style="fill:none;stroke:#bfbf00;stroke-linecap:square;stroke-width:1.5;"/>
   </g>
   <g id="patch_3">
    <path d="M 90 315 
L 90 43.2 
" style="fill:none;stroke:#000000;stroke-linecap:square;stroke-linejoin:miter;stroke-width:0.8;"/>
   </g>
   <g id="patch_4">
    <path d="M 648 315 
L 648 43.2 
" style="fill:none;stroke:#000000;stroke-linecap:square;stroke-linejoin:miter;stroke-width:0.8;"/>
   </g>
   <g id="patch_5">
    <path d="M 90 315 
L 648 315 
" style="fill:none;stroke:#000000;stroke-linecap:square;stroke-linejoin:miter;stroke-width:0.8;"/>
   </g>
   <g id="patch_6">
    <path d="M 90 43.2 
L 648 43.2 
" style="fill:none;stroke:#000000;stroke-linecap:square;stroke-linejoin:miter;stroke-width:0.8;"/>
   </g>
  </g>
 </g>
 <defs>
  <clipPath id="p373f5e534f">
   <rect height="271.8" width="558" x="90" y="43.2"/>
  </clipPath>
 </defs>
</svg>
