<?xml version="1.0" encoding="UTF-8" standalone="no"?>
<!DOCTYPE svg PUBLIC "-//W3C//DTD SVG 1.1//EN"
 "http://www.w3.org/Graphics/SVG/1.1/DTD/svg11.dtd">
<!-- Generated by graphviz version 2.50.0 (20211204.2007)
 -->
<!-- Title: packages Pages: 1 -->
<svg width="853pt" height="188pt"
 viewBox="0.00 0.00 853.00 188.00" xmlns="http://www.w3.org/2000/svg" xmlns:xlink="http://www.w3.org/1999/xlink">
<g id="graph0" class="graph" transform="scale(1 1) rotate(0) translate(4 184)">
<title>packages</title>
<polygon fill="white" stroke="transparent" points="-4,4 -4,-184 849,-184 849,4 -4,4"/>
<!-- components -->
<g id="node1" class="node">
<title>components</title>
<polygon fill="none" stroke="black" points="457,-36 371,-36 371,0 457,0 457,-36"/>
<text text-anchor="middle" x="414" y="-14.3" font-family="Times New Roman,serif" font-size="14.00">components</text>
</g>
<!-- components.compressor -->
<g id="node2" class="node">
<title>components.compressor</title>
<polygon fill="none" stroke="black" points="156,-108 0,-108 0,-72 156,-72 156,-108"/>
<text text-anchor="middle" x="78" y="-86.3" font-family="Times New Roman,serif" font-size="14.00">components.compressor</text>
</g>
<!-- components&#45;&gt;components.compressor -->
<g id="edge1" class="edge">
<title>components&#45;&gt;components.compressor</title>
<path fill="none" stroke="black" d="M370.76,-28.01C319.26,-38.74 231.91,-56.93 166,-70.67"/>
<polygon fill="black" stroke="black" points="156.03,-72.74 164.9,-66.3 160.92,-71.72 165.82,-70.7 165.82,-70.7 165.82,-70.7 160.92,-71.72 166.74,-75.11 156.03,-72.74 156.03,-72.74"/>
</g>
<!-- components.condenser -->
<g id="node3" class="node">
<title>components.condenser</title>
<polygon fill="none" stroke="black" points="321.5,-108 174.5,-108 174.5,-72 321.5,-72 321.5,-108"/>
<text text-anchor="middle" x="248" y="-86.3" font-family="Times New Roman,serif" font-size="14.00">components.condenser</text>
</g>
<!-- components&#45;&gt;components.condenser -->
<g id="edge2" class="edge">
<title>components&#45;&gt;components.condenser</title>
<path fill="none" stroke="black" d="M373.39,-36.12C350.6,-45.74 321.97,-57.81 297.83,-67.99"/>
<polygon fill="black" stroke="black" points="288.48,-71.93 295.94,-63.9 293.08,-69.99 297.69,-68.05 297.69,-68.05 297.69,-68.05 293.08,-69.99 299.44,-72.19 288.48,-71.93 288.48,-71.93"/>
</g>
<!-- components.evaporator -->
<g id="node4" class="node">
<title>components.evaporator</title>
<polygon fill="none" stroke="black" points="488.5,-108 339.5,-108 339.5,-72 488.5,-72 488.5,-108"/>
<text text-anchor="middle" x="414" y="-86.3" font-family="Times New Roman,serif" font-size="14.00">components.evaporator</text>
</g>
<!-- components&#45;&gt;components.evaporator -->
<g id="edge3" class="edge">
<title>components&#45;&gt;components.evaporator</title>
<path fill="none" stroke="black" d="M414,-36.3C414,-44.02 414,-53.29 414,-61.89"/>
<polygon fill="black" stroke="black" points="414,-71.9 409.5,-61.9 414,-66.9 414,-61.9 414,-61.9 414,-61.9 414,-66.9 418.5,-61.9 414,-71.9 414,-71.9"/>
</g>
<!-- components.expansionvalve -->
<g id="node5" class="node">
<title>components.expansionvalve</title>
<polygon fill="none" stroke="black" points="681,-108 507,-108 507,-72 681,-72 681,-108"/>
<text text-anchor="middle" x="594" y="-86.3" font-family="Times New Roman,serif" font-size="14.00">components.expansionvalve</text>
</g>
<!-- components&#45;&gt;components.expansionvalve -->
<g id="edge4" class="edge">
<title>components&#45;&gt;components.expansionvalve</title>
<path fill="none" stroke="black" d="M457.11,-35.77C482.12,-45.49 513.84,-57.83 540.44,-68.17"/>
<polygon fill="black" stroke="black" points="549.99,-71.88 539.04,-72.45 545.33,-70.07 540.67,-68.26 540.67,-68.26 540.67,-68.26 545.33,-70.07 542.3,-64.07 549.99,-71.88 549.99,-71.88"/>
</g>
<!-- components.connector -->
<g id="node7" class="node">
<title>components.connector</title>
<polygon fill="none" stroke="black" points="845,-108 699,-108 699,-72 845,-72 845,-108"/>
<text text-anchor="middle" x="772" y="-86.3" font-family="Times New Roman,serif" font-size="14.00">components.connector</text>
</g>
<!-- components&#45;&gt;components.connector -->
<g id="edge5" class="edge">
<title>components&#45;&gt;components.connector</title>
<path fill="none" stroke="black" d="M457.06,-27.07C509.44,-36.92 600.8,-54.26 688.81,-71.78"/>
<polygon fill="black" stroke="black" points="698.69,-73.75 688.01,-76.2 693.79,-72.77 688.89,-71.79 688.89,-71.79 688.89,-71.79 693.79,-72.77 689.77,-67.38 698.69,-73.75 698.69,-73.75"/>
</g>
<!-- components.port -->
<g id="node6" class="node">
<title>components.port</title>
<polygon fill="none" stroke="black" points="470.5,-180 357.5,-180 357.5,-144 470.5,-144 470.5,-180"/>
<text text-anchor="middle" x="414" y="-158.3" font-family="Times New Roman,serif" font-size="14.00">components.port</text>
</g>
<!-- components.compressor&#45;&gt;components.port -->
<g id="edge6" class="edge">
<title>components.compressor&#45;&gt;components.port</title>
<path fill="none" stroke="black" d="M156.35,-107.32C214.31,-119.4 292.41,-135.67 347.38,-147.12"/>
<polygon fill="black" stroke="black" points="357.36,-149.2 346.65,-151.57 352.47,-148.18 347.57,-147.16 347.57,-147.16 347.57,-147.16 352.47,-148.18 348.49,-142.76 357.36,-149.2 357.36,-149.2"/>
</g>
<!-- components.condenser&#45;&gt;components.port -->
<g id="edge7" class="edge">
<title>components.condenser&#45;&gt;components.port</title>
<path fill="none" stroke="black" d="M288.61,-108.12C311.4,-117.74 340.03,-129.81 364.17,-139.99"/>
<polygon fill="black" stroke="black" points="373.52,-143.93 362.56,-144.19 368.92,-141.99 364.31,-140.05 364.31,-140.05 364.31,-140.05 368.92,-141.99 366.06,-135.9 373.52,-143.93 373.52,-143.93"/>
</g>
<!-- components.evaporator&#45;&gt;components.port -->
<g id="edge9" class="edge">
<title>components.evaporator&#45;&gt;components.port</title>
<path fill="none" stroke="black" d="M414,-108.3C414,-116.02 414,-125.29 414,-133.89"/>
<polygon fill="black" stroke="black" points="414,-143.9 409.5,-133.9 414,-138.9 414,-133.9 414,-133.9 414,-133.9 414,-138.9 418.5,-133.9 414,-143.9 414,-143.9"/>
</g>
<!-- components.expansionvalve&#45;&gt;components.port -->
<g id="edge10" class="edge">
<title>components.expansionvalve&#45;&gt;components.port</title>
<path fill="none" stroke="black" d="M549.97,-108.12C525.03,-117.82 493.66,-130.02 467.34,-140.26"/>
<polygon fill="black" stroke="black" points="457.89,-143.93 465.58,-136.11 462.55,-142.12 467.21,-140.31 467.21,-140.31 467.21,-140.31 462.55,-142.12 468.84,-144.5 457.89,-143.93 457.89,-143.93"/>
</g>
<!-- components.connector&#45;&gt;components.port -->
<g id="edge8" class="edge">
<title>components.connector&#45;&gt;components.port</title>
<path fill="none" stroke="black" d="M698.69,-106.25C695.76,-106.85 692.85,-107.43 690,-108 618.61,-122.25 536.67,-137.9 480.74,-148.47"/>
<polygon fill="black" stroke="black" points="470.61,-150.38 479.6,-144.1 475.52,-149.45 480.43,-148.53 480.43,-148.53 480.43,-148.53 475.52,-149.45 481.27,-152.95 470.61,-150.38 470.61,-150.38"/>
</g>
</g>
</svg>
