<?xml version="1.0" encoding="UTF-8" standalone="no"?>
<!DOCTYPE svg PUBLIC "-//W3C//DTD SVG 1.1//EN"
 "http://www.w3.org/Graphics/SVG/1.1/DTD/svg11.dtd">
<!-- Generated by graphviz version 2.38.0 (20140413.2041)
 -->
<!-- Title: packages Pages: 1 -->
<svg width="1009pt" height="188pt"
 viewBox="0.00 0.00 1009.00 188.00" xmlns="http://www.w3.org/2000/svg" xmlns:xlink="http://www.w3.org/1999/xlink">
<g id="graph0" class="graph" transform="scale(1 1) rotate(0) translate(4 184)">
<title>packages</title>
<polygon fill="white" stroke="none" points="-4,4 -4,-184 1005,-184 1005,4 -4,4"/>
<!-- 0 -->
<g id="node1" class="node"><title>0</title>
<polygon fill="none" stroke="black" points="479.5,-36 393.5,-36 393.5,-0 479.5,-0 479.5,-36"/>
<text text-anchor="middle" x="436.5" y="-14.3" font-family="Times New Roman,serif" font-size="14.00">components</text>
</g>
<!-- 1 -->
<g id="node2" class="node"><title>1</title>
<polygon fill="none" stroke="black" points="121,-108 0,-108 0,-72 121,-72 121,-108"/>
<text text-anchor="middle" x="60.5" y="-86.3" font-family="Times New Roman,serif" font-size="14.00">components.boiler</text>
</g>
<!-- 0&#45;&gt;1 -->
<g id="edge1" class="edge"><title>0&#45;&gt;1</title>
<path fill="none" stroke="black" d="M393.355,-25.4639C335.699,-34.3185 230.155,-51.2826 130.918,-71.7727"/>
<polygon fill="black" stroke="black" points="121.027,-73.8312 129.9,-67.388 125.922,-72.8124 130.817,-71.7936 130.817,-71.7936 130.817,-71.7936 125.922,-72.8124 131.734,-76.1992 121.027,-73.8312 121.027,-73.8312"/>
</g>
<!-- 2 -->
<g id="node3" class="node"><title>2</title>
<polygon fill="none" stroke="black" points="286,-108 139,-108 139,-72 286,-72 286,-108"/>
<text text-anchor="middle" x="212.5" y="-86.3" font-family="Times New Roman,serif" font-size="14.00">components.condenser</text>
</g>
<!-- 0&#45;&gt;2 -->
<g id="edge2" class="edge"><title>0&#45;&gt;2</title>
<path fill="none" stroke="black" d="M393.311,-32.4967C360.283,-42.8177 314.223,-57.2117 276.857,-68.8884"/>
<polygon fill="black" stroke="black" points="267.064,-71.9488 275.266,-64.6708 271.836,-70.4574 276.609,-68.966 276.609,-68.966 276.609,-68.966 271.836,-70.4574 277.951,-73.2612 267.064,-71.9488 267.064,-71.9488"/>
</g>
<!-- 3 -->
<g id="node4" class="node"><title>3</title>
<polygon fill="none" stroke="black" points="495,-180 378,-180 378,-144 495,-144 495,-180"/>
<text text-anchor="middle" x="436.5" y="-158.3" font-family="Times New Roman,serif" font-size="14.00">components.node</text>
</g>
<!-- 0&#45;&gt;3 -->
<g id="edge3" class="edge"><title>0&#45;&gt;3</title>
<path fill="none" stroke="black" d="M393.474,-29.5733C371.456,-37.401 346.592,-50.5401 333.5,-72 325.167,-85.6589 325.167,-94.3411 333.5,-108 341.748,-121.52 354.668,-131.737 368.606,-139.404"/>
<polygon fill="black" stroke="black" points="377.872,-144.083 366.918,-143.593 373.409,-141.83 368.946,-139.576 368.946,-139.576 368.946,-139.576 373.409,-141.83 370.974,-135.559 377.872,-144.083 377.872,-144.083"/>
</g>
<!-- 4 -->
<g id="node5" class="node"><title>4</title>
<polygon fill="none" stroke="black" points="530.5,-108 342.5,-108 342.5,-72 530.5,-72 530.5,-108"/>
<text text-anchor="middle" x="436.5" y="-86.3" font-family="Times New Roman,serif" font-size="14.00">components.openedheaterdw0</text>
</g>
<!-- 0&#45;&gt;4 -->
<g id="edge4" class="edge"><title>0&#45;&gt;4</title>
<path fill="none" stroke="black" d="M436.5,-36.3034C436.5,-44.0173 436.5,-53.2875 436.5,-61.8876"/>
<polygon fill="black" stroke="black" points="436.5,-71.8957 432,-61.8956 436.5,-66.8957 436.5,-61.8957 436.5,-61.8957 436.5,-61.8957 436.5,-66.8957 441,-61.8957 436.5,-71.8957 436.5,-71.8957"/>
</g>
<!-- 5 -->
<g id="node6" class="node"><title>5</title>
<polygon fill="none" stroke="black" points="670.5,-108 548.5,-108 548.5,-72 670.5,-72 670.5,-108"/>
<text text-anchor="middle" x="609.5" y="-86.3" font-family="Times New Roman,serif" font-size="14.00">components.pump</text>
</g>
<!-- 0&#45;&gt;5 -->
<g id="edge5" class="edge"><title>0&#45;&gt;5</title>
<path fill="none" stroke="black" d="M478.821,-36.1239C502.681,-45.7784 532.672,-57.9135 557.903,-68.1225"/>
<polygon fill="black" stroke="black" points="567.317,-71.9317 556.359,-72.3523 562.682,-70.0562 558.047,-68.1808 558.047,-68.1808 558.047,-68.1808 562.682,-70.0562 559.735,-64.0093 567.317,-71.9317 567.317,-71.9317"/>
</g>
<!-- 6 -->
<g id="node7" class="node"><title>6</title>
<polygon fill="none" stroke="black" points="836,-108 689,-108 689,-72 836,-72 836,-108"/>
<text text-anchor="middle" x="762.5" y="-86.3" font-family="Times New Roman,serif" font-size="14.00">components.turbineex0</text>
</g>
<!-- 0&#45;&gt;6 -->
<g id="edge6" class="edge"><title>0&#45;&gt;6</title>
<path fill="none" stroke="black" d="M479.79,-28.2955C530.345,-39.1507 615.139,-57.358 678.703,-71.0068"/>
<polygon fill="black" stroke="black" points="688.714,-73.1564 677.992,-75.4567 683.826,-72.1067 678.937,-71.0569 678.937,-71.0569 678.937,-71.0569 683.826,-72.1067 679.882,-66.6572 688.714,-73.1564 688.714,-73.1564"/>
</g>
<!-- 7 -->
<g id="node8" class="node"><title>7</title>
<polygon fill="none" stroke="black" points="1001,-108 854,-108 854,-72 1001,-72 1001,-108"/>
<text text-anchor="middle" x="927.5" y="-86.3" font-family="Times New Roman,serif" font-size="14.00">components.turbineex1</text>
</g>
<!-- 0&#45;&gt;7 -->
<g id="edge7" class="edge"><title>0&#45;&gt;7</title>
<path fill="none" stroke="black" d="M479.644,-23.5057C552.651,-31.3663 705.379,-48.8282 843.848,-71.783"/>
<polygon fill="black" stroke="black" points="853.792,-73.4452 843.187,-76.2348 848.861,-72.6208 843.929,-71.7964 843.929,-71.7964 843.929,-71.7964 848.861,-72.6208 844.671,-67.358 853.792,-73.4452 853.792,-73.4452"/>
</g>
<!-- 1&#45;&gt;3 -->
<g id="edge8" class="edge"><title>1&#45;&gt;3</title>
<path fill="none" stroke="black" d="M121.027,-106.169C123.887,-106.805 126.723,-107.419 129.5,-108 210.992,-125.051 305.479,-140.759 367.871,-150.574"/>
<polygon fill="black" stroke="black" points="377.984,-152.158 367.409,-155.057 373.045,-151.384 368.105,-150.611 368.105,-150.611 368.105,-150.611 373.045,-151.384 368.801,-146.165 377.984,-152.158 377.984,-152.158"/>
</g>
<!-- 2&#45;&gt;3 -->
<g id="edge9" class="edge"><title>2&#45;&gt;3</title>
<path fill="none" stroke="black" d="M267.01,-108.034C298.716,-117.943 338.855,-130.486 372.113,-140.879"/>
<polygon fill="black" stroke="black" points="381.745,-143.889 370.858,-145.202 376.973,-142.398 372.201,-140.906 372.201,-140.906 372.201,-140.906 376.973,-142.398 373.543,-136.611 381.745,-143.889 381.745,-143.889"/>
</g>
<!-- 4&#45;&gt;3 -->
<g id="edge10" class="edge"><title>4&#45;&gt;3</title>
<path fill="none" stroke="black" d="M436.5,-108.303C436.5,-116.017 436.5,-125.288 436.5,-133.888"/>
<polygon fill="black" stroke="black" points="436.5,-143.896 432,-133.896 436.5,-138.896 436.5,-133.896 436.5,-133.896 436.5,-133.896 436.5,-138.896 441,-133.896 436.5,-143.896 436.5,-143.896"/>
</g>
<!-- 5&#45;&gt;3 -->
<g id="edge11" class="edge"><title>5&#45;&gt;3</title>
<path fill="none" stroke="black" d="M567.179,-108.124C543.319,-117.778 513.328,-129.913 488.097,-140.122"/>
<polygon fill="black" stroke="black" points="478.683,-143.932 486.265,-136.009 483.318,-142.056 487.953,-140.181 487.953,-140.181 487.953,-140.181 483.318,-142.056 489.641,-144.352 478.683,-143.932 478.683,-143.932"/>
</g>
<!-- 6&#45;&gt;3 -->
<g id="edge12" class="edge"><title>6&#45;&gt;3</title>
<path fill="none" stroke="black" d="M688.933,-106.797C633.774,-118.64 558.826,-134.734 504.947,-146.303"/>
<polygon fill="black" stroke="black" points="495.141,-148.408 503.973,-141.909 500.03,-147.359 504.918,-146.309 504.918,-146.309 504.918,-146.309 500.03,-147.359 505.863,-150.709 495.141,-148.408 495.141,-148.408"/>
</g>
<!-- 7&#45;&gt;3 -->
<g id="edge13" class="edge"><title>7&#45;&gt;3</title>
<path fill="none" stroke="black" d="M853.792,-106.555C850.996,-107.058 848.224,-107.542 845.5,-108 726.495,-128.017 586.909,-144.65 505.423,-153.678"/>
<polygon fill="black" stroke="black" points="495.293,-154.794 504.74,-149.226 500.263,-154.247 505.232,-153.699 505.232,-153.699 505.232,-153.699 500.263,-154.247 505.725,-158.172 495.293,-154.794 495.293,-154.794"/>
</g>
</g>
</svg>
