<?xml version="1.0" encoding="UTF-8" standalone="no"?>
<!DOCTYPE svg PUBLIC "-//W3C//DTD SVG 1.1//EN"
 "http://www.w3.org/Graphics/SVG/1.1/DTD/svg11.dtd">
<!-- Generated by graphviz version 2.38.0 (20140413.2041)
 -->
<!-- Title: packages Pages: 1 -->
<svg width="1469pt" height="188pt"
 viewBox="0.00 0.00 1468.50 188.00" xmlns="http://www.w3.org/2000/svg" xmlns:xlink="http://www.w3.org/1999/xlink">
<g id="graph0" class="graph" transform="scale(1 1) rotate(0) translate(4 184)">
<title>packages</title>
<polygon fill="white" stroke="none" points="-4,4 -4,-184 1464.5,-184 1464.5,4 -4,4"/>
<!-- 0 -->
<g id="node1" class="node"><title>0</title>
<polygon fill="none" stroke="black" points="435.5,-36 381.5,-36 381.5,-0 435.5,-0 435.5,-36"/>
<text text-anchor="middle" x="408.5" y="-14.3" font-family="Times New Roman,serif" font-size="14.00">sim2</text>
</g>
<!-- 1 -->
<g id="node2" class="node"><title>1</title>
<polygon fill="none" stroke="black" points="569.5,-36 453.5,-36 453.5,-0 569.5,-0 569.5,-36"/>
<text text-anchor="middle" x="511.5" y="-14.3" font-family="Times New Roman,serif" font-size="14.00">sim2.components</text>
</g>
<!-- 2 -->
<g id="node3" class="node"><title>2</title>
<polygon fill="none" stroke="black" points="151,-108 0,-108 0,-72 151,-72 151,-108"/>
<text text-anchor="middle" x="75.5" y="-86.3" font-family="Times New Roman,serif" font-size="14.00">sim2.components.boiler</text>
</g>
<!-- 1&#45;&gt;2 -->
<g id="edge1" class="edge"><title>1&#45;&gt;2</title>
<path fill="none" stroke="black" d="M453.493,-34.1824C450.459,-34.8309 447.448,-35.442 444.5,-36 322.239,-59.1417 287.252,-51.7302 161.059,-71.8173"/>
<polygon fill="black" stroke="black" points="151.008,-73.4442 160.16,-67.4041 155.943,-72.6453 160.879,-71.8463 160.879,-71.8463 160.879,-71.8463 155.943,-72.6453 161.598,-76.2885 151.008,-73.4442 151.008,-73.4442"/>
</g>
<!-- 3 -->
<g id="node4" class="node"><title>3</title>
<polygon fill="none" stroke="black" points="346,-108 169,-108 169,-72 346,-72 346,-108"/>
<text text-anchor="middle" x="257.5" y="-86.3" font-family="Times New Roman,serif" font-size="14.00">sim2.components.condenser</text>
</g>
<!-- 1&#45;&gt;3 -->
<g id="edge2" class="edge"><title>1&#45;&gt;3</title>
<path fill="none" stroke="black" d="M453.227,-35.0594C416.366,-45.2179 368.452,-58.4227 329.257,-69.2245"/>
<polygon fill="black" stroke="black" points="319.492,-71.9156 327.937,-64.9204 324.312,-70.5871 329.133,-69.2587 329.133,-69.2587 329.133,-69.2587 324.312,-70.5871 330.328,-73.5969 319.492,-71.9156 319.492,-71.9156"/>
</g>
<!-- 4 -->
<g id="node5" class="node"><title>4</title>
<polygon fill="none" stroke="black" points="585,-180 438,-180 438,-144 585,-144 585,-180"/>
<text text-anchor="middle" x="511.5" y="-158.3" font-family="Times New Roman,serif" font-size="14.00">sim2.components.node</text>
</g>
<!-- 1&#45;&gt;4 -->
<g id="edge3" class="edge"><title>1&#45;&gt;4</title>
<path fill="none" stroke="black" d="M459.324,-36.0913C431.503,-46.3724 401.4,-59.7917 393.5,-72 384.808,-85.433 384.808,-94.567 393.5,-108 402.391,-121.74 415.782,-131.953 430.391,-139.532"/>
<polygon fill="black" stroke="black" points="439.615,-143.919 428.652,-143.688 435.1,-141.772 430.585,-139.624 430.585,-139.624 430.585,-139.624 435.1,-141.772 432.518,-135.56 439.615,-143.919 439.615,-143.919"/>
</g>
<!-- 5 -->
<g id="node6" class="node"><title>5</title>
<polygon fill="none" stroke="black" points="620.5,-108 402.5,-108 402.5,-72 620.5,-72 620.5,-108"/>
<text text-anchor="middle" x="511.5" y="-86.3" font-family="Times New Roman,serif" font-size="14.00">sim2.components.openedheaterdw0</text>
</g>
<!-- 1&#45;&gt;5 -->
<g id="edge4" class="edge"><title>1&#45;&gt;5</title>
<path fill="none" stroke="black" d="M511.5,-36.3034C511.5,-44.0173 511.5,-53.2875 511.5,-61.8876"/>
<polygon fill="black" stroke="black" points="511.5,-71.8957 507,-61.8956 511.5,-66.8957 511.5,-61.8957 511.5,-61.8957 511.5,-61.8957 511.5,-66.8957 516,-61.8957 511.5,-71.8957 511.5,-71.8957"/>
</g>
<!-- 6 -->
<g id="node7" class="node"><title>6</title>
<polygon fill="none" stroke="black" points="790.5,-108 638.5,-108 638.5,-72 790.5,-72 790.5,-108"/>
<text text-anchor="middle" x="714.5" y="-86.3" font-family="Times New Roman,serif" font-size="14.00">sim2.components.pump</text>
</g>
<!-- 1&#45;&gt;6 -->
<g id="edge5" class="edge"><title>1&#45;&gt;6</title>
<path fill="none" stroke="black" d="M560.9,-36.0344C589.387,-45.8575 625.386,-58.2709 655.371,-68.6109"/>
<polygon fill="black" stroke="black" points="664.879,-71.8892 653.958,-72.8834 660.152,-70.2592 655.425,-68.6292 655.425,-68.6292 655.425,-68.6292 660.152,-70.2592 656.892,-64.375 664.879,-71.8892 664.879,-71.8892"/>
</g>
<!-- 7 -->
<g id="node8" class="node"><title>7</title>
<polygon fill="none" stroke="black" points="986,-108 809,-108 809,-72 986,-72 986,-108"/>
<text text-anchor="middle" x="897.5" y="-86.3" font-family="Times New Roman,serif" font-size="14.00">sim2.components.turbineex0</text>
</g>
<!-- 1&#45;&gt;7 -->
<g id="edge6" class="edge"><title>1&#45;&gt;7</title>
<path fill="none" stroke="black" d="M569.706,-29.5555C630.252,-40.5353 726.148,-57.9258 798.609,-71.0664"/>
<polygon fill="black" stroke="black" points="808.672,-72.8913 798.03,-75.5347 803.752,-71.9991 798.833,-71.1069 798.833,-71.1069 798.833,-71.1069 803.752,-71.9991 799.636,-66.6791 808.672,-72.8913 808.672,-72.8913"/>
</g>
<!-- 8 -->
<g id="node9" class="node"><title>8</title>
<polygon fill="none" stroke="black" points="1181,-108 1004,-108 1004,-72 1181,-72 1181,-108"/>
<text text-anchor="middle" x="1092.5" y="-86.3" font-family="Times New Roman,serif" font-size="14.00">sim2.components.turbineex1</text>
</g>
<!-- 1&#45;&gt;8 -->
<g id="edge7" class="edge"><title>1&#45;&gt;8</title>
<path fill="none" stroke="black" d="M569.638,-24.1965C658.649,-32.4134 834.256,-49.6518 993.862,-71.9612"/>
<polygon fill="black" stroke="black" points="1003.87,-73.3692 993.336,-76.4314 998.914,-72.6723 993.963,-71.9753 993.963,-71.9753 993.963,-71.9753 998.914,-72.6723 994.59,-67.5193 1003.87,-73.3692 1003.87,-73.3692"/>
</g>
<!-- 2&#45;&gt;4 -->
<g id="edge8" class="edge"><title>2&#45;&gt;4</title>
<path fill="none" stroke="black" d="M151.022,-106.471C153.882,-106.997 156.716,-107.509 159.5,-108 250.862,-124.113 356.114,-139.553 427.551,-149.569"/>
<polygon fill="black" stroke="black" points="437.839,-151.007 427.313,-154.08 432.887,-150.315 427.935,-149.623 427.935,-149.623 427.935,-149.623 432.887,-150.315 428.558,-145.166 437.839,-151.007 437.839,-151.007"/>
</g>
<!-- 3&#45;&gt;4 -->
<g id="edge9" class="edge"><title>3&#45;&gt;4</title>
<path fill="none" stroke="black" d="M319.311,-108.034C355.572,-118.028 401.56,-130.702 439.459,-141.146"/>
<polygon fill="black" stroke="black" points="449.412,-143.889 438.576,-145.571 444.592,-142.561 439.772,-141.232 439.772,-141.232 439.772,-141.232 444.592,-142.561 440.967,-136.894 449.412,-143.889 449.412,-143.889"/>
</g>
<!-- 5&#45;&gt;4 -->
<g id="edge10" class="edge"><title>5&#45;&gt;4</title>
<path fill="none" stroke="black" d="M511.5,-108.303C511.5,-116.017 511.5,-125.288 511.5,-133.888"/>
<polygon fill="black" stroke="black" points="511.5,-143.896 507,-133.896 511.5,-138.896 511.5,-133.896 511.5,-133.896 511.5,-133.896 511.5,-138.896 516,-133.896 511.5,-143.896 511.5,-143.896"/>
</g>
<!-- 6&#45;&gt;4 -->
<g id="edge11" class="edge"><title>6&#45;&gt;4</title>
<path fill="none" stroke="black" d="M665.1,-108.034C636.613,-117.858 600.614,-130.271 570.629,-140.611"/>
<polygon fill="black" stroke="black" points="561.121,-143.889 569.108,-136.375 565.848,-142.259 570.575,-140.629 570.575,-140.629 570.575,-140.629 565.848,-142.259 572.042,-144.883 561.121,-143.889 561.121,-143.889"/>
</g>
<!-- 7&#45;&gt;4 -->
<g id="edge12" class="edge"><title>7&#45;&gt;4</title>
<path fill="none" stroke="black" d="M808.944,-107.059C744.61,-118.726 658.12,-134.411 594.992,-145.859"/>
<polygon fill="black" stroke="black" points="585.068,-147.659 594.105,-141.446 589.988,-146.766 594.908,-145.874 594.908,-145.874 594.908,-145.874 589.988,-146.766 595.711,-150.302 585.068,-147.659 585.068,-147.659"/>
</g>
<!-- 8&#45;&gt;4 -->
<g id="edge13" class="edge"><title>8&#45;&gt;4</title>
<path fill="none" stroke="black" d="M1003.87,-106.631C1000.71,-107.106 997.578,-107.565 994.5,-108 854.939,-127.742 691.801,-144.291 595.314,-153.405"/>
<polygon fill="black" stroke="black" points="585.325,-154.345 594.859,-148.928 590.303,-153.877 595.281,-153.408 595.281,-153.408 595.281,-153.408 590.303,-153.877 595.702,-157.889 585.325,-154.345 585.325,-154.345"/>
</g>
<!-- 9 -->
<g id="node10" class="node"><title>9</title>
<polygon fill="none" stroke="black" points="1326.5,-36 1240.5,-36 1240.5,-0 1326.5,-0 1326.5,-36"/>
<text text-anchor="middle" x="1283.5" y="-14.3" font-family="Times New Roman,serif" font-size="14.00">sim2.rankine</text>
</g>
<!-- 13 -->
<g id="node14" class="node"><title>13</title>
<polygon fill="none" stroke="black" points="1367.5,-108 1199.5,-108 1199.5,-72 1367.5,-72 1367.5,-108"/>
<text text-anchor="middle" x="1283.5" y="-86.3" font-family="Times New Roman,serif" font-size="14.00">sim2.rankinecycle.simcycle</text>
</g>
<!-- 9&#45;&gt;13 -->
<g id="edge14" class="edge"><title>9&#45;&gt;13</title>
<path fill="none" stroke="black" d="M1283.5,-36.3034C1283.5,-44.0173 1283.5,-53.2875 1283.5,-61.8876"/>
<polygon fill="black" stroke="black" points="1283.5,-71.8957 1279,-61.8956 1283.5,-66.8957 1283.5,-61.8957 1283.5,-61.8957 1283.5,-61.8957 1283.5,-66.8957 1288,-61.8957 1283.5,-71.8957 1283.5,-71.8957"/>
</g>
<!-- 10 -->
<g id="node11" class="node"><title>10</title>
<polygon fill="none" stroke="black" points="1460.5,-36 1344.5,-36 1344.5,-0 1460.5,-0 1460.5,-36"/>
<text text-anchor="middle" x="1402.5" y="-14.3" font-family="Times New Roman,serif" font-size="14.00">sim2.rankinecycle</text>
</g>
<!-- 11 -->
<g id="node12" class="node"><title>11</title>
<polygon fill="none" stroke="black" points="1272,-180 1113,-180 1113,-144 1272,-144 1272,-180"/>
<text text-anchor="middle" x="1192.5" y="-158.3" font-family="Times New Roman,serif" font-size="14.00">sim2.rankinecycle.iocycle</text>
</g>
<!-- 12 -->
<g id="node13" class="node"><title>12</title>
<polygon fill="none" stroke="black" points="1457,-180 1290,-180 1290,-144 1457,-144 1457,-180"/>
<text text-anchor="middle" x="1373.5" y="-158.3" font-family="Times New Roman,serif" font-size="14.00">sim2.rankinecycle.objcycle</text>
</g>
<!-- 13&#45;&gt;11 -->
<g id="edge15" class="edge"><title>13&#45;&gt;11</title>
<path fill="none" stroke="black" d="M1261.01,-108.303C1249.54,-117.119 1235.44,-127.968 1223.02,-137.526"/>
<polygon fill="black" stroke="black" points="1214.74,-143.896 1219.92,-134.232 1218.7,-140.847 1222.66,-137.799 1222.66,-137.799 1222.66,-137.799 1218.7,-140.847 1225.41,-141.365 1214.74,-143.896 1214.74,-143.896"/>
</g>
<!-- 13&#45;&gt;12 -->
<g id="edge16" class="edge"><title>13&#45;&gt;12</title>
<path fill="none" stroke="black" d="M1305.75,-108.303C1317.08,-117.119 1331.03,-127.968 1343.32,-137.526"/>
<polygon fill="black" stroke="black" points="1351.51,-143.896 1340.85,-141.308 1347.56,-140.826 1343.62,-137.756 1343.62,-137.756 1343.62,-137.756 1347.56,-140.826 1346.38,-134.204 1351.51,-143.896 1351.51,-143.896"/>
</g>
</g>
</svg>
