<?xml version="1.0" encoding="UTF-8" standalone="no"?>
<!DOCTYPE svg PUBLIC "-//W3C//DTD SVG 1.1//EN"
 "http://www.w3.org/Graphics/SVG/1.1/DTD/svg11.dtd">
<!-- Generated by graphviz version 2.38.0 (20140413.2041)
 -->
<!-- Title: packages Pages: 1 -->
<svg width="185pt" height="188pt"
 viewBox="0.00 0.00 185.00 188.00" xmlns="http://www.w3.org/2000/svg" xmlns:xlink="http://www.w3.org/1999/xlink">
<g id="graph0" class="graph" transform="scale(1 1) rotate(0) translate(4 184)">
<title>packages</title>
<polygon fill="white" stroke="none" points="-4,4 -4,-184 181,-184 181,4 -4,4"/>
<!-- 0 -->
<g id="node1" class="node"><title>0</title>
<polygon fill="none" stroke="black" points="54,-36 0,-36 0,-0 54,-0 54,-36"/>
<text text-anchor="middle" x="27" y="-14.3" font-family="Times New Roman,serif" font-size="14.00">cycle</text>
</g>
<!-- 1 -->
<g id="node2" class="node"><title>1</title>
<polygon fill="none" stroke="black" points="177,-180 65,-180 65,-144 177,-144 177,-180"/>
<text text-anchor="middle" x="121" y="-158.3" font-family="Times New Roman,serif" font-size="14.00">cycle.createcycle</text>
</g>
<!-- 2 -->
<g id="node3" class="node"><title>2</title>
<polygon fill="none" stroke="black" points="169.5,-108 72.5,-108 72.5,-72 169.5,-72 169.5,-108"/>
<text text-anchor="middle" x="121" y="-86.3" font-family="Times New Roman,serif" font-size="14.00">cycle.objcycle</text>
</g>
<!-- 2&#45;&gt;1 -->
<g id="edge1" class="edge"><title>2&#45;&gt;1</title>
<path fill="none" stroke="black" d="M121,-108.303C121,-116.017 121,-125.288 121,-133.888"/>
<polygon fill="black" stroke="black" points="121,-143.896 116.5,-133.896 121,-138.896 121,-133.896 121,-133.896 121,-133.896 121,-138.896 125.5,-133.896 121,-143.896 121,-143.896"/>
</g>
<!-- 3 -->
<g id="node4" class="node"><title>3</title>
<polygon fill="none" stroke="black" points="170,-36 72,-36 72,-0 170,-0 170,-36"/>
<text text-anchor="middle" x="121" y="-14.3" font-family="Times New Roman,serif" font-size="14.00">cycle.simcycle</text>
</g>
<!-- 3&#45;&gt;2 -->
<g id="edge2" class="edge"><title>3&#45;&gt;2</title>
<path fill="none" stroke="black" d="M121,-36.3034C121,-44.0173 121,-53.2875 121,-61.8876"/>
<polygon fill="black" stroke="black" points="121,-71.8957 116.5,-61.8956 121,-66.8957 121,-61.8957 121,-61.8957 121,-61.8957 121,-66.8957 125.5,-61.8957 121,-71.8957 121,-71.8957"/>
</g>
</g>
</svg>
