<?xml version="1.0" encoding="UTF-8" standalone="no"?>
<!DOCTYPE svg PUBLIC "-//W3C//DTD SVG 1.1//EN"
 "http://www.w3.org/Graphics/SVG/1.1/DTD/svg11.dtd">
<!-- Generated by graphviz version 2.38.0 (20140413.2041)
 -->
<!-- Title: packages Pages: 1 -->
<svg width="1001pt" height="332pt"
 viewBox="0.00 0.00 1000.79 332.00" xmlns="http://www.w3.org/2000/svg" xmlns:xlink="http://www.w3.org/1999/xlink">
<g id="graph0" class="graph" transform="scale(1 1) rotate(0) translate(4 328)">
<title>packages</title>
<polygon fill="white" stroke="none" points="-4,4 -4,-328 996.785,-328 996.785,4 -4,4"/>
<!-- 1 -->
<g id="node1" class="node"><title>1</title>
<polygon fill="none" stroke="black" points="525.5,-36 439.5,-36 439.5,-0 525.5,-0 525.5,-36"/>
<text text-anchor="middle" x="482.5" y="-14.3" font-family="Times New Roman,serif" font-size="14.00">components</text>
</g>
<!-- 2 -->
<g id="node2" class="node"><title>2</title>
<polygon fill="none" stroke="black" points="590.5,-252 426.5,-252 426.5,-216 590.5,-216 590.5,-252"/>
<text text-anchor="middle" x="508.5" y="-230.3" font-family="Times New Roman,serif" font-size="14.00">components.BComponent</text>
</g>
<!-- 5 -->
<g id="node5" class="node"><title>5</title>
<polygon fill="none" stroke="black" points="622,-324 505,-324 505,-288 622,-288 622,-324"/>
<text text-anchor="middle" x="563.5" y="-302.3" font-family="Times New Roman,serif" font-size="14.00">components.node</text>
</g>
<!-- 2&#45;&gt;5 -->
<g id="edge1" class="edge"><title>2&#45;&gt;5</title>
<path fill="none" stroke="black" d="M522.096,-252.303C528.623,-260.611 536.568,-270.723 543.747,-279.859"/>
<polygon fill="black" stroke="black" points="550.061,-287.896 540.344,-282.813 546.972,-283.964 543.883,-280.032 543.883,-280.032 543.883,-280.032 546.972,-283.964 547.421,-277.252 550.061,-287.896 550.061,-287.896"/>
</g>
<!-- 3 -->
<g id="node3" class="node"><title>3</title>
<polygon fill="none" stroke="black" points="121,-180 0,-180 0,-144 121,-144 121,-180"/>
<text text-anchor="middle" x="60.5" y="-158.3" font-family="Times New Roman,serif" font-size="14.00">components.boiler</text>
</g>
<!-- 3&#45;&gt;2 -->
<g id="edge2" class="edge"><title>3&#45;&gt;2</title>
<path fill="none" stroke="black" d="M121.005,-178.279C123.871,-178.886 126.714,-179.463 129.5,-180 226.745,-198.728 339.237,-213.615 416.252,-222.785"/>
<polygon fill="black" stroke="black" points="426.406,-223.985 415.947,-227.28 421.44,-223.398 416.475,-222.811 416.475,-222.811 416.475,-222.811 421.44,-223.398 417.003,-218.342 426.406,-223.985 426.406,-223.985"/>
</g>
<!-- 3&#45;&gt;5 -->
<g id="edge3" class="edge"><title>3&#45;&gt;5</title>
<path fill="none" stroke="black" d="M104.373,-180.11C154.944,-199.396 240.83,-230.815 316.5,-252 376.064,-268.676 444.965,-283.064 494.837,-292.623"/>
<polygon fill="black" stroke="black" points="504.864,-294.529 494.199,-297.083 499.952,-293.596 495.04,-292.662 495.04,-292.662 495.04,-292.662 499.952,-293.596 495.88,-288.241 504.864,-294.529 504.864,-294.529"/>
</g>
<!-- 4 -->
<g id="node4" class="node"><title>4</title>
<polygon fill="none" stroke="black" points="286,-180 139,-180 139,-144 286,-144 286,-180"/>
<text text-anchor="middle" x="212.5" y="-158.3" font-family="Times New Roman,serif" font-size="14.00">components.condenser</text>
</g>
<!-- 4&#45;&gt;2 -->
<g id="edge4" class="edge"><title>4&#45;&gt;2</title>
<path fill="none" stroke="black" d="M284.531,-180.034C327.407,-190.174 381.954,-203.073 426.481,-213.604"/>
<polygon fill="black" stroke="black" points="436.403,-215.95 425.635,-218.028 431.537,-214.799 426.671,-213.648 426.671,-213.648 426.671,-213.648 431.537,-214.799 427.707,-209.269 436.403,-215.95 436.403,-215.95"/>
</g>
<!-- 4&#45;&gt;5 -->
<g id="edge5" class="edge"><title>4&#45;&gt;5</title>
<path fill="none" stroke="black" d="M244.636,-180.155C281.06,-199.197 342.528,-230.125 397.5,-252 429.078,-264.566 464.909,-276.31 495.178,-285.533"/>
<polygon fill="black" stroke="black" points="504.798,-288.437 493.924,-289.855 500.012,-286.992 495.225,-285.547 495.225,-285.547 495.225,-285.547 500.012,-286.992 496.525,-281.239 504.798,-288.437 504.798,-288.437"/>
</g>
<!-- 6 -->
<g id="node6" class="node"><title>6</title>
<polygon fill="none" stroke="black" points="492.5,-180 304.5,-180 304.5,-144 492.5,-144 492.5,-180"/>
<text text-anchor="middle" x="398.5" y="-158.3" font-family="Times New Roman,serif" font-size="14.00">components.openedheaterdw0</text>
</g>
<!-- 6&#45;&gt;2 -->
<g id="edge6" class="edge"><title>6&#45;&gt;2</title>
<path fill="none" stroke="black" d="M425.409,-180.124C439.658,-189.192 457.346,-200.448 472.736,-210.241"/>
<polygon fill="black" stroke="black" points="481.488,-215.81 470.635,-214.238 477.269,-213.126 473.051,-210.441 473.051,-210.441 473.051,-210.441 477.269,-213.126 475.467,-206.645 481.488,-215.81 481.488,-215.81"/>
</g>
<!-- 6&#45;&gt;5 -->
<g id="edge7" class="edge"><title>6&#45;&gt;5</title>
<path fill="none" stroke="black" d="M397.513,-180.224C397.333,-199.909 400.069,-231.983 417.5,-252 437.222,-274.648 467.416,-287.621 495.238,-295.051"/>
<polygon fill="black" stroke="black" points="504.959,-297.455 494.171,-299.423 500.105,-296.254 495.251,-295.054 495.251,-295.054 495.251,-295.054 500.105,-296.254 496.331,-290.686 504.959,-297.455 504.959,-297.455"/>
</g>
<!-- 7 -->
<g id="node7" class="node"><title>7</title>
<polygon fill="none" stroke="black" points="632.5,-180 510.5,-180 510.5,-144 632.5,-144 632.5,-180"/>
<text text-anchor="middle" x="571.5" y="-158.3" font-family="Times New Roman,serif" font-size="14.00">components.pump</text>
</g>
<!-- 7&#45;&gt;2 -->
<g id="edge8" class="edge"><title>7&#45;&gt;2</title>
<path fill="none" stroke="black" d="M555.927,-180.303C548.298,-188.78 538.977,-199.136 530.624,-208.417"/>
<polygon fill="black" stroke="black" points="523.894,-215.896 527.239,-205.452 527.239,-212.179 530.584,-208.463 530.584,-208.463 530.584,-208.463 527.239,-212.179 533.928,-211.473 523.894,-215.896 523.894,-215.896"/>
</g>
<!-- 7&#45;&gt;5 -->
<g id="edge9" class="edge"><title>7&#45;&gt;5</title>
<path fill="none" stroke="black" d="M583.387,-180.275C589.513,-190.235 596.345,-203.273 599.5,-216 603.35,-231.53 604.203,-236.707 599.5,-252 596.491,-261.785 590.993,-271.384 585.184,-279.666"/>
<polygon fill="black" stroke="black" points="579.11,-287.774 581.505,-277.072 582.108,-283.772 585.106,-279.771 585.106,-279.771 585.106,-279.771 582.108,-283.772 588.707,-282.469 579.11,-287.774 579.11,-287.774"/>
</g>
<!-- 8 -->
<g id="node8" class="node"><title>8</title>
<polygon fill="none" stroke="black" points="798,-180 651,-180 651,-144 798,-144 798,-180"/>
<text text-anchor="middle" x="724.5" y="-158.3" font-family="Times New Roman,serif" font-size="14.00">components.turbineex0</text>
</g>
<!-- 8&#45;&gt;2 -->
<g id="edge10" class="edge"><title>8&#45;&gt;2</title>
<path fill="none" stroke="black" d="M671.937,-180.034C641.494,-189.9 602.989,-202.378 571.001,-212.745"/>
<polygon fill="black" stroke="black" points="561.299,-215.889 569.425,-208.525 566.056,-214.348 570.812,-212.806 570.812,-212.806 570.812,-212.806 566.056,-214.348 572.199,-217.087 561.299,-215.889 561.299,-215.889"/>
</g>
<!-- 8&#45;&gt;5 -->
<g id="edge11" class="edge"><title>8&#45;&gt;5</title>
<path fill="none" stroke="black" d="M705.08,-180.129C676.552,-205.289 623.199,-252.346 590.758,-280.958"/>
<polygon fill="black" stroke="black" points="582.989,-287.811 587.512,-277.821 586.739,-284.503 590.489,-281.196 590.489,-281.196 590.489,-281.196 586.739,-284.503 593.466,-284.571 582.989,-287.811 582.989,-287.811"/>
</g>
<!-- 9 -->
<g id="node9" class="node"><title>9</title>
<polygon fill="none" stroke="black" points="963,-180 816,-180 816,-144 963,-144 963,-180"/>
<text text-anchor="middle" x="889.5" y="-158.3" font-family="Times New Roman,serif" font-size="14.00">components.turbineex1</text>
</g>
<!-- 9&#45;&gt;2 -->
<g id="edge12" class="edge"><title>9&#45;&gt;2</title>
<path fill="none" stroke="black" d="M815.763,-178.392C812.974,-178.941 810.213,-179.478 807.5,-180 738.373,-193.289 660.014,-207.134 600.86,-217.34"/>
<polygon fill="black" stroke="black" points="590.792,-219.074 599.883,-212.942 595.719,-218.225 600.647,-217.377 600.647,-217.377 600.647,-217.377 595.719,-218.225 601.41,-221.811 590.792,-219.074 590.792,-219.074"/>
</g>
<!-- 9&#45;&gt;5 -->
<g id="edge13" class="edge"><title>9&#45;&gt;5</title>
<path fill="none" stroke="black" d="M850.177,-180.129C790.375,-206.177 676.692,-255.696 611.901,-283.917"/>
<polygon fill="black" stroke="black" points="602.709,-287.921 610.08,-279.802 607.293,-285.925 611.877,-283.928 611.877,-283.928 611.877,-283.928 607.293,-285.925 613.674,-288.054 602.709,-287.921 602.709,-287.921"/>
</g>
<!-- 10 -->
<g id="node10" class="node"><title>10</title>
<polygon fill="none" stroke="black" points="599.5,-36 543.5,-36 543.5,-0 599.5,-0 599.5,-36"/>
<text text-anchor="middle" x="571.5" y="-14.3" font-family="Times New Roman,serif" font-size="14.00">rankine</text>
</g>
<!-- 11 -->
<g id="node11" class="node"><title>11</title>
<polygon fill="none" stroke="black" points="618,-108 525,-108 525,-72 618,-72 618,-108"/>
<text text-anchor="middle" x="571.5" y="-86.3" font-family="Times New Roman,serif" font-size="14.00">rankine_cycle</text>
</g>
<!-- 10&#45;&gt;11 -->
<g id="edge14" class="edge"><title>10&#45;&gt;11</title>
<path fill="none" stroke="black" d="M571.5,-36.3034C571.5,-44.0173 571.5,-53.2875 571.5,-61.8876"/>
<polygon fill="black" stroke="black" points="571.5,-71.8957 567,-61.8956 571.5,-66.8957 571.5,-61.8957 571.5,-61.8957 571.5,-61.8957 571.5,-66.8957 576,-61.8957 571.5,-71.8957 571.5,-71.8957"/>
</g>
<!-- 11&#45;&gt;3 -->
<g id="edge15" class="edge"><title>11&#45;&gt;3</title>
<path fill="none" stroke="black" d="M524.765,-94.7121C445.628,-101.409 280.091,-117.193 131.575,-143.73"/>
<polygon fill="black" stroke="black" points="121.366,-145.576 130.406,-139.368 126.286,-144.686 131.206,-143.796 131.206,-143.796 131.206,-143.796 126.286,-144.686 132.007,-148.225 121.366,-145.576 121.366,-145.576"/>
</g>
<!-- 11&#45;&gt;4 -->
<g id="edge16" class="edge"><title>11&#45;&gt;4</title>
<path fill="none" stroke="black" d="M524.584,-99.8271C471.68,-109.822 382.807,-126.733 296.252,-143.863"/>
<polygon fill="black" stroke="black" points="286.257,-145.844 295.191,-139.486 291.161,-144.872 296.066,-143.9 296.066,-143.9 296.066,-143.9 291.161,-144.872 296.941,-148.314 286.257,-145.844 286.257,-145.844"/>
</g>
<!-- 11&#45;&gt;5 -->
<g id="edge17" class="edge"><title>11&#45;&gt;5</title>
<path fill="none" stroke="black" d="M618.103,-93.7565C718.781,-100.187 949.414,-117.662 972.5,-144 1072.06,-257.579 773.198,-291.77 632.473,-301.438"/>
<polygon fill="black" stroke="black" points="622.213,-302.118 631.894,-296.966 627.203,-301.787 632.192,-301.456 632.192,-301.456 632.192,-301.456 627.203,-301.787 632.489,-305.947 622.213,-302.118 622.213,-302.118"/>
</g>
<!-- 11&#45;&gt;6 -->
<g id="edge18" class="edge"><title>11&#45;&gt;6</title>
<path fill="none" stroke="black" d="M529.179,-108.124C505.319,-117.778 475.328,-129.913 450.097,-140.122"/>
<polygon fill="black" stroke="black" points="440.683,-143.932 448.265,-136.009 445.318,-142.056 449.953,-140.181 449.953,-140.181 449.953,-140.181 445.318,-142.056 451.641,-144.352 440.683,-143.932 440.683,-143.932"/>
</g>
<!-- 11&#45;&gt;7 -->
<g id="edge19" class="edge"><title>11&#45;&gt;7</title>
<path fill="none" stroke="black" d="M571.5,-108.303C571.5,-116.017 571.5,-125.288 571.5,-133.888"/>
<polygon fill="black" stroke="black" points="571.5,-143.896 567,-133.896 571.5,-138.896 571.5,-133.896 571.5,-133.896 571.5,-133.896 571.5,-138.896 576,-133.896 571.5,-143.896 571.5,-143.896"/>
</g>
<!-- 11&#45;&gt;8 -->
<g id="edge20" class="edge"><title>11&#45;&gt;8</title>
<path fill="none" stroke="black" d="M608.928,-108.124C629.751,-117.651 655.854,-129.593 677.981,-139.717"/>
<polygon fill="black" stroke="black" points="687.194,-143.932 676.228,-143.863 682.647,-141.851 678.1,-139.771 678.1,-139.771 678.1,-139.771 682.647,-141.851 679.972,-135.679 687.194,-143.932 687.194,-143.932"/>
</g>
<!-- 11&#45;&gt;9 -->
<g id="edge21" class="edge"><title>11&#45;&gt;9</title>
<path fill="none" stroke="black" d="M618.08,-101.254C667.351,-112.099 746.108,-129.436 806.124,-142.647"/>
<polygon fill="black" stroke="black" points="815.965,-144.813 805.231,-147.058 811.082,-143.738 806.199,-142.663 806.199,-142.663 806.199,-142.663 811.082,-143.738 807.166,-138.268 815.965,-144.813 815.965,-144.813"/>
</g>
</g>
</svg>
