<?xml version="1.0" encoding="UTF-8" standalone="no"?>
<!DOCTYPE svg PUBLIC "-//W3C//DTD SVG 1.1//EN"
 "http://www.w3.org/Graphics/SVG/1.1/DTD/svg11.dtd">
<!-- Generated by graphviz version 2.38.0 (20140413.2041)
 -->
<!-- Title: classes Pages: 1 -->
<svg width="1133pt" height="664pt"
 viewBox="0.00 0.00 1132.50 664.00" xmlns="http://www.w3.org/2000/svg" xmlns:xlink="http://www.w3.org/1999/xlink">
<g id="graph0" class="graph" transform="scale(1 1) rotate(0) translate(4 660)">
<title>classes</title>
<polygon fill="white" stroke="none" points="-4,4 -4,-660 1128.5,-660 1128.5,4 -4,4"/>
<!-- 0 -->
<g id="node1" class="node"><title>0</title>
<polygon fill="none" stroke="black" points="0,-60.5 0,-369.5 116,-369.5 116,-60.5 0,-60.5"/>
<text text-anchor="middle" x="58" y="-354.3" font-family="Times New Roman,serif" font-size="14.00">Node</text>
<polyline fill="none" stroke="black" points="0,-346.5 116,-346.5 "/>
<text text-anchor="start" x="8" y="-331.3" font-family="Times New Roman,serif" font-size="14.00">fdot : NoneType</text>
<text text-anchor="start" x="8" y="-316.3" font-family="Times New Roman,serif" font-size="14.00">h : NoneType</text>
<text text-anchor="start" x="8" y="-301.3" font-family="Times New Roman,serif" font-size="14.00">mdot : NoneType</text>
<text text-anchor="start" x="8" y="-286.3" font-family="Times New Roman,serif" font-size="14.00">name</text>
<text text-anchor="start" x="8" y="-271.3" font-family="Times New Roman,serif" font-size="14.00">nodeid</text>
<text text-anchor="start" x="8" y="-256.3" font-family="Times New Roman,serif" font-size="14.00">p : NoneType</text>
<text text-anchor="start" x="8" y="-241.3" font-family="Times New Roman,serif" font-size="14.00">s : NoneType</text>
<text text-anchor="start" x="8" y="-226.3" font-family="Times New Roman,serif" font-size="14.00">t : NoneType</text>
<text text-anchor="start" x="8" y="-211.3" font-family="Times New Roman,serif" font-size="14.00">title : str</text>
<text text-anchor="start" x="8" y="-196.3" font-family="Times New Roman,serif" font-size="14.00">v : NoneType</text>
<text text-anchor="start" x="8" y="-181.3" font-family="Times New Roman,serif" font-size="14.00">x : NoneType</text>
<polyline fill="none" stroke="black" points="0,-173.5 116,-173.5 "/>
<text text-anchor="start" x="8" y="-158.3" font-family="Times New Roman,serif" font-size="14.00">calmdot()</text>
<text text-anchor="start" x="8" y="-143.3" font-family="Times New Roman,serif" font-size="14.00">hs()</text>
<text text-anchor="start" x="8" y="-128.3" font-family="Times New Roman,serif" font-size="14.00">ph()</text>
<text text-anchor="start" x="8" y="-113.3" font-family="Times New Roman,serif" font-size="14.00">ps()</text>
<text text-anchor="start" x="8" y="-98.3" font-family="Times New Roman,serif" font-size="14.00">pt()</text>
<text text-anchor="start" x="8" y="-83.3" font-family="Times New Roman,serif" font-size="14.00">px()</text>
<text text-anchor="start" x="8" y="-68.3" font-family="Times New Roman,serif" font-size="14.00">tx()</text>
</g>
<!-- 1 -->
<g id="node2" class="node"><title>1</title>
<polygon fill="none" stroke="black" points="429,-481.5 429,-655.5 571,-655.5 571,-481.5 429,-481.5"/>
<text text-anchor="middle" x="500" y="-640.3" font-family="Times New Roman,serif" font-size="14.00">BComponent</text>
<polyline fill="none" stroke="black" points="429,-632.5 571,-632.5 "/>
<text text-anchor="start" x="437" y="-617.3" font-family="Times New Roman,serif" font-size="14.00">devTYPE : NoneType</text>
<text text-anchor="start" x="437" y="-602.3" font-family="Times New Roman,serif" font-size="14.00">energy : NoneType</text>
<text text-anchor="start" x="437" y="-587.3" font-family="Times New Roman,serif" font-size="14.00">fdotok</text>
<text text-anchor="start" x="437" y="-572.3" font-family="Times New Roman,serif" font-size="14.00">nodes : list</text>
<polyline fill="none" stroke="black" points="429,-564.5 571,-564.5 "/>
<text text-anchor="start" x="437" y="-549.3" font-family="Times New Roman,serif" font-size="14.00">export()</text>
<text text-anchor="start" x="437" y="-534.3" font-family="Times New Roman,serif" font-size="14.00">fdot()</text>
<text text-anchor="start" x="437" y="-519.3" font-family="Times New Roman,serif" font-size="14.00">simulate()</text>
<text text-anchor="start" x="437" y="-504.3" font-family="Times New Roman,serif" font-size="14.00">sm_energy()</text>
<text text-anchor="start" x="437" y="-489.3" font-family="Times New Roman,serif" font-size="14.00">state()</text>
</g>
<!-- 2 -->
<g id="node3" class="node"><title>2</title>
<polygon fill="none" stroke="black" points="134.5,-83 134.5,-347 231.5,-347 231.5,-83 134.5,-83"/>
<text text-anchor="middle" x="183" y="-331.8" font-family="Times New Roman,serif" font-size="14.00">Boiler</text>
<polyline fill="none" stroke="black" points="134.5,-324 231.5,-324 "/>
<text text-anchor="start" x="142.5" y="-308.8" font-family="Times New Roman,serif" font-size="14.00">QAdded</text>
<text text-anchor="start" x="142.5" y="-293.8" font-family="Times New Roman,serif" font-size="14.00">devTYPE : str</text>
<text text-anchor="start" x="142.5" y="-278.8" font-family="Times New Roman,serif" font-size="14.00">energy : str</text>
<text text-anchor="start" x="142.5" y="-263.8" font-family="Times New Roman,serif" font-size="14.00">fdotok : bool</text>
<text text-anchor="start" x="142.5" y="-248.8" font-family="Times New Roman,serif" font-size="14.00">heatAdded</text>
<text text-anchor="start" x="142.5" y="-233.8" font-family="Times New Roman,serif" font-size="14.00">inNode</text>
<text text-anchor="start" x="142.5" y="-218.8" font-family="Times New Roman,serif" font-size="14.00">name</text>
<text text-anchor="start" x="142.5" y="-203.8" font-family="Times New Roman,serif" font-size="14.00">nodes : list</text>
<text text-anchor="start" x="142.5" y="-188.8" font-family="Times New Roman,serif" font-size="14.00">outNode</text>
<text text-anchor="start" x="142.5" y="-173.8" font-family="Times New Roman,serif" font-size="14.00">type</text>
<polyline fill="none" stroke="black" points="134.5,-166 231.5,-166 "/>
<text text-anchor="start" x="142.5" y="-150.8" font-family="Times New Roman,serif" font-size="14.00">export()</text>
<text text-anchor="start" x="142.5" y="-135.8" font-family="Times New Roman,serif" font-size="14.00">fdot()</text>
<text text-anchor="start" x="142.5" y="-120.8" font-family="Times New Roman,serif" font-size="14.00">simulate()</text>
<text text-anchor="start" x="142.5" y="-105.8" font-family="Times New Roman,serif" font-size="14.00">sm_energy()</text>
<text text-anchor="start" x="142.5" y="-90.8" font-family="Times New Roman,serif" font-size="14.00">state()</text>
</g>
<!-- 2&#45;&gt;1 -->
<g id="edge1" class="edge"><title>2&#45;&gt;1</title>
<path fill="none" stroke="black" d="M199.856,-347.081C208.333,-376.573 221.023,-406.161 240,-430 285.489,-487.143 361.314,-523.356 419.374,-544.189"/>
<polygon fill="none" stroke="black" points="418.303,-547.522 428.897,-547.526 420.618,-540.915 418.303,-547.522"/>
</g>
<!-- 3 -->
<g id="node4" class="node"><title>3</title>
<polygon fill="none" stroke="black" points="249.5,-83 249.5,-347 346.5,-347 346.5,-83 249.5,-83"/>
<text text-anchor="middle" x="298" y="-331.8" font-family="Times New Roman,serif" font-size="14.00">Condenser</text>
<polyline fill="none" stroke="black" points="249.5,-324 346.5,-324 "/>
<text text-anchor="start" x="257.5" y="-308.8" font-family="Times New Roman,serif" font-size="14.00">QExtracted</text>
<text text-anchor="start" x="257.5" y="-293.8" font-family="Times New Roman,serif" font-size="14.00">devTYPE : str</text>
<text text-anchor="start" x="257.5" y="-278.8" font-family="Times New Roman,serif" font-size="14.00">energy : str</text>
<text text-anchor="start" x="257.5" y="-263.8" font-family="Times New Roman,serif" font-size="14.00">fdotok : bool</text>
<text text-anchor="start" x="257.5" y="-248.8" font-family="Times New Roman,serif" font-size="14.00">heatExtracted</text>
<text text-anchor="start" x="257.5" y="-233.8" font-family="Times New Roman,serif" font-size="14.00">inNode</text>
<text text-anchor="start" x="257.5" y="-218.8" font-family="Times New Roman,serif" font-size="14.00">name</text>
<text text-anchor="start" x="257.5" y="-203.8" font-family="Times New Roman,serif" font-size="14.00">nodes : list</text>
<text text-anchor="start" x="257.5" y="-188.8" font-family="Times New Roman,serif" font-size="14.00">outNode</text>
<text text-anchor="start" x="257.5" y="-173.8" font-family="Times New Roman,serif" font-size="14.00">type</text>
<polyline fill="none" stroke="black" points="249.5,-166 346.5,-166 "/>
<text text-anchor="start" x="257.5" y="-150.8" font-family="Times New Roman,serif" font-size="14.00">export()</text>
<text text-anchor="start" x="257.5" y="-135.8" font-family="Times New Roman,serif" font-size="14.00">fdot()</text>
<text text-anchor="start" x="257.5" y="-120.8" font-family="Times New Roman,serif" font-size="14.00">simulate()</text>
<text text-anchor="start" x="257.5" y="-105.8" font-family="Times New Roman,serif" font-size="14.00">sm_energy()</text>
<text text-anchor="start" x="257.5" y="-90.8" font-family="Times New Roman,serif" font-size="14.00">state()</text>
</g>
<!-- 3&#45;&gt;1 -->
<g id="edge2" class="edge"><title>3&#45;&gt;1</title>
<path fill="none" stroke="black" d="M320.693,-347.077C328.914,-375.622 340.025,-404.797 355,-430 372.104,-458.786 396.921,-485.41 421.204,-507.412"/>
<polygon fill="none" stroke="black" points="418.915,-510.06 428.714,-514.089 423.567,-504.829 418.915,-510.06"/>
</g>
<!-- 4 -->
<g id="node5" class="node"><title>4</title>
<polygon fill="none" stroke="black" points="364.5,-60.5 364.5,-369.5 501.5,-369.5 501.5,-60.5 364.5,-60.5"/>
<text text-anchor="middle" x="433" y="-354.3" font-family="Times New Roman,serif" font-size="14.00">OpenedheaterDw0</text>
<polyline fill="none" stroke="black" points="364.5,-346.5 501.5,-346.5 "/>
<text text-anchor="start" x="372.5" y="-331.3" font-family="Times New Roman,serif" font-size="14.00">QAdded : int</text>
<text text-anchor="start" x="372.5" y="-316.3" font-family="Times New Roman,serif" font-size="14.00">QExtracted : float, int</text>
<text text-anchor="start" x="372.5" y="-301.3" font-family="Times New Roman,serif" font-size="14.00">devTYPE : str</text>
<text text-anchor="start" x="372.5" y="-286.3" font-family="Times New Roman,serif" font-size="14.00">energy : str</text>
<text text-anchor="start" x="372.5" y="-271.3" font-family="Times New Roman,serif" font-size="14.00">fdotok : bool</text>
<text text-anchor="start" x="372.5" y="-256.3" font-family="Times New Roman,serif" font-size="14.00">heatAdded : int</text>
<text text-anchor="start" x="372.5" y="-241.3" font-family="Times New Roman,serif" font-size="14.00">heatExtracted : int</text>
<text text-anchor="start" x="372.5" y="-226.3" font-family="Times New Roman,serif" font-size="14.00">inNode</text>
<text text-anchor="start" x="372.5" y="-211.3" font-family="Times New Roman,serif" font-size="14.00">inNode_fw</text>
<text text-anchor="start" x="372.5" y="-196.3" font-family="Times New Roman,serif" font-size="14.00">name</text>
<text text-anchor="start" x="372.5" y="-181.3" font-family="Times New Roman,serif" font-size="14.00">nodes : list</text>
<text text-anchor="start" x="372.5" y="-166.3" font-family="Times New Roman,serif" font-size="14.00">outNode_fw</text>
<text text-anchor="start" x="372.5" y="-151.3" font-family="Times New Roman,serif" font-size="14.00">type</text>
<polyline fill="none" stroke="black" points="364.5,-143.5 501.5,-143.5 "/>
<text text-anchor="start" x="372.5" y="-128.3" font-family="Times New Roman,serif" font-size="14.00">export()</text>
<text text-anchor="start" x="372.5" y="-113.3" font-family="Times New Roman,serif" font-size="14.00">fdot()</text>
<text text-anchor="start" x="372.5" y="-98.3" font-family="Times New Roman,serif" font-size="14.00">simulate()</text>
<text text-anchor="start" x="372.5" y="-83.3" font-family="Times New Roman,serif" font-size="14.00">sm_energy()</text>
<text text-anchor="start" x="372.5" y="-68.3" font-family="Times New Roman,serif" font-size="14.00">state()</text>
</g>
<!-- 4&#45;&gt;1 -->
<g id="edge3" class="edge"><title>4&#45;&gt;1</title>
<path fill="none" stroke="black" d="M462.29,-369.662C468.867,-404.167 475.664,-439.827 481.645,-471.206"/>
<polygon fill="none" stroke="black" points="478.247,-472.069 483.557,-481.237 485.123,-470.758 478.247,-472.069"/>
</g>
<!-- 5 -->
<g id="node6" class="node"><title>5</title>
<polygon fill="none" stroke="black" points="519.5,-75.5 519.5,-354.5 616.5,-354.5 616.5,-75.5 519.5,-75.5"/>
<text text-anchor="middle" x="568" y="-339.3" font-family="Times New Roman,serif" font-size="14.00">Pump</text>
<polyline fill="none" stroke="black" points="519.5,-331.5 616.5,-331.5 "/>
<text text-anchor="start" x="527.5" y="-316.3" font-family="Times New Roman,serif" font-size="14.00">WRequired</text>
<text text-anchor="start" x="527.5" y="-301.3" font-family="Times New Roman,serif" font-size="14.00">devTYPE : str</text>
<text text-anchor="start" x="527.5" y="-286.3" font-family="Times New Roman,serif" font-size="14.00">ef</text>
<text text-anchor="start" x="527.5" y="-271.3" font-family="Times New Roman,serif" font-size="14.00">energy : str</text>
<text text-anchor="start" x="527.5" y="-256.3" font-family="Times New Roman,serif" font-size="14.00">fdotok : bool</text>
<text text-anchor="start" x="527.5" y="-241.3" font-family="Times New Roman,serif" font-size="14.00">inNode</text>
<text text-anchor="start" x="527.5" y="-226.3" font-family="Times New Roman,serif" font-size="14.00">name</text>
<text text-anchor="start" x="527.5" y="-211.3" font-family="Times New Roman,serif" font-size="14.00">nodes : list</text>
<text text-anchor="start" x="527.5" y="-196.3" font-family="Times New Roman,serif" font-size="14.00">outNode</text>
<text text-anchor="start" x="527.5" y="-181.3" font-family="Times New Roman,serif" font-size="14.00">type</text>
<text text-anchor="start" x="527.5" y="-166.3" font-family="Times New Roman,serif" font-size="14.00">workRequired</text>
<polyline fill="none" stroke="black" points="519.5,-158.5 616.5,-158.5 "/>
<text text-anchor="start" x="527.5" y="-143.3" font-family="Times New Roman,serif" font-size="14.00">export()</text>
<text text-anchor="start" x="527.5" y="-128.3" font-family="Times New Roman,serif" font-size="14.00">fdot()</text>
<text text-anchor="start" x="527.5" y="-113.3" font-family="Times New Roman,serif" font-size="14.00">simulate()</text>
<text text-anchor="start" x="527.5" y="-98.3" font-family="Times New Roman,serif" font-size="14.00">sm_energy()</text>
<text text-anchor="start" x="527.5" y="-83.3" font-family="Times New Roman,serif" font-size="14.00">state()</text>
</g>
<!-- 5&#45;&gt;1 -->
<g id="edge4" class="edge"><title>5&#45;&gt;1</title>
<path fill="none" stroke="black" d="M541.173,-354.67C533.619,-393.72 525.569,-435.328 518.61,-471.301"/>
<polygon fill="none" stroke="black" points="515.141,-470.809 516.678,-481.291 522.013,-472.138 515.141,-470.809"/>
</g>
<!-- 6 -->
<g id="node7" class="node"><title>6</title>
<polygon fill="none" stroke="black" points="635,-75.5 635,-354.5 733,-354.5 733,-75.5 635,-75.5"/>
<text text-anchor="middle" x="684" y="-339.3" font-family="Times New Roman,serif" font-size="14.00">TurbineEx0</text>
<polyline fill="none" stroke="black" points="635,-331.5 733,-331.5 "/>
<text text-anchor="start" x="643" y="-316.3" font-family="Times New Roman,serif" font-size="14.00">WExtracted</text>
<text text-anchor="start" x="643" y="-301.3" font-family="Times New Roman,serif" font-size="14.00">devTYPE : str</text>
<text text-anchor="start" x="643" y="-286.3" font-family="Times New Roman,serif" font-size="14.00">ef</text>
<text text-anchor="start" x="643" y="-271.3" font-family="Times New Roman,serif" font-size="14.00">energy : str</text>
<text text-anchor="start" x="643" y="-256.3" font-family="Times New Roman,serif" font-size="14.00">fdotok : bool</text>
<text text-anchor="start" x="643" y="-241.3" font-family="Times New Roman,serif" font-size="14.00">inNode</text>
<text text-anchor="start" x="643" y="-226.3" font-family="Times New Roman,serif" font-size="14.00">name</text>
<text text-anchor="start" x="643" y="-211.3" font-family="Times New Roman,serif" font-size="14.00">nodes : list</text>
<text text-anchor="start" x="643" y="-196.3" font-family="Times New Roman,serif" font-size="14.00">outNode</text>
<text text-anchor="start" x="643" y="-181.3" font-family="Times New Roman,serif" font-size="14.00">type</text>
<text text-anchor="start" x="643" y="-166.3" font-family="Times New Roman,serif" font-size="14.00">workExtracted</text>
<polyline fill="none" stroke="black" points="635,-158.5 733,-158.5 "/>
<text text-anchor="start" x="643" y="-143.3" font-family="Times New Roman,serif" font-size="14.00">export()</text>
<text text-anchor="start" x="643" y="-128.3" font-family="Times New Roman,serif" font-size="14.00">fdot()</text>
<text text-anchor="start" x="643" y="-113.3" font-family="Times New Roman,serif" font-size="14.00">simulate()</text>
<text text-anchor="start" x="643" y="-98.3" font-family="Times New Roman,serif" font-size="14.00">sm_energy()</text>
<text text-anchor="start" x="643" y="-83.3" font-family="Times New Roman,serif" font-size="14.00">state()</text>
</g>
<!-- 6&#45;&gt;1 -->
<g id="edge5" class="edge"><title>6&#45;&gt;1</title>
<path fill="none" stroke="black" d="M655.996,-354.737C647.954,-380.615 637.782,-406.792 625,-430 612.497,-452.702 595.531,-474.697 578.135,-494.192"/>
<polygon fill="none" stroke="black" points="575.336,-492.068 571.194,-501.819 580.513,-496.779 575.336,-492.068"/>
</g>
<!-- 7 -->
<g id="node8" class="node"><title>7</title>
<polygon fill="none" stroke="black" points="751,-68 751,-362 849,-362 849,-68 751,-68"/>
<text text-anchor="middle" x="800" y="-346.8" font-family="Times New Roman,serif" font-size="14.00">TurbineEx1</text>
<polyline fill="none" stroke="black" points="751,-339 849,-339 "/>
<text text-anchor="start" x="759" y="-323.8" font-family="Times New Roman,serif" font-size="14.00">WExtracted</text>
<text text-anchor="start" x="759" y="-308.8" font-family="Times New Roman,serif" font-size="14.00">devTYPE : str</text>
<text text-anchor="start" x="759" y="-293.8" font-family="Times New Roman,serif" font-size="14.00">ef</text>
<text text-anchor="start" x="759" y="-278.8" font-family="Times New Roman,serif" font-size="14.00">energy : str</text>
<text text-anchor="start" x="759" y="-263.8" font-family="Times New Roman,serif" font-size="14.00">extNode</text>
<text text-anchor="start" x="759" y="-248.8" font-family="Times New Roman,serif" font-size="14.00">fdotok : bool</text>
<text text-anchor="start" x="759" y="-233.8" font-family="Times New Roman,serif" font-size="14.00">inNode</text>
<text text-anchor="start" x="759" y="-218.8" font-family="Times New Roman,serif" font-size="14.00">name</text>
<text text-anchor="start" x="759" y="-203.8" font-family="Times New Roman,serif" font-size="14.00">nodes : list</text>
<text text-anchor="start" x="759" y="-188.8" font-family="Times New Roman,serif" font-size="14.00">outNode</text>
<text text-anchor="start" x="759" y="-173.8" font-family="Times New Roman,serif" font-size="14.00">type</text>
<text text-anchor="start" x="759" y="-158.8" font-family="Times New Roman,serif" font-size="14.00">workExtracted</text>
<polyline fill="none" stroke="black" points="751,-151 849,-151 "/>
<text text-anchor="start" x="759" y="-135.8" font-family="Times New Roman,serif" font-size="14.00">export()</text>
<text text-anchor="start" x="759" y="-120.8" font-family="Times New Roman,serif" font-size="14.00">fdot()</text>
<text text-anchor="start" x="759" y="-105.8" font-family="Times New Roman,serif" font-size="14.00">simulate()</text>
<text text-anchor="start" x="759" y="-90.8" font-family="Times New Roman,serif" font-size="14.00">sm_energy()</text>
<text text-anchor="start" x="759" y="-75.8" font-family="Times New Roman,serif" font-size="14.00">state()</text>
</g>
<!-- 7&#45;&gt;1 -->
<g id="edge6" class="edge"><title>7&#45;&gt;1</title>
<path fill="none" stroke="black" d="M777.108,-362.037C768.785,-386.333 757.446,-410.072 742,-430 701.087,-482.782 633.82,-518.649 580.576,-540.48"/>
<polygon fill="none" stroke="black" points="579.125,-537.291 571.146,-544.261 581.73,-543.788 579.125,-537.291"/>
</g>
<!-- 8 -->
<g id="node9" class="node"><title>8</title>
<polygon fill="none" stroke="black" points="867,-0.5 867,-429.5 1093,-429.5 1093,-0.5 867,-0.5"/>
<text text-anchor="middle" x="980" y="-414.3" font-family="Times New Roman,serif" font-size="14.00">RankineCycle</text>
<polyline fill="none" stroke="black" points="867,-406.5 1093,-406.5 "/>
<text text-anchor="start" x="875" y="-391.3" font-family="Times New Roman,serif" font-size="14.00">Comps : dict</text>
<text text-anchor="start" x="875" y="-376.3" font-family="Times New Roman,serif" font-size="14.00">DevNum : int</text>
<text text-anchor="start" x="875" y="-361.3" font-family="Times New Roman,serif" font-size="14.00">HeatRate : float</text>
<text text-anchor="start" x="875" y="-346.3" font-family="Times New Roman,serif" font-size="14.00">NodeNum</text>
<text text-anchor="start" x="875" y="-331.3" font-family="Times New Roman,serif" font-size="14.00">NodehNum : int</text>
<text text-anchor="start" x="875" y="-316.3" font-family="Times New Roman,serif" font-size="14.00">SteamRate</text>
<text text-anchor="start" x="875" y="-301.3" font-family="Times New Roman,serif" font-size="14.00">Wcycledot : NoneType</text>
<text text-anchor="start" x="875" y="-286.3" font-family="Times New Roman,serif" font-size="14.00">efficiency : float</text>
<text text-anchor="start" x="875" y="-271.3" font-family="Times New Roman,serif" font-size="14.00">fdotok : bool</text>
<text text-anchor="start" x="875" y="-256.3" font-family="Times New Roman,serif" font-size="14.00">mdot : NoneType</text>
<text text-anchor="start" x="875" y="-241.3" font-family="Times New Roman,serif" font-size="14.00">name : NoneType</text>
<text text-anchor="start" x="875" y="-226.3" font-family="Times New Roman,serif" font-size="14.00">netpoweroutput : int</text>
<text text-anchor="start" x="875" y="-211.3" font-family="Times New Roman,serif" font-size="14.00">nodes : list</text>
<text text-anchor="start" x="875" y="-196.3" font-family="Times New Roman,serif" font-size="14.00">totalQAdded : int</text>
<text text-anchor="start" x="875" y="-181.3" font-family="Times New Roman,serif" font-size="14.00">totalWExtracted : int</text>
<text text-anchor="start" x="875" y="-166.3" font-family="Times New Roman,serif" font-size="14.00">totalWRequired : int</text>
<text text-anchor="start" x="875" y="-151.3" font-family="Times New Roman,serif" font-size="14.00">totalheatAdded : int</text>
<text text-anchor="start" x="875" y="-136.3" font-family="Times New Roman,serif" font-size="14.00">totalworkExtracted : int</text>
<text text-anchor="start" x="875" y="-121.3" font-family="Times New Roman,serif" font-size="14.00">totalworkRequired : int</text>
<polyline fill="none" stroke="black" points="867,-113.5 1093,-113.5 "/>
<text text-anchor="start" x="875" y="-98.3" font-family="Times New Roman,serif" font-size="14.00">OutFiles()</text>
<text text-anchor="start" x="875" y="-83.3" font-family="Times New Roman,serif" font-size="14.00">SpecifiedMassFlowSimulator()</text>
<text text-anchor="start" x="875" y="-68.3" font-family="Times New Roman,serif" font-size="14.00">SpecifiedNetOutputPowerSimulator()</text>
<text text-anchor="start" x="875" y="-53.3" font-family="Times New Roman,serif" font-size="14.00">addRankine()</text>
<text text-anchor="start" x="875" y="-38.3" font-family="Times New Roman,serif" font-size="14.00">componentState()</text>
<text text-anchor="start" x="875" y="-23.3" font-family="Times New Roman,serif" font-size="14.00">cycleFdot()</text>
<text text-anchor="start" x="875" y="-8.3" font-family="Times New Roman,serif" font-size="14.00">cycleSimulator()</text>
</g>
<!-- 9 -->
<g id="node10" class="node"><title>9</title>
<polygon fill="none" stroke="black" points="835.5,-504 835.5,-633 1124.5,-633 1124.5,-504 835.5,-504"/>
<text text-anchor="middle" x="980" y="-617.8" font-family="Times New Roman,serif" font-size="14.00">SimRankineCycle</text>
<polyline fill="none" stroke="black" points="835.5,-610 1124.5,-610 "/>
<text text-anchor="start" x="843.5" y="-594.8" font-family="Times New Roman,serif" font-size="14.00">cycle</text>
<text text-anchor="start" x="843.5" y="-579.8" font-family="Times New Roman,serif" font-size="14.00">jsonfilename</text>
<text text-anchor="start" x="843.5" y="-564.8" font-family="Times New Roman,serif" font-size="14.00">prefixResultFileName</text>
<polyline fill="none" stroke="black" points="835.5,-557 1124.5,-557 "/>
<text text-anchor="start" x="843.5" y="-541.8" font-family="Times New Roman,serif" font-size="14.00">CycleSimulator()</text>
<text text-anchor="start" x="843.5" y="-526.8" font-family="Times New Roman,serif" font-size="14.00">SpecifiedMassFlowSimulatorAndOutput()</text>
<text text-anchor="start" x="843.5" y="-511.8" font-family="Times New Roman,serif" font-size="14.00">SpecifiedNetOutputPowerSimulatorAndOutput()</text>
</g>
<!-- 8&#45;&gt;9 -->
<g id="edge7" class="edge"><title>8&#45;&gt;9</title>
<path fill="none" stroke="black" d="M980,-429.587C980,-451.639 980,-472.857 980,-491.761"/>
<polygon fill="black" stroke="black" points="980,-491.835 984,-497.835 980,-503.835 976,-497.835 980,-491.835"/>
<text text-anchor="middle" x="995" y="-451.8" font-family="Times New Roman,serif" font-size="14.00" fill="green">cycle</text>
</g>
</g>
</svg>
